<svg width="156" height="51" viewBox="0 0 156 51" fill="none" xmlns="http://www.w3.org/2000/svg">
<path d="M59.2743 16.9798V19.8177H51.9586V24.3187H57.5645V27.1101H51.9586V34.5188H48.4461V16.9798H59.2743Z" fill="#505050"/>
<path d="M64.3224 33.8442C63.2524 33.251 62.4033 32.4136 61.7985 31.3204C61.1821 30.2271 60.8797 28.971 60.8797 27.552C60.8797 26.1331 61.1938 24.877 61.8218 23.7837C62.4499 22.6904 63.3105 21.853 64.3922 21.2599C65.4854 20.6667 66.695 20.3643 68.0326 20.3643C69.3701 20.3643 70.5913 20.6667 71.6729 21.2599C72.7662 21.853 73.6152 22.7021 74.2433 23.7837C74.8713 24.877 75.1854 26.1331 75.1854 27.552C75.1854 28.971 74.8597 30.2271 74.22 31.3204C73.5803 32.4136 72.7081 33.251 71.6031 33.8442C70.5099 34.4374 69.277 34.7398 67.9162 34.7398C66.602 34.7398 65.3924 34.449 64.3224 33.8442ZM69.7422 31.2157C70.3005 30.9017 70.7541 30.4364 71.0914 29.82C71.4287 29.2036 71.5915 28.4476 71.5915 27.5637C71.5915 26.2378 71.2426 25.2259 70.5448 24.5048C69.8469 23.7953 68.9979 23.4348 67.9977 23.4348C66.9974 23.4348 66.1484 23.7953 65.4738 24.5048C64.7992 25.2143 64.4503 26.2378 64.4503 27.5637C64.4503 28.8896 64.776 29.9014 65.4389 30.6109C66.1019 31.3204 66.9393 31.6809 67.9395 31.6809C68.5792 31.6809 69.184 31.5181 69.7422 31.2157Z" fill="#505050"/>
<path d="M80.3615 33.8442C79.2914 33.251 78.4424 32.4136 77.8376 31.3204C77.2212 30.2271 76.9188 28.971 76.9188 27.552C76.9188 26.1331 77.2328 24.877 77.8609 23.7837C78.4889 22.6904 79.3496 21.853 80.4312 21.2599C81.5245 20.6667 82.7341 20.3643 84.0716 20.3643C85.4091 20.3643 86.6304 20.6667 87.712 21.2599C88.8053 21.853 89.6543 22.7021 90.2824 23.7837C90.9104 24.877 91.2244 26.1331 91.2244 27.552C91.2244 28.971 90.8988 30.2271 90.2591 31.3204C89.6194 32.4136 88.7471 33.251 87.6422 33.8442C86.5489 34.4374 85.3161 34.7398 83.9553 34.7398C82.6411 34.7398 81.4315 34.449 80.3615 33.8442ZM85.7697 31.2157C86.328 30.9017 86.7816 30.4364 87.1188 29.82C87.4561 29.2036 87.619 28.4476 87.619 27.5637C87.619 26.2378 87.27 25.2259 86.5722 24.5048C85.8744 23.7953 85.0253 23.4348 84.0251 23.4348C83.0249 23.4348 82.1758 23.7953 81.5013 24.5048C80.8267 25.2143 80.4778 26.2378 80.4778 27.5637C80.4778 28.8896 80.8034 29.9014 81.4664 30.6109C82.1293 31.3204 82.9667 31.6809 83.9669 31.6809C84.6183 31.6809 85.2114 31.5181 85.7697 31.2157Z" fill="#505050"/>
<path d="M93.7586 23.7605C94.3169 22.6672 95.0845 21.8298 96.0614 21.2483C97.0384 20.6667 98.1084 20.3643 99.3064 20.3643C100.214 20.3643 101.074 20.5621 101.9 20.9575C102.726 21.3529 103.377 21.8763 103.866 22.5276V15.9214H107.436V34.5188H103.866V32.4602C103.435 33.1464 102.819 33.7047 102.028 34.1234C101.237 34.5421 100.33 34.7514 99.2947 34.7514C98.1201 34.7514 97.05 34.449 96.0731 33.8442C95.0961 33.2394 94.3401 32.3904 93.7702 31.2971C93.2119 30.2038 92.9328 28.9361 92.9328 27.5172C92.9212 26.0982 93.2003 24.8538 93.7586 23.7605ZM103.377 25.3539C103.04 24.7375 102.586 24.2722 102.016 23.9466C101.446 23.6209 100.83 23.4581 100.179 23.4581C99.5274 23.4581 98.9226 23.6209 98.3643 23.9349C97.806 24.249 97.3641 24.7142 97.0151 25.3306C96.6662 25.947 96.5034 26.6681 96.5034 27.5055C96.5034 28.3429 96.6779 29.0757 97.0151 29.7037C97.3641 30.3318 97.806 30.8086 98.3759 31.1459C98.9342 31.4832 99.539 31.646 100.167 31.646C100.818 31.646 101.435 31.4832 102.005 31.1576C102.575 30.8319 103.028 30.3667 103.365 29.7502C103.703 29.1338 103.866 28.4011 103.866 27.5521C103.877 26.703 103.714 25.9703 103.377 25.3539Z" fill="#505050"/>
<path d="M116.253 20.9924C117.044 20.5737 117.963 20.3643 118.975 20.3643C120.161 20.3643 121.243 20.6551 122.208 21.2483C123.173 21.8298 123.929 22.6672 124.499 23.7488C125.057 24.8305 125.336 26.0866 125.336 27.5055C125.336 28.9245 125.057 30.1922 124.499 31.2855C123.941 32.3788 123.173 33.2278 122.208 33.8326C121.243 34.4374 120.173 34.7398 118.975 34.7398C117.939 34.7398 117.032 34.5304 116.253 34.1234C115.474 33.7163 114.846 33.1813 114.38 32.53V34.5188H110.868V15.9214H114.38V22.6323C114.834 21.9577 115.462 21.4111 116.253 20.9924ZM121.231 25.3306C120.882 24.7142 120.44 24.249 119.87 23.9349C119.312 23.6209 118.707 23.4581 118.044 23.4581C117.404 23.4581 116.811 23.6209 116.253 23.9466C115.695 24.2722 115.241 24.7491 114.892 25.3655C114.543 25.9819 114.38 26.7147 114.38 27.5521C114.38 28.3895 114.555 29.1222 114.892 29.7386C115.241 30.355 115.683 30.8319 116.253 31.1576C116.811 31.4832 117.416 31.646 118.044 31.646C118.695 31.646 119.3 31.4832 119.87 31.1459C120.428 30.8086 120.882 30.3318 121.231 29.7154C121.58 29.0989 121.743 28.3546 121.743 27.5055C121.743 26.6681 121.568 25.947 121.231 25.3306Z" fill="#505050"/>
<path d="M130.465 33.8442C129.395 33.2511 128.546 32.4137 127.941 31.3204C127.325 30.2271 127.023 28.971 127.023 27.5521C127.023 26.1331 127.337 24.877 127.965 23.7837C128.593 22.6905 129.453 21.8531 130.535 21.2599C131.628 20.6667 132.838 20.3643 134.175 20.3643C135.513 20.3643 136.734 20.6667 137.816 21.2599C138.909 21.8531 139.758 22.7021 140.386 23.7837C141.014 24.877 141.328 26.1331 141.328 27.5521C141.328 28.971 141.003 30.2271 140.363 31.3204C139.723 32.4137 138.851 33.2511 137.746 33.8442C136.653 34.4374 135.42 34.7398 134.059 34.7398C132.745 34.7398 131.535 34.449 130.465 33.8442ZM135.873 31.2157C136.432 30.9017 136.885 30.4365 137.223 29.82C137.56 29.2036 137.723 28.4476 137.723 27.5637C137.723 26.2378 137.374 25.2259 136.676 24.5048C135.978 23.7954 135.129 23.4348 134.129 23.4348C133.129 23.4348 132.28 23.7954 131.605 24.5048C130.93 25.2143 130.582 26.2378 130.582 27.5637C130.582 28.8896 130.907 29.9015 131.57 30.6109C132.233 31.3204 133.07 31.6809 134.071 31.6809C134.722 31.6809 135.315 31.5181 135.873 31.2157Z" fill="#505050"/>
<path d="M151.62 34.5188L148.759 30.1922L146.224 34.5188H142.456L147.003 27.5288L142.409 20.597H146.375L149.213 24.8887L151.772 20.597H155.54L150.969 27.5288L155.598 34.5188H151.62Z" fill="#505050"/>
<path d="M39.3388 14.3048L30.4065 9.15244C29.5691 8.67558 28.5107 8.95472 28.0222 9.79212C27.5453 10.6295 27.8245 11.6879 28.6619 12.1764L36.7219 16.8286V35.4492L29.9063 39.392C29.1271 38.7291 28.1385 38.2871 27.0336 38.1243C25.4053 37.88 23.6723 38.229 22.1371 39.1129C18.8456 41.0203 17.4732 44.8468 19.0899 47.6498C20.1017 49.3944 22.0324 50.3364 24.1492 50.3364C25.4286 50.3364 26.7661 49.9991 27.9989 49.278C29.5342 48.3941 30.7089 47.0566 31.302 45.533C31.7091 44.4979 31.8138 43.4162 31.6393 42.416L39.3271 37.9731C39.8621 37.6591 40.1994 37.0892 40.1994 36.4611V15.8168C40.2111 15.2004 39.8738 14.6188 39.3388 14.3048ZM28.0571 44.2536C27.7547 45.0329 27.0917 45.7656 26.2543 46.2425C24.6493 47.1729 22.7535 47.0101 22.1138 45.8819C21.4741 44.7654 22.2767 43.0324 23.8817 42.1136C24.5563 41.7181 25.3122 41.5088 26.0101 41.5088C26.1729 41.5088 26.3474 41.5204 26.5102 41.5437C26.9173 41.6018 27.65 41.8112 28.0338 42.4625C28.406 43.1371 28.2083 43.8698 28.0571 44.2536Z" fill="#505050"/>
<path d="M20.6018 38.1941C21.5671 38.1941 22.3464 37.4149 22.3464 36.4495V27.1451L30.4064 22.4928C31.2438 22.0159 31.5229 20.9459 31.0461 20.1085C30.5692 19.2711 29.4992 18.992 28.6618 19.4688L20.6018 24.1211L12.5418 19.4688C11.7044 18.992 10.646 19.2711 10.1575 20.1085C9.99468 20.3877 9.9249 20.6784 9.9249 20.9808C9.9249 21.5856 10.2389 22.1671 10.7972 22.4928L18.8572 27.1451V36.4495C18.8572 37.4149 19.6365 38.1941 20.6018 38.1941Z" fill="#505050"/>
<path d="M12.5425 40.1016L4.48244 35.4493V16.8287L11.2282 12.9324C12.5425 14.2583 14.3219 14.9794 16.1479 14.9794C17.3226 14.9794 18.509 14.677 19.5906 14.0606L22.2656 12.5137C23.1031 12.0369 23.3822 10.9669 22.9053 10.1295C22.4285 9.29206 21.3585 9.01292 20.5211 9.48978L17.846 11.0366C16.7644 11.6647 15.485 11.6298 14.4731 11.0599L19.6953 8.04758C20.5327 7.57073 20.8118 6.50071 20.335 5.66331C19.8581 4.8259 18.7881 4.54677 17.9507 5.02362L12.7285 8.03595C12.7402 6.87289 13.3566 5.74472 14.4382 5.1283L17.1133 3.58143C17.9507 3.10457 18.2298 2.03455 17.753 1.19715C17.2761 0.359746 16.2061 0.0806117 15.3687 0.557467L12.6937 2.10434C9.91394 3.70936 8.66946 6.9543 9.4836 9.90848L1.86555 14.3049C1.33054 14.6189 0.993256 15.1888 0.993256 15.8168V36.4495C0.993256 37.0776 1.33054 37.6475 1.86555 37.9615L10.7979 43.1139C11.077 43.2767 11.3678 43.3465 11.6702 43.3465C12.275 43.3465 12.8565 43.0325 13.1821 42.4742C13.659 41.6484 13.3799 40.5784 12.5425 40.1016Z" fill="#505050"/>
</svg>
