<svg width="196" height="51" viewBox="0 0 196 51" fill="none" xmlns="http://www.w3.org/2000/svg">
<path d="M54.7862 12.2156C53.0391 12.2156 51.6212 10.8007 51.6212 9.05463C51.6212 7.30976 53.0379 5.89362 54.7862 5.89362C56.5333 5.89362 57.9512 7.30851 57.9512 9.05463C57.95 10.8007 56.5333 12.2156 54.7862 12.2156Z" fill="#505050"/>
<path d="M33.3082 7.61972C31.7751 7.61972 30.5311 6.37856 30.5311 4.84617C30.5311 3.31504 31.7739 2.07263 33.3082 2.07263C34.8412 2.07263 36.0852 3.31379 36.0852 4.84617C36.084 6.37731 34.8412 7.61972 33.3082 7.61972Z" fill="#505050"/>
<path d="M45.599 23.5023V23.6061C45.599 24.481 45.4201 25.3147 45.0947 26.0709C44.6429 23.0523 42.0348 20.7375 38.8861 20.7375H38.7822C37.9161 20.7375 37.0914 20.9125 36.3418 21.2287C36.3405 21.23 36.3405 21.23 36.3393 21.23C36.2504 21.2675 36.1616 21.3075 36.0752 21.3487C36.0715 21.3512 36.0652 21.3525 36.0614 21.3562C35.7048 21.4975 35.3156 21.575 34.9088 21.575H34.8563C34.4245 21.575 34.0128 21.4875 33.6373 21.33C33.5485 21.2925 33.4609 21.2512 33.3758 21.205V21.2037C32.3883 20.6763 31.7163 19.6376 31.7163 18.4402V18.3889C31.7163 18.1727 31.7388 17.9615 31.7801 17.7565C31.7801 17.754 31.7814 17.7515 31.7814 17.7477C31.8352 17.5928 31.8815 17.434 31.9215 17.2728C32.0442 16.7853 32.1093 16.2741 32.1093 15.7479V15.6441C32.1093 13.3731 30.9003 11.3832 29.0882 10.282C29.0869 10.2833 29.0869 10.2833 29.0869 10.282C28.9893 10.2296 28.8942 10.1758 28.7991 10.1196C28.7966 10.1171 28.7941 10.1158 28.7903 10.1146C27.1734 9.18088 25.7404 7.96722 24.5565 6.53858C23.2462 4.96245 22.2425 3.12508 21.6306 1.11649C23.2387 3.5613 25.5127 5.52865 28.1959 6.76106C28.8316 7.05479 29.4911 7.30602 30.1694 7.51101C32.0742 8.49218 33.5998 10.1021 34.4708 12.0669C34.6685 12.5106 34.8312 12.9718 34.9576 13.4493C35.1141 14.0368 35.2154 14.6467 35.2542 15.2742C35.2668 15.4729 35.2743 15.6716 35.2743 15.8729V16.0279C35.2743 16.1154 35.273 16.2029 35.2705 16.2891C35.2592 16.7066 35.447 17.1078 35.7724 17.3715C35.7886 17.3853 35.8049 17.3978 35.8212 17.4103C36.1841 17.6927 36.6734 17.7502 37.1064 17.5965C37.3567 17.5078 37.6133 17.434 37.8761 17.3778C38.3079 17.284 38.7546 17.234 39.2139 17.234H39.3178C39.5155 17.234 39.7108 17.244 39.9023 17.2603C43.0986 17.5553 45.599 20.2363 45.599 23.5023Z" fill="#505050"/>
<path d="M41.966 1.8039V1.96014C41.966 3.04131 41.7833 4.07998 41.4466 5.04615C40.4141 8.01468 37.9362 10.307 34.8525 11.0795C34.9339 8.81337 36.2217 6.85477 38.0914 5.8236C38.0914 5.82235 38.0926 5.82235 38.0939 5.82235C38.2703 5.74485 38.4418 5.65986 38.6108 5.56612C38.612 5.56612 38.6133 5.56487 38.6133 5.56487C40.478 4.53494 41.762 2.58509 41.8496 0.327759C41.9259 0.808973 41.966 1.30269 41.966 1.8039Z" fill="#505050"/>
<path d="M41.966 24.1673C40.4429 27.3108 37.2179 29.4794 33.4884 29.4794H33.332C28.1333 29.4794 23.9171 25.2684 23.9171 20.0763V19.9201C23.9171 17.149 25.1185 14.6555 27.0295 12.9356C26.4288 14.1718 26.0921 15.5604 26.0921 17.0278V17.1828C26.0921 22.3762 30.3084 26.5858 35.5071 26.5858H35.6635C38.0851 26.5858 40.2978 25.6709 41.966 24.1673Z" fill="#505050"/>
<path d="M66.7354 5.17615C66.5464 7.21474 65.9645 9.13835 65.0684 10.8757C64.7868 11.4219 64.474 11.9494 64.1323 12.4544C62.7357 14.5242 60.6832 16.0491 58.3467 16.934C56.9926 17.4477 55.7286 18.1427 54.5835 18.9889C51.9791 20.9162 49.993 23.6285 48.9781 26.777V26.5458C48.9781 23.9597 49.6038 21.5224 50.7151 19.3738C51.7952 17.2802 53.3345 15.4616 55.2017 14.048C56.4657 13.0906 57.8799 12.3206 59.4017 11.7794C62.4841 10.6832 65.0822 8.50965 66.5389 5.58362C66.6065 5.44988 66.6716 5.31364 66.7354 5.17615Z" fill="#505050"/>
<path d="M51.3834 13.7043C51.1156 13.7393 50.8428 13.7568 50.5674 13.7568H50.4636C47.0507 13.7568 44.275 11.037 44.1886 7.64974C44.1873 7.62224 44.1873 7.59474 44.1873 7.56599V7.30476C44.1873 7.27726 44.1873 7.24852 44.1886 7.21977C44.1986 5.28116 44.5603 3.42755 45.2161 1.71643C45.2336 2.38388 45.2962 3.03883 45.3963 3.68253C46.0333 7.75848 48.2422 11.3107 51.3834 13.7043Z" fill="#505050"/>
<path d="M56.9488 43.2046C54.7737 41.2185 52.9503 38.8549 51.5811 36.2176C49.4161 32.0441 49.6676 26.9908 52.3821 23.1511C52.4509 23.0536 52.521 22.9573 52.5923 22.8611C52.5786 23.2886 52.5711 23.7185 52.5711 24.1497V24.8247C52.5723 31.4367 54.1492 37.6812 56.9488 43.2046Z" fill="#505050"/>
<path d="M22.0423 35.5689C14.825 31.453 8.9893 25.1984 5.39754 17.6702C4.2274 15.2167 3.61041 12.5319 3.60791 9.81459C3.60791 9.80084 3.60791 9.78709 3.60791 9.77334V9.09714C3.60791 6.23361 3.90326 3.44007 4.46768 0.744019C4.46393 0.956503 4.46268 1.16774 4.46268 1.38147V2.05767C4.46142 15.9466 11.4197 28.212 22.0423 35.5689Z" fill="#505050"/>
<path d="M57.8073 46.9493C56.318 47.598 54.7812 48.1617 53.2043 48.6292C49.5049 49.7316 45.584 50.324 41.5267 50.324H40.8509C34.1492 50.324 27.8279 48.7117 22.25 45.8531C9.06814 39.0974 0.0499268 25.3884 0.0499268 9.57584V8.90089C0.0499268 7.4135 0.12877 5.94486 0.286458 4.49872C1.92716 19.7538 11.9991 32.4891 25.7567 37.9625C21.747 35.1239 19.1301 30.453 19.1301 25.1709V24.9122C19.1301 21.6524 20.1263 18.6239 21.8321 16.1178C21.7044 16.9228 21.6381 17.7502 21.6381 18.5914V18.8501C21.6381 27.5057 28.6639 34.5227 37.3292 34.5227H37.5908C40.5405 34.5227 43.3013 35.3352 45.6579 36.7513C47.1321 37.635 48.4487 38.7524 49.5525 40.0536C49.7064 40.231 49.8528 40.411 49.9943 40.596C49.9955 40.5985 49.998 40.601 49.9993 40.6035C50.2708 41.036 50.5637 41.4547 50.8778 41.8572C50.8778 41.8584 50.8791 41.8597 50.8791 41.8597C52.6537 44.1432 55.0465 45.9231 57.8073 46.9493Z" fill="#505050"/>
<path d="M77.0489 46.6305C76.4244 46.6043 75.8587 46.318 75.3506 45.7743C75.049 45.4681 74.8062 45.1319 74.621 44.7682C74.2556 44.0395 74.0341 43.267 73.954 42.4533L73.9302 42.1921C73.9139 41.9759 73.9064 41.7534 73.9064 41.5259C73.9064 41.0709 73.9452 40.5335 74.0216 39.9123C74.0979 39.2911 74.2456 38.6686 74.4621 38.0462L74.6611 37.46C75.1054 36.2663 75.7937 35.2301 76.7248 34.3527C77.3067 33.8352 78.0025 33.5653 78.8123 33.544C79.05 33.544 79.254 33.5603 79.423 33.5915C79.5919 33.6228 79.7721 33.689 79.9624 33.789C80.2527 33.969 80.4142 34.2327 80.4467 34.5814L80.4542 34.6364V34.7152C80.4542 34.9264 80.4004 35.1364 80.2915 35.3451C80.1826 35.5539 80.0387 35.7513 79.8585 35.9351C79.7797 36.0138 79.7071 36.0726 79.6445 36.1101C79.5707 36.1626 79.5018 36.1888 79.438 36.1888C79.4005 36.1888 79.3504 36.1713 79.2878 36.1376C79.224 36.1038 79.1852 36.0651 79.1689 36.0226C79.1589 36.0063 79.1527 35.9913 79.1527 35.9751V35.9588C79.1527 35.9276 79.1627 35.8901 79.1839 35.8476C79.448 35.5301 79.5807 35.2076 79.5807 34.8802V34.7539C79.5594 34.5739 79.4981 34.4264 79.398 34.3102C79.2978 34.199 79.1652 34.144 79.0012 34.144H78.9775C78.612 34.154 78.2128 34.4239 77.7785 34.9526C77.3292 35.5239 76.9588 36.1288 76.6672 36.7675L76.4132 37.3537C76.1704 37.9512 75.9576 38.6324 75.7787 39.3986C75.5296 40.4822 75.4057 41.4784 75.4057 42.3871C75.4057 42.6308 75.4132 42.8683 75.4295 43.1008L75.4458 43.3233C75.5359 44.222 75.7787 44.9294 76.1754 45.4481C76.5408 45.8918 76.9075 46.1143 77.2779 46.1143L77.333 46.1068C78.6295 45.9218 79.5494 44.2207 80.095 41.0022L80.1501 40.7485C80.1814 40.601 80.2077 40.4497 80.2289 40.2972C80.2452 40.186 80.2953 40.101 80.3804 40.0398C80.4655 39.9785 80.5493 39.946 80.6344 39.941H80.6507C80.8359 39.941 80.9385 40.0235 80.9598 40.1873L80.9523 40.2748C80.8196 41.2209 80.6157 42.1559 80.3416 43.0808C80.2039 43.5833 80.0312 44.0732 79.8222 44.5507C79.6132 45.0294 79.3266 45.4469 78.9612 45.8031C78.5957 46.1593 78.2553 46.388 77.9375 46.4893C77.6309 46.5843 77.363 46.6318 77.1353 46.6318H77.0489V46.6305Z" fill="#505050"/>
<path d="M84.6442 42.6196C84.7819 42.4396 84.9208 42.2071 85.061 41.9221C85.2011 41.6372 85.3325 41.3572 85.4539 41.0822C85.5065 40.966 85.5565 40.8572 85.6053 40.7572C85.6692 40.6247 85.7317 40.5323 85.7956 40.4798C85.8594 40.4273 85.917 40.401 85.9708 40.401C86.0283 40.401 86.0747 40.4248 86.1097 40.4723C86.1435 40.5198 86.161 40.5748 86.161 40.6385C86.161 40.6697 86.156 40.7022 86.1447 40.7335L86.1285 40.781C85.9595 41.2409 85.7518 41.7272 85.5052 42.2396C85.2587 42.7521 84.9646 43.1508 84.6204 43.437C84.499 44.2032 84.2262 44.9032 83.8032 45.5381C83.623 45.7869 83.4115 45.9656 83.1687 46.0768C82.9247 46.1881 82.6581 46.2431 82.3665 46.2431C82.2977 46.2431 82.2263 46.2406 82.1525 46.2356C81.6081 46.1781 81.1651 45.9793 80.8272 45.6406C80.488 45.3019 80.2415 44.8732 80.085 44.3532C79.9286 43.8333 79.851 43.2845 79.851 42.7083C79.851 42.2271 79.8998 41.7522 79.9974 41.2809C80.0951 40.811 80.2365 40.386 80.4217 40.0085C80.6069 39.6311 80.8272 39.3286 81.085 39.1011C81.3415 38.8736 81.6256 38.7599 81.9385 38.7599C81.976 38.7599 82.0098 38.7624 82.0411 38.7674C82.195 38.7674 82.3402 38.7911 82.4779 38.8386C82.6418 38.8974 82.7244 38.9786 82.7244 39.0849C82.7244 39.1436 82.6956 39.2149 82.6368 39.2986C82.6318 39.3098 82.623 39.3198 82.613 39.3298C82.603 39.3411 82.5893 39.3586 82.573 39.3848C82.7057 39.3586 82.8346 39.3448 82.9622 39.3448C83.3326 39.3448 83.663 39.4773 83.9546 39.7411C84.2663 40.0473 84.4652 40.4198 84.5503 40.8585C84.5929 41.0485 84.6192 41.2822 84.6292 41.5597C84.6392 41.8372 84.6455 42.0971 84.6455 42.3409V42.6196H84.6442ZM81.7082 42.9921C81.6919 43.2083 81.6844 43.4258 81.6844 43.642C81.6844 43.8858 81.6944 44.1282 81.7157 44.3707C81.732 44.7457 81.8396 45.0944 82.0411 45.4169C82.1475 45.5431 82.2664 45.6069 82.3978 45.6069C82.5304 45.6069 82.6568 45.5544 82.7782 45.4481C83.1224 45.0944 83.3815 44.4545 83.5554 43.5295C83.5079 43.5345 83.4578 43.5408 83.404 43.5458C83.2663 43.562 83.1287 43.5695 82.991 43.5695C82.8433 43.5695 82.7119 43.5458 82.598 43.4983C82.4841 43.4508 82.4278 43.3533 82.4278 43.2046V43.1571C82.4378 43.0308 82.4841 42.9183 82.5667 42.8196C82.6481 42.7221 82.7432 42.6733 82.8483 42.6733C82.981 42.6733 83.1149 42.7683 83.2526 42.9583C83.3739 42.9583 83.4853 42.9446 83.5854 42.9183C83.623 42.5958 83.6405 42.2846 83.6405 41.9834C83.6405 41.4972 83.5904 41.0735 83.4891 40.711C83.389 40.3485 83.225 40.1285 82.9972 40.0498C82.9447 40.0335 82.8909 40.026 82.8383 40.026C82.6218 40.026 82.4416 40.1498 82.2989 40.3985C82.1563 40.6472 82.0424 40.9435 81.9573 41.2859C81.8722 41.6297 81.8121 41.9596 81.7745 42.2771C81.742 42.5958 81.7182 42.8333 81.7082 42.9921Z" fill="#505050"/>
<path d="M92.018 46.2655C91.7902 46.2655 91.5674 46.2106 91.3472 46.0993C91.1282 45.9881 90.9467 45.8381 90.804 45.6468C90.5124 45.2719 90.3672 44.6057 90.3672 43.6495C90.3672 42.6608 90.5099 41.4059 90.7953 39.8848C90.5099 40.2335 90.3009 40.6247 90.1683 41.0584C89.8717 41.9409 89.6789 42.8496 89.5888 43.7857L89.5338 44.142C89.4812 44.4219 89.306 44.5619 89.0094 44.5619H88.9781C88.4813 44.5619 88.2322 43.9707 88.2322 42.7858C88.2322 42.0984 88.3136 41.2109 88.4788 40.1223L88.5338 39.7185C88.4174 39.8448 88.3223 39.9885 88.2485 40.146L88.2084 40.2173C87.5201 41.5434 87.1447 42.9808 87.0808 44.5294C87.0596 44.9519 87.0195 45.3744 86.9619 45.7981C86.9357 45.9406 86.8756 46.0431 86.783 46.1031C86.6904 46.1643 86.589 46.1943 86.4776 46.1943C86.3612 46.1943 86.2499 46.1656 86.1447 46.1068C86.0384 46.0493 85.967 45.9718 85.9307 45.8768C85.8456 45.6181 85.773 45.1781 85.713 44.5569C85.6516 43.9357 85.6216 43.2633 85.6216 42.5396C85.6216 41.8734 85.6567 41.2359 85.7242 40.6247C85.7918 40.0135 85.912 39.5323 86.0809 39.1786C86.1597 39.0311 86.2711 38.9148 86.4138 38.8299C86.5565 38.7449 86.6991 38.7036 86.8418 38.7036C86.9845 38.7036 87.1071 38.7486 87.211 38.8386C87.3136 38.9286 87.3662 39.0711 87.3662 39.2661V39.3298C87.3349 39.731 87.3074 40.1385 87.2873 40.551L87.2948 40.7022C87.5652 40.1735 87.7954 39.7698 87.9857 39.4898C88.2347 39.1411 88.5063 38.9661 88.8029 38.9661C88.9293 38.9661 89.0695 39.0011 89.2234 39.0686C89.4399 39.1898 89.5588 39.3773 89.5801 39.631C89.5901 39.716 89.5963 39.8023 89.5963 39.8923C89.5963 40.2885 89.5175 40.8222 89.3586 41.4934C89.3473 41.5359 89.3423 41.5784 89.3423 41.6196C89.3423 41.6359 89.3473 41.6571 89.3586 41.6834C89.4699 41.3247 89.5938 40.9784 89.7315 40.6447C89.9543 40.0948 90.2922 39.6323 90.7477 39.2573C90.8741 39.1673 91.023 39.1223 91.192 39.1223C91.3397 39.1223 91.4748 39.1598 91.5962 39.2336C91.7439 39.3498 91.8215 39.5011 91.8265 39.686C91.8428 39.8235 91.8503 39.9735 91.8503 40.1373C91.8503 40.5335 91.7977 41.1784 91.6913 42.0709C91.5749 43.0483 91.5161 43.7745 91.5161 44.2507C91.5161 44.9794 91.6325 45.4906 91.8653 45.7806C91.9078 45.8281 91.9504 45.8518 91.9917 45.8518C92.1131 45.8518 92.2445 45.6893 92.3846 45.3644C92.5248 45.0394 92.6612 44.6369 92.7939 44.1557C92.9265 43.6745 93.0467 43.187 93.1556 42.6933C93.2644 42.1996 93.3545 41.7684 93.4259 41.4009C93.4972 41.0334 93.5385 40.8047 93.5485 40.7147C93.6011 40.5135 93.6749 40.4135 93.7713 40.4135C93.8088 40.4135 93.8426 40.4197 93.8739 40.4335C93.9052 40.4472 93.9315 40.476 93.9528 40.521C93.974 40.566 93.9866 40.6385 93.9928 40.7385C93.9503 41.3509 93.8239 42.1659 93.6124 43.1795C93.4009 44.1945 93.1731 44.9944 92.9303 45.5818C92.8615 45.7406 92.7739 45.8806 92.6687 46.0018C92.5148 46.1781 92.2983 46.2655 92.018 46.2655Z" fill="#505050"/>
<path d="M99.7559 46.2655C99.5281 46.2655 99.3041 46.2106 99.0851 46.0993C98.8661 45.9881 98.6846 45.8381 98.542 45.6468C98.2504 45.2719 98.1052 44.6057 98.1052 43.6495C98.1052 42.6608 98.2479 41.4059 98.5332 39.8848C98.2479 40.2335 98.0389 40.6247 97.9062 41.0584C97.6096 41.9409 97.4169 42.8496 97.3268 43.7857L97.2717 44.142C97.2191 44.4219 97.0439 44.5619 96.7473 44.5619H96.716C96.2192 44.5619 95.9702 43.9707 95.9702 42.7858C95.9702 42.0984 96.0515 41.2109 96.2167 40.1223L96.2718 39.7185C96.1554 39.8448 96.0603 39.9885 95.9864 40.146L95.9464 40.2173C95.2581 41.5434 94.8826 42.9808 94.8188 44.5294C94.7975 44.9519 94.7575 45.3744 94.6999 45.7981C94.6736 45.9406 94.6135 46.0431 94.5209 46.1031C94.4283 46.1643 94.327 46.1943 94.2156 46.1943C94.0992 46.1943 93.9878 46.1656 93.8827 46.1068C93.7763 46.0493 93.705 45.9718 93.6687 45.8768C93.5836 45.6181 93.511 45.1781 93.4509 44.5569C93.3896 43.9357 93.3596 43.2633 93.3596 42.5396C93.3596 41.8734 93.3946 41.2359 93.4622 40.6247C93.5298 40.0135 93.6499 39.5323 93.8189 39.1786C93.8977 39.0311 94.0091 38.9148 94.1517 38.8299C94.2944 38.7449 94.4371 38.7036 94.5798 38.7036C94.7224 38.7036 94.8451 38.7486 94.9489 38.8386C95.0516 38.9286 95.1041 39.0711 95.1041 39.2661V39.3298C95.0728 39.731 95.0453 40.1385 95.0253 40.551L95.0328 40.7022C95.3031 40.1735 95.5334 39.7698 95.7236 39.4898C95.9727 39.1411 96.2442 38.9661 96.5408 38.9661C96.6672 38.9661 96.8074 39.0011 96.9613 39.0686C97.1778 39.1898 97.2967 39.3773 97.318 39.631C97.328 39.716 97.3343 39.8023 97.3343 39.8923C97.3343 40.2885 97.2554 40.8222 97.0965 41.4934C97.0852 41.5359 97.0802 41.5784 97.0802 41.6196C97.0802 41.6359 97.0852 41.6571 97.0965 41.6834C97.2079 41.3247 97.3318 40.9784 97.4694 40.6447C97.6922 40.0948 98.0301 39.6323 98.4856 39.2573C98.612 39.1673 98.761 39.1223 98.9299 39.1223C99.0776 39.1223 99.2128 39.1598 99.3342 39.2336C99.4818 39.3498 99.5594 39.5011 99.5644 39.686C99.5807 39.8235 99.5882 39.9735 99.5882 40.1373C99.5882 40.5335 99.5356 41.1784 99.4293 42.0709C99.3129 43.0483 99.2541 43.7745 99.2541 44.2507C99.2541 44.9794 99.3704 45.4906 99.6032 45.7806C99.6458 45.8281 99.6883 45.8518 99.7309 45.8518C99.8523 45.8518 99.9837 45.6893 100.124 45.3644C100.264 45.0394 100.4 44.6369 100.533 44.1557C100.666 43.6745 100.786 43.187 100.895 42.6933C101.004 42.1996 101.092 41.7684 101.165 41.4009C101.236 41.0334 101.278 40.8047 101.288 40.7147C101.34 40.5135 101.414 40.4135 101.51 40.4135C101.547 40.4135 101.582 40.4197 101.613 40.4335C101.644 40.4472 101.671 40.476 101.692 40.521C101.713 40.566 101.726 40.6385 101.732 40.7385C101.689 41.3509 101.563 42.1659 101.352 43.1795C101.14 44.1945 100.912 44.9944 100.668 45.5818C100.599 45.7406 100.512 45.8806 100.407 46.0018C100.253 46.1781 100.036 46.2655 99.7559 46.2655Z" fill="#505050"/>
<path d="M103.613 44.4032C103.575 44.4507 103.542 44.4982 103.51 44.5457C103.415 44.6882 103.309 44.8119 103.192 44.9182C102.991 45.0656 102.753 45.1406 102.478 45.1406C102.255 45.1406 102.039 45.0881 101.827 44.9819C101.616 44.8769 101.454 44.7094 101.343 44.4819C101.231 44.2332 101.149 43.9295 101.092 43.5708C101.037 43.2108 101.009 42.8308 101.009 42.4296C101.009 41.8171 101.07 41.2084 101.191 40.606C101.313 40.0035 101.49 39.5173 101.723 39.1473C101.808 39.0311 101.931 38.9386 102.092 38.8699C102.254 38.8011 102.419 38.7674 102.588 38.7674C102.731 38.7674 102.858 38.7986 102.968 38.8624C103.042 38.9099 103.08 38.9761 103.08 39.0598C103.08 39.0811 103.077 39.1023 103.072 39.1236C102.918 39.4836 102.763 40.0798 102.604 40.9147C102.445 41.7496 102.366 42.5396 102.366 43.2845C102.366 43.7607 102.414 44.157 102.509 44.4732C102.535 44.5369 102.567 44.5682 102.604 44.5682C102.678 44.5682 102.768 44.4844 102.875 44.3182C102.98 44.152 103.074 43.9807 103.156 43.807C103.239 43.6332 103.288 43.5195 103.303 43.4658C103.408 43.0645 103.485 42.5546 103.533 41.9359C103.564 41.5772 103.604 41.2184 103.652 40.8622C103.699 40.506 103.771 40.1785 103.866 39.8798C103.961 39.5811 104.09 39.3398 104.251 39.1548C104.413 38.9699 104.628 38.8774 104.898 38.8774C104.988 38.8774 105.083 38.8911 105.184 38.9174C105.262 38.9336 105.335 38.9673 105.398 39.0211C105.445 39.0586 105.469 39.0973 105.469 39.1398C105.469 39.1611 105.464 39.1798 105.453 39.1948C105.294 39.5548 105.135 40.236 104.977 41.2397C104.818 42.2434 104.739 43.1845 104.739 44.062C104.739 44.5432 104.776 44.9457 104.847 45.2706C104.918 45.5956 105.038 45.7793 105.209 45.8218H105.249C105.408 45.8218 105.554 45.6656 105.689 45.3544C105.824 45.0431 105.946 44.6519 106.055 44.1807C106.164 43.7107 106.257 43.2295 106.336 42.7383C106.415 42.2471 106.479 41.8109 106.526 41.4309C106.574 41.0509 106.603 40.7972 106.614 40.6697C106.635 40.5272 106.709 40.456 106.837 40.456H106.963C107.058 40.456 107.127 40.471 107.17 40.4997C107.212 40.5285 107.234 40.5835 107.234 40.6622C107.234 40.6885 107.231 40.7147 107.226 40.741C107.167 41.3697 107.088 41.9934 106.988 42.6121C106.877 43.3145 106.737 44.0207 106.568 44.7282C106.483 45.1031 106.324 45.4469 106.091 45.7581C105.853 46.0643 105.557 46.2181 105.202 46.2181C105.139 46.2181 105.072 46.2131 105.005 46.2018C104.206 46.0643 103.756 45.5894 103.656 44.7744C103.646 44.7057 103.637 44.6344 103.632 44.5607C103.624 44.5132 103.618 44.4607 103.613 44.4032Z" fill="#505050"/>
<path d="M107.978 40.2172L108.09 39.9948C108.211 39.736 108.346 39.4948 108.494 39.2698C108.641 39.0448 108.843 38.8461 109.097 38.6711C109.346 38.5124 109.603 38.4336 109.867 38.4336C110.137 38.4336 110.382 38.5311 110.605 38.7274C110.738 38.8811 110.812 39.0498 110.828 39.2348C110.902 39.621 110.939 40.0173 110.939 40.4235C110.939 40.7884 110.919 41.1572 110.879 41.5296C110.839 41.9021 110.795 42.2708 110.748 42.6358C110.7 42.9845 110.659 43.3258 110.625 43.6582C110.59 43.9907 110.574 44.3107 110.574 44.6169C110.574 44.9819 110.61 45.3194 110.685 45.6318C110.685 45.6368 110.688 45.6431 110.693 45.6481C110.709 45.7218 110.734 45.7931 110.768 45.8618C110.802 45.9306 110.854 45.9731 110.923 45.9881H110.939C110.987 45.9881 111.026 45.9681 111.054 45.9281C111.083 45.8881 111.111 45.8418 111.138 45.7893L111.186 45.7106C111.34 45.4568 111.459 45.1906 111.542 44.9094C111.628 44.6294 111.699 44.3419 111.756 44.0457C111.932 43.2483 112.079 42.4421 112.201 41.6284C112.248 41.3172 112.283 41.0022 112.305 40.6847C112.315 40.5847 112.36 40.521 112.44 40.4947C112.504 40.4785 112.57 40.471 112.637 40.471H112.709C112.788 40.481 112.843 40.4997 112.871 40.526C112.9 40.5522 112.915 40.6022 112.915 40.6772V40.7172C112.873 41.3622 112.789 41.9984 112.661 42.6271C112.54 43.4033 112.37 44.1682 112.153 44.9181C112.053 45.3256 111.87 45.6981 111.605 46.0356C111.52 46.1355 111.416 46.208 111.292 46.253C111.168 46.298 111.039 46.3205 110.907 46.3205C110.636 46.3205 110.404 46.238 110.208 46.0743C109.885 45.7568 109.671 45.3794 109.565 44.9406C109.486 44.6294 109.431 44.3169 109.402 44.0057C109.374 43.6945 109.359 43.3795 109.359 43.062C109.359 42.7396 109.374 42.4208 109.402 42.1071C109.431 41.7934 109.467 41.4796 109.51 41.1672C109.52 41.0772 109.534 40.9872 109.55 40.8972C109.586 40.6122 109.621 40.3285 109.653 40.0448C109.684 39.7623 109.7 39.4785 109.7 39.1923V39.1761C109.7 38.9598 109.66 38.8511 109.581 38.8511H109.565C109.475 38.8511 109.361 38.9386 109.223 39.1123C109.086 39.2873 108.959 39.4673 108.843 39.6548C108.727 39.8423 108.653 39.9673 108.62 40.031C108.15 40.9872 107.839 41.9946 107.692 43.0508V43.0745C107.654 43.3495 107.605 43.7632 107.545 44.3144C107.484 44.8669 107.454 45.2956 107.454 45.6031C107.454 45.6818 107.456 45.7456 107.461 45.7931C107.466 45.8143 107.469 45.8331 107.469 45.8481C107.469 45.9693 107.405 46.0456 107.279 46.0781C107.162 46.1155 107.046 46.133 106.929 46.133C106.797 46.133 106.668 46.1093 106.54 46.0618H106.533C106.395 46.0618 106.297 45.9106 106.239 45.6093C106.181 45.3081 106.151 44.9281 106.151 44.4682C106.151 43.5332 106.222 42.4921 106.365 41.3447C106.508 40.1985 106.629 39.4286 106.73 39.0373C106.799 38.8211 106.944 38.6961 107.167 38.6649C107.272 38.6386 107.381 38.6249 107.493 38.6249C107.609 38.6249 107.725 38.6436 107.842 38.6799C108.016 38.7224 108.103 38.8311 108.103 39.0048V39.0598C108.098 39.1386 108.09 39.2211 108.08 39.3061C108.061 39.641 108.026 39.9423 107.978 40.2172Z" fill="#505050"/>
<path d="M114.018 46.3443C113.816 46.3443 113.624 46.2993 113.438 46.2093C113.099 46.0293 112.83 45.7569 112.629 45.3894C112.427 45.0219 112.283 44.5982 112.196 44.117C112.108 43.6358 112.064 43.1395 112.064 42.6271C112.064 41.9459 112.124 41.2934 112.243 40.6697C112.362 40.046 112.512 39.5498 112.691 39.1798C112.903 38.9311 113.152 38.8074 113.437 38.8074C113.77 38.8074 113.938 38.9261 113.938 39.1636C113.9 39.5548 113.844 40.0285 113.768 40.586C113.691 41.1434 113.619 41.7297 113.55 42.3459C113.481 42.9621 113.447 43.5333 113.447 44.062C113.447 44.9232 113.566 45.5094 113.804 45.8218C113.889 45.9431 113.973 46.0043 114.058 46.0043C114.143 46.0043 114.229 45.9468 114.319 45.8293C114.515 45.5544 114.64 45.2556 114.692 44.9332C114.973 43.7545 115.206 42.5708 115.391 41.3822C115.428 41.1184 115.462 40.851 115.495 40.581C115.511 40.4747 115.557 40.3923 115.634 40.331C115.71 40.2698 115.796 40.2398 115.891 40.2398C115.965 40.2398 116.036 40.261 116.105 40.3035C116.142 40.3348 116.16 40.3723 116.16 40.4148V40.4548C116.075 41.3272 115.949 42.1959 115.78 43.0621C115.516 44.5894 115.182 45.5831 114.78 46.0418C114.574 46.2443 114.319 46.3443 114.018 46.3443ZM113.471 38.4811C113.376 38.4811 113.286 38.4649 113.201 38.4336C113.116 38.4024 113.06 38.3437 113.034 38.2587C112.982 38.1112 112.955 37.9549 112.955 37.7912V37.6087C112.955 37.3125 113.103 37.1487 113.4 37.1175C113.468 37.1012 113.537 37.0938 113.606 37.0938C113.934 37.0938 114.098 37.2025 114.098 37.4187C114.082 37.6137 114.043 37.8074 113.979 37.9974C113.948 38.1037 113.918 38.2112 113.891 38.3224C113.881 38.3599 113.846 38.3887 113.789 38.4099C113.682 38.4574 113.576 38.4811 113.471 38.4811Z" fill="#505050"/>
<path d="M117.511 37.205C117.653 37.2162 117.794 37.2212 117.931 37.2212C118.312 37.2212 118.685 37.1687 119.05 37.0625C119.563 36.8987 120.002 36.6187 120.368 36.2225C120.506 36.075 120.622 35.9138 120.717 35.7388C120.755 35.6651 120.802 35.6276 120.86 35.6276C120.881 35.6276 120.905 35.6326 120.931 35.6438C121.154 35.7026 121.317 35.8338 121.423 36.04C121.454 36.1038 121.47 36.1638 121.47 36.2225C121.47 36.3338 121.428 36.4388 121.344 36.54C121.042 36.9575 120.658 37.2662 120.193 37.4674C119.95 37.5837 119.702 37.6649 119.451 37.7087C119.199 37.7537 118.944 37.7762 118.685 37.7762C118.473 37.7762 118.259 37.7662 118.041 37.7449H118.001C117.811 37.7287 117.623 37.7112 117.438 37.6899C117.433 37.7112 117.431 37.7374 117.431 37.7687L117.352 38.3236C117.299 38.7673 117.249 39.2173 117.2 39.671C117.179 39.8823 117.158 40.096 117.137 40.3135C117.058 41.0797 116.991 41.8484 116.938 42.6195C116.933 42.752 116.924 42.8845 116.914 43.0158C116.893 43.3545 116.882 43.6945 116.882 44.0382V44.1807C116.882 44.6669 116.991 45.1294 117.208 45.5681C117.287 45.7268 117.362 45.8056 117.431 45.8056C117.499 45.8056 117.582 45.7268 117.677 45.5681C117.831 45.3256 117.955 45.0681 118.05 44.7994C118.145 44.5294 118.23 44.2607 118.304 43.9907C118.325 43.9057 118.349 43.822 118.376 43.737C118.561 43.0708 118.706 42.3996 118.812 41.7234C118.817 41.6759 118.825 41.6284 118.836 41.5809C118.884 41.2959 118.912 41.0072 118.924 40.7172C118.924 40.6534 118.932 40.5947 118.951 40.5385C118.97 40.4835 119.019 40.4472 119.098 40.431C119.171 40.4147 119.243 40.4072 119.312 40.4072C119.423 40.4072 119.523 40.4497 119.613 40.5335C119.645 40.581 119.661 40.6309 119.661 40.6847C119.661 40.7272 119.656 40.7697 119.645 40.8109C119.64 40.8422 119.637 40.8747 119.637 40.9059C119.558 42.0633 119.348 43.192 119.01 44.2907C118.994 44.3382 118.981 44.3857 118.97 44.4332C118.87 44.8456 118.711 45.2369 118.493 45.6068C118.398 45.7706 118.284 45.9131 118.152 46.0343C118.019 46.1555 117.855 46.2355 117.66 46.2718C117.553 46.293 117.453 46.303 117.358 46.303C116.956 46.303 116.612 46.1368 116.327 45.8031C116.11 45.5606 115.943 45.2943 115.826 45.0069C115.71 44.7194 115.62 44.4194 115.556 44.1069C115.423 43.5257 115.357 42.947 115.357 42.3708C115.357 42.2546 115.359 42.1408 115.364 42.0296V41.8071C115.364 40.5385 115.531 39.1223 115.865 37.5587H115.627C115.516 37.5587 115.404 37.5662 115.294 37.5824C115.268 37.5937 115.239 37.5987 115.207 37.5987C115.133 37.5987 115.067 37.5737 115.009 37.5237C114.951 37.4737 114.921 37.4199 114.921 37.3612C114.921 37.2925 114.971 37.2287 115.073 37.1712C115.173 37.1137 115.356 37.0837 115.621 37.0837C115.727 37.0837 115.846 37.0887 115.978 37.1C116.099 36.64 116.232 36.22 116.374 35.8401C116.443 35.6651 116.567 35.5626 116.747 35.5313C116.854 35.5051 116.961 35.4913 117.073 35.4913C117.173 35.4913 117.274 35.5051 117.374 35.5313C117.479 35.5576 117.553 35.5976 117.592 35.6501C117.632 35.7026 117.652 35.7826 117.652 35.8876V35.9351C117.652 36.215 117.623 36.4925 117.565 36.7675C117.545 36.9175 117.526 37.0625 117.511 37.205Z" fill="#505050"/>
<path d="M120.312 45.1719C120.492 44.9919 120.632 44.7994 120.732 44.5932C120.96 44.1282 121.113 43.6395 121.193 43.127C121.24 42.8633 121.293 42.5983 121.352 42.3346C121.468 41.8221 121.563 41.3047 121.637 40.781C121.663 40.5435 121.689 40.3085 121.716 40.076C121.737 39.8385 121.763 39.5998 121.795 39.3623C121.842 39.1086 121.98 38.9399 122.208 38.8549C122.308 38.8174 122.405 38.7999 122.502 38.7999H122.542C122.642 38.7999 122.769 38.8374 122.922 38.9111C123.06 38.9799 123.129 39.1436 123.129 39.4023V39.4573C123.086 39.901 123.044 40.3398 123.002 40.7735C123.002 40.8322 122.997 40.8897 122.986 40.9485C122.955 41.3397 122.927 41.7284 122.907 42.1134C122.881 42.6996 122.841 43.2845 122.788 43.8657L122.748 44.4369C122.732 44.7119 122.708 44.9894 122.677 45.2694C122.629 45.8081 122.554 46.3418 122.45 46.8705C122.346 47.3992 122.19 47.9192 121.979 48.4316C121.793 48.8966 121.532 49.3166 121.193 49.6916C120.97 49.929 120.727 50.1015 120.463 50.2065C120.283 50.2853 120.088 50.3253 119.876 50.3253H119.797C119.723 50.3203 119.65 50.309 119.574 50.294C119.135 50.2303 118.86 49.9853 118.748 49.5566C118.685 49.3128 118.653 49.0728 118.653 48.8354V48.7329C118.663 48.5266 118.698 48.3229 118.756 48.1229C118.825 47.8592 118.97 47.648 119.193 47.4892C119.288 47.4367 119.388 47.4105 119.494 47.4105H119.518C119.587 47.4105 119.658 47.4267 119.732 47.458C119.768 47.4742 119.793 47.4955 119.803 47.5217L119.811 47.5455C119.811 47.5667 119.797 47.5905 119.771 47.6167C119.597 47.7642 119.483 47.9279 119.429 48.1079C119.377 48.2767 119.347 48.4516 119.342 48.6316L119.334 48.7666V48.8454C119.334 49.1203 119.382 49.3841 119.477 49.6378C119.498 49.6741 119.522 49.7115 119.548 49.749C119.617 49.8603 119.686 49.9203 119.755 49.9315C119.765 49.9365 119.778 49.9415 119.795 49.9478C119.852 49.9478 119.925 49.9215 120.009 49.869C120.263 49.7003 120.443 49.4778 120.548 49.2028C120.838 48.5479 121.021 47.8629 121.096 47.1505C121.175 46.5105 121.25 45.8693 121.319 45.2244C121.308 45.2356 121.3 45.2456 121.295 45.2556C121.274 45.2719 121.255 45.2869 121.24 45.3031C121.055 45.4981 120.838 45.6331 120.589 45.7069C120.42 45.7593 120.257 45.7856 120.098 45.7856H120.058C119.692 45.7643 119.385 45.5981 119.136 45.2856C118.787 44.7782 118.578 44.1357 118.509 43.3595C118.488 43.122 118.478 42.8833 118.478 42.6458C118.478 42.5296 118.481 42.4133 118.486 42.2971C118.507 41.8696 118.578 41.3559 118.7 40.7597C118.821 40.1623 119.041 39.6161 119.358 39.1186C119.448 39.0024 119.598 38.9124 119.81 38.8486C119.921 38.8174 120.026 38.8011 120.128 38.8011H120.175C120.244 38.8061 120.313 38.8174 120.382 38.8324C120.524 38.8849 120.596 38.9936 120.596 39.1573V39.2361C120.564 39.3786 120.532 39.5298 120.501 39.6886C120.31 40.566 120.164 41.4909 120.064 42.4633C120.043 42.6171 120.029 42.7696 120.024 42.9233C120.019 43.0346 120.016 43.1458 120.016 43.2558C120.019 43.9295 120.116 44.5694 120.312 45.1719Z" fill="#505050"/>
<path d="M130.367 46.4243C130.124 46.4243 129.878 46.3818 129.629 46.298C129.173 46.1181 128.83 45.8081 128.598 45.3669C128.365 44.9256 128.249 44.4694 128.249 43.9995C128.249 43.6345 128.32 43.2995 128.463 42.9933C128.51 42.8983 128.583 42.8246 128.68 42.7708C128.778 42.7183 128.879 42.6921 128.986 42.6921C129.059 42.6921 129.131 42.7083 129.2 42.7396C129.226 42.7508 129.25 42.7633 129.271 42.7796C129.292 42.7958 129.302 42.8146 129.302 42.8345C129.302 42.8508 129.292 42.8695 129.271 42.8895C129.181 42.9895 129.116 43.1295 129.077 43.3095C129.037 43.4895 129.017 43.682 129.017 43.8882C129.017 44.0995 129.032 44.3044 129.061 44.5019C129.09 44.7007 129.123 44.8607 129.16 44.9819C129.302 45.4156 129.58 45.7293 129.993 45.9256C130.083 45.9681 130.168 45.9893 130.247 45.9893C130.411 45.9893 130.562 45.9343 130.7 45.8231C131.018 45.5956 131.242 45.2994 131.375 44.9356C131.517 44.5757 131.589 44.2069 131.589 43.8257C131.589 43.662 131.572 43.5008 131.541 43.342C131.51 43.1833 131.472 43.027 131.43 42.8745C131.303 42.4308 131.147 41.9971 130.962 41.5746C130.835 41.2684 130.694 40.9697 130.541 40.6785C130.451 40.5147 130.366 40.3485 130.287 40.1785C130.166 39.941 130.038 39.706 129.907 39.4736C129.684 39.0936 129.491 38.7024 129.327 38.2999C129.121 37.7974 129.018 37.28 129.018 36.7463C129.018 36.5775 129.031 36.4075 129.058 36.2388C129.122 35.7051 129.296 35.2164 129.583 34.7727C129.858 34.3552 130.226 34.0515 130.686 33.8615C131.083 33.7027 131.491 33.624 131.909 33.624C132.104 33.624 132.303 33.6452 132.505 33.6877C133.325 33.8777 133.835 34.3827 134.037 35.2014C134.11 35.4601 134.153 35.7301 134.163 36.0101V36.0501C134.163 36.1088 134.156 36.1663 134.139 36.225C134.097 36.42 133.994 36.5238 133.83 36.5338L133.743 36.5413C133.574 36.5413 133.451 36.4625 133.377 36.3038C133.335 36.2138 133.284 36.0738 133.226 35.8838C133.167 35.6726 133.092 35.4476 132.999 35.2101C132.907 34.9726 132.788 34.7664 132.642 34.5914C132.497 34.4177 132.311 34.3302 132.083 34.3302C132.014 34.3302 131.943 34.3414 131.869 34.3614C131.414 34.6052 131.092 34.9639 130.9 35.4389C130.753 35.7988 130.678 36.1576 130.678 36.5163C130.678 36.9287 130.744 37.34 130.875 37.7524C131.013 38.1962 131.196 38.6186 131.424 39.0211C131.487 39.1423 131.554 39.2636 131.623 39.3861C131.744 39.6348 131.877 39.8773 132.019 40.1148C132.252 40.506 132.451 40.9122 132.615 41.3359C132.758 41.6796 132.875 42.0259 132.968 42.3746C133.06 42.7233 133.107 43.077 133.107 43.437C133.107 43.7907 133.048 44.1482 132.932 44.5069C132.678 45.2631 132.191 45.8143 131.471 46.1631C131.106 46.3368 130.738 46.4243 130.367 46.4243Z" fill="#505050"/>
<path d="M136.613 46.1943H136.535C135.941 46.1843 135.411 46.0018 134.939 45.6468C134.669 45.4356 134.445 45.1819 134.264 44.8856C133.899 44.2732 133.716 43.5757 133.716 42.7933C133.716 42.5871 133.733 42.3783 133.764 42.1671C133.875 41.3796 134.151 40.6535 134.589 39.9873C134.764 39.7073 134.973 39.461 135.216 39.2498C135.622 38.8961 136.094 38.7186 136.628 38.7186C136.93 38.7236 137.194 38.7661 137.422 38.8448C137.787 38.9923 137.97 39.2623 137.97 39.6535C137.97 39.7385 137.963 39.8223 137.946 39.9073C137.856 40.3722 137.618 40.7472 137.232 41.0322C136.983 41.2272 136.702 41.3259 136.391 41.3259C136.12 41.3209 135.89 41.2809 135.7 41.2072L135.66 41.1909C135.634 41.1909 135.615 41.2147 135.605 41.2622C135.493 41.6109 135.42 41.9671 135.382 42.3321C135.339 42.5758 135.318 42.847 135.318 43.1483C135.318 43.4282 135.342 43.7145 135.389 44.0082C135.437 44.3019 135.52 44.5707 135.636 44.8169C135.752 45.0631 135.898 45.2444 136.073 45.3594C136.248 45.4756 136.433 45.5343 136.628 45.5343C137.004 45.5343 137.358 45.3419 137.692 44.9556C138.036 44.5019 138.303 43.9732 138.494 43.3707C138.685 42.7683 138.846 42.1633 138.979 41.5559L139.185 40.6835C139.207 40.5772 139.27 40.5172 139.375 40.501H139.447C139.516 40.501 139.583 40.5072 139.65 40.521C139.716 40.5347 139.763 40.5535 139.792 40.581C139.821 40.6072 139.836 40.6472 139.836 40.6997L139.829 40.7872C139.75 41.2997 139.636 41.8621 139.487 42.4758C139.133 43.9232 138.625 44.9881 137.963 45.6706C137.608 46.0193 137.159 46.1943 136.613 46.1943ZM136.153 40.8284C136.333 40.8284 136.522 40.7484 136.72 40.5872C136.918 40.426 137.049 40.1947 137.113 39.8935L137.12 39.7348C137.12 39.6348 137.104 39.531 137.073 39.426C137.03 39.3261 136.975 39.2748 136.906 39.2748C136.705 39.2748 136.431 39.5685 136.08 40.1547C135.916 40.4347 135.834 40.601 135.834 40.6547V40.671C135.91 40.7747 136.015 40.8284 136.153 40.8284Z" fill="#505050"/>
<path d="M142.724 45.7743C142.952 45.5419 143.111 45.2744 143.2 44.9732C143.375 44.4394 143.483 43.8957 143.525 43.3408C143.594 42.6958 143.652 42.0509 143.701 41.4072C143.732 41.1222 143.748 40.8422 143.748 40.5672C143.753 40.4722 143.798 40.391 143.883 40.326C143.968 40.2598 144.055 40.2273 144.145 40.2273C144.214 40.2273 144.275 40.251 144.328 40.2985C144.38 40.346 144.406 40.4285 144.406 40.5447V40.5522C144.401 40.6897 144.396 40.8297 144.39 40.9722C144.38 41.1147 144.371 41.2547 144.366 41.3922C144.35 41.6622 144.329 41.9284 144.303 42.1921C144.298 42.2821 144.289 42.3721 144.279 42.4621C144.236 42.9858 144.179 43.5058 144.104 44.0232C144.051 44.5144 143.94 44.9957 143.771 45.4656C143.671 45.7081 143.53 45.8981 143.35 46.0318C143.17 46.1668 142.97 46.2343 142.747 46.2343C142.583 46.2343 142.414 46.1943 142.239 46.1156C141.911 45.9518 141.667 45.7006 141.509 45.3619C141.245 44.8232 141.101 44.2545 141.081 43.6583L141.074 43.4445C141.074 43.0383 141.103 42.6308 141.161 42.2234C141.178 42.0909 141.19 41.9571 141.201 41.8196C141.206 41.7147 141.214 41.6059 141.225 41.4947C141.23 41.3834 141.235 41.2759 141.241 41.1697V41.1459C141.241 41.0772 141.213 41.0435 141.154 41.0435H141.106C140.895 41.0647 140.686 41.0747 140.479 41.0747C140.242 41.0747 140.004 41.051 139.765 41.0035C139.468 40.956 139.225 40.8397 139.035 40.6547C138.819 40.4273 138.696 40.1498 138.67 39.8223V39.7585C138.67 39.4573 138.717 39.1611 138.812 38.8711C138.865 38.7024 138.959 38.5711 139.094 38.4786C139.229 38.3862 139.375 38.3399 139.534 38.3399C139.656 38.3399 139.777 38.3687 139.9 38.4274C139.979 38.4699 140.034 38.5274 140.063 38.6024C140.091 38.6761 140.114 38.7561 140.13 38.8399C140.151 38.9561 140.161 39.0699 140.161 39.1811C140.161 39.3398 140.146 39.4973 140.118 39.6523C140.089 39.8085 140.055 39.9623 140.019 40.116C140.002 40.1748 139.995 40.2248 139.995 40.2673C139.995 40.436 140.1 40.5347 140.313 40.561C140.392 40.566 140.472 40.5685 140.551 40.5685H140.646C140.762 40.5685 140.881 40.566 141.002 40.561C141.124 40.556 141.243 40.5535 141.359 40.5535C141.544 40.5535 141.727 40.5672 141.907 40.5935C142.092 40.6197 142.218 40.6772 142.284 40.7635C142.35 40.851 142.383 40.9872 142.383 41.1722C142.383 41.4572 142.359 41.7372 142.311 42.0121C142.295 42.1334 142.283 42.2584 142.271 42.3846C142.224 42.8021 142.2 43.2195 142.2 43.637C142.2 44.0382 142.231 44.4407 142.295 44.8419C142.339 45.1881 142.482 45.4994 142.724 45.7743Z" fill="#505050"/>
<path d="M145.567 46.2493C145.08 46.2493 144.678 46.0406 144.36 45.6231C143.973 45.0419 143.749 44.4807 143.686 43.9382C143.622 43.397 143.59 42.9483 143.59 42.5946C143.59 42.1984 143.617 41.7997 143.669 41.3972C143.759 40.641 143.873 39.941 144.011 39.2961C144.08 38.9686 144.355 38.8049 144.837 38.8049C145.302 38.8049 145.535 38.9399 145.535 39.2086C145.535 39.3198 145.498 39.6948 145.424 40.3348C145.212 42.1584 145.106 43.4895 145.106 44.3295C145.106 44.6894 145.125 44.9844 145.161 45.2169C145.192 45.4181 145.264 45.6031 145.375 45.7719C145.449 45.8719 145.529 45.9231 145.613 45.9231C145.665 45.9231 145.727 45.9044 145.796 45.8681C146.038 45.7256 146.237 45.5381 146.391 45.3056C146.968 44.497 147.439 43.297 147.804 41.7072L147.82 41.6359C147.82 41.5884 147.778 41.5622 147.694 41.5572C146.694 41.3672 146.194 40.746 146.194 39.6948C146.194 39.1086 146.368 38.5961 146.718 38.1574C146.903 37.9562 147.093 37.8412 147.29 37.8125C147.485 37.7837 147.618 37.7687 147.687 37.7687C147.914 37.7687 148.112 37.8275 148.282 37.9437C148.6 38.2187 148.758 38.7336 148.758 39.4898C148.758 39.9235 148.692 40.4673 148.56 41.1222L148.553 41.1622C148.558 41.2147 148.584 41.2409 148.631 41.2409L148.687 41.2334C149.268 41.101 149.705 40.901 149.996 40.631C150.059 40.5785 150.143 40.5523 150.25 40.5523C150.355 40.5523 150.44 40.5735 150.504 40.616C150.54 40.6422 150.559 40.666 150.559 40.6872C150.559 40.7185 150.537 40.756 150.495 40.7985C150.21 41.0735 149.873 41.2609 149.487 41.3609C149.181 41.4609 148.868 41.5272 148.551 41.5584C148.499 41.5584 148.464 41.5897 148.449 41.6534C148.449 41.6634 148.446 41.6722 148.441 41.6772C148.304 42.2796 148.14 42.8771 147.949 43.4683C147.69 44.3557 147.246 45.1382 146.617 45.8144C146.312 46.1043 145.963 46.2493 145.567 46.2493ZM147.884 41.2085C147.901 41.2085 147.913 41.1847 147.924 41.1372C148.029 40.6347 148.083 40.131 148.083 39.6236L148.076 39.2586C148.076 38.9049 147.967 38.5874 147.75 38.3074C147.672 38.3762 147.613 38.4612 147.575 38.5612C147.359 39.0424 147.25 39.5386 147.25 40.051C147.25 40.141 147.252 40.2285 147.257 40.3123C147.262 40.7085 147.448 40.9997 147.813 41.1847C147.834 41.201 147.853 41.2085 147.868 41.2085H147.884Z" fill="#505050"/>
<path d="M151.725 46.3443C151.524 46.3443 151.331 46.2993 151.146 46.2093C150.807 46.0293 150.537 45.7569 150.336 45.3894C150.134 45.0219 149.991 44.5982 149.903 44.117C149.815 43.6358 149.772 43.1395 149.772 42.6271C149.772 41.9459 149.832 41.2934 149.951 40.6697C150.069 40.046 150.22 39.5498 150.399 39.1798C150.61 38.9311 150.859 38.8074 151.144 38.8074C151.477 38.8074 151.645 38.9261 151.645 39.1636C151.607 39.5548 151.551 40.0285 151.475 40.586C151.398 41.1434 151.326 41.7297 151.257 42.3459C151.188 42.9621 151.154 43.5333 151.154 44.062C151.154 44.9232 151.273 45.5094 151.511 45.8218C151.596 45.9431 151.68 46.0043 151.765 46.0043C151.85 46.0043 151.937 45.9468 152.027 45.8293C152.222 45.5544 152.347 45.2556 152.4 44.9332C152.68 43.7545 152.913 42.5708 153.098 41.3822C153.136 41.1184 153.169 40.851 153.202 40.581C153.218 40.4747 153.264 40.3923 153.341 40.331C153.417 40.2698 153.503 40.2398 153.599 40.2398C153.672 40.2398 153.744 40.261 153.813 40.3035C153.849 40.3348 153.868 40.3723 153.868 40.4148V40.4548C153.783 41.3272 153.656 42.1959 153.487 43.0621C153.223 44.5894 152.889 45.5831 152.487 46.0418C152.281 46.2443 152.027 46.3443 151.725 46.3443ZM151.177 38.4811C151.082 38.4811 150.992 38.4649 150.907 38.4336C150.822 38.4024 150.766 38.3437 150.74 38.2587C150.688 38.1112 150.661 37.9549 150.661 37.7912V37.6087C150.661 37.3125 150.809 37.1487 151.106 37.1175C151.174 37.1012 151.243 37.0938 151.312 37.0938C151.64 37.0938 151.804 37.2025 151.804 37.4187C151.788 37.6137 151.749 37.8074 151.685 37.9974C151.654 38.1037 151.624 38.2112 151.597 38.3224C151.587 38.3599 151.552 38.3887 151.495 38.4099C151.388 38.4574 151.283 38.4811 151.177 38.4811Z" fill="#505050"/>
<path d="M155.812 46.218H155.749C155.098 46.218 154.526 46.0093 154.034 45.5918C153.616 45.2319 153.307 44.7969 153.106 44.2844C152.899 43.7407 152.796 43.1483 152.796 42.5083C152.796 41.7159 152.958 40.9422 153.281 40.1897C153.604 39.4373 154.093 38.8836 154.749 38.5286C155.088 38.3649 155.45 38.2824 155.836 38.2824C156.053 38.2824 156.257 38.3136 156.447 38.3774C156.648 38.4624 156.794 38.5824 156.884 38.7386C156.974 38.8948 157.026 39.0698 157.043 39.2661C157.059 39.3873 157.066 39.506 157.066 39.6223C157.066 40.0297 156.969 40.4197 156.772 40.7959C156.608 41.0922 156.378 41.2397 156.082 41.2397C156.003 41.2397 155.923 41.2297 155.844 41.2084C155.573 41.1184 155.412 40.9422 155.359 40.6772C155.354 40.656 155.352 40.6322 155.352 40.606C155.352 40.506 155.413 40.4347 155.535 40.3922C155.582 40.376 155.63 40.3685 155.677 40.3685H155.725C155.841 40.3685 155.92 40.3897 155.963 40.4322C156.005 40.4747 156.029 40.551 156.034 40.6622L156.026 40.7884C156.026 40.8097 156.03 40.8284 156.038 40.8434C156.045 40.8584 156.058 40.8697 156.074 40.8747H156.105C156.232 40.8747 156.329 40.7697 156.394 40.5572C156.461 40.346 156.493 40.111 156.493 39.8523C156.493 39.6723 156.476 39.501 156.442 39.3373C156.407 39.1736 156.356 39.0386 156.287 38.9336C156.208 38.8223 156.123 38.7673 156.033 38.7673C155.933 38.7673 155.83 38.8198 155.727 38.9261C155.625 39.0323 155.533 39.1473 155.453 39.2711C155.374 39.3948 155.316 39.4973 155.278 39.576C155.088 39.9835 154.93 40.5297 154.806 41.2172C154.682 41.9046 154.62 42.5783 154.62 43.2383C154.62 43.862 154.689 44.3982 154.826 44.8469C154.948 45.2269 155.183 45.5206 155.532 45.7268C155.611 45.7693 155.691 45.7906 155.77 45.7906C155.903 45.7906 156.029 45.7431 156.15 45.6481C156.272 45.5531 156.381 45.4393 156.476 45.3069C156.868 44.7419 157.2 43.9995 157.476 43.0795C157.751 42.1596 157.968 41.3359 158.126 40.606C158.148 40.506 158.179 40.4385 158.222 40.4035C158.264 40.3697 158.335 40.3522 158.436 40.3522C158.499 40.3522 158.568 40.3572 158.642 40.3685C158.706 40.3847 158.751 40.4047 158.777 40.4285C158.804 40.4522 158.817 40.4885 158.817 40.536C158.817 40.5672 158.815 40.6022 158.81 40.6385C158.636 41.6109 158.378 42.5646 158.04 43.4995C158.009 43.5945 157.974 43.692 157.938 43.7932C157.816 44.1582 157.672 44.5219 157.505 44.8869C157.337 45.2519 157.119 45.5593 156.85 45.8106C156.582 46.0605 156.235 46.1968 155.812 46.218Z" fill="#505050"/>
<path d="M160.32 46.1943H160.242C159.648 46.1843 159.118 46.0018 158.646 45.6468C158.376 45.4356 158.152 45.1819 157.971 44.8856C157.606 44.2732 157.423 43.5757 157.423 42.7933C157.423 42.5871 157.439 42.3783 157.471 42.1671C157.582 41.3796 157.857 40.6535 158.295 39.9873C158.471 39.7073 158.68 39.461 158.922 39.2498C159.329 38.8961 159.801 38.7186 160.335 38.7186C160.637 38.7236 160.901 38.7661 161.129 38.8448C161.494 38.9923 161.677 39.2623 161.677 39.6535C161.677 39.7385 161.669 39.8223 161.653 39.9073C161.563 40.3722 161.325 40.7472 160.939 41.0322C160.69 41.2272 160.409 41.3259 160.098 41.3259C159.827 41.3209 159.597 41.2809 159.407 41.2072L159.367 41.1909C159.34 41.1909 159.322 41.2147 159.312 41.2622C159.2 41.6109 159.126 41.9671 159.089 42.3321C159.046 42.5758 159.025 42.847 159.025 43.1483C159.025 43.4282 159.049 43.7145 159.096 44.0082C159.144 44.3019 159.227 44.5707 159.343 44.8169C159.459 45.0631 159.604 45.2444 159.78 45.3594C159.955 45.4756 160.14 45.5343 160.335 45.5343C160.711 45.5343 161.065 45.3419 161.399 44.9556C161.743 44.5019 162.01 43.9732 162.201 43.3707C162.392 42.7683 162.553 42.1633 162.686 41.5559L162.892 40.6835C162.913 40.5772 162.977 40.5172 163.082 40.501H163.154C163.223 40.501 163.29 40.5072 163.356 40.521C163.423 40.5347 163.47 40.5535 163.499 40.581C163.528 40.6072 163.543 40.6472 163.543 40.6997L163.535 40.7872C163.457 41.2997 163.343 41.8621 163.194 42.4758C162.84 43.9232 162.331 44.9881 161.669 45.6706C161.315 46.0193 160.865 46.1943 160.32 46.1943ZM159.86 40.8284C160.04 40.8284 160.229 40.7484 160.427 40.5872C160.624 40.426 160.756 40.1947 160.82 39.8935L160.827 39.7348C160.827 39.6348 160.811 39.531 160.78 39.426C160.737 39.3261 160.682 39.2748 160.613 39.2748C160.412 39.2748 160.138 39.5685 159.787 40.1547C159.623 40.4347 159.541 40.601 159.541 40.6547V40.671C159.617 40.7747 159.722 40.8284 159.86 40.8284Z" fill="#505050"/>
<path d="M164.289 43.6257C164.21 43.377 164.111 43.1445 163.995 42.9283C163.847 42.6483 163.686 42.3808 163.51 42.1271L163.32 41.8421C163.151 41.5721 163.02 41.3009 162.927 41.0259C162.835 40.751 162.788 40.471 162.788 40.186C162.788 39.8635 162.855 39.536 162.986 39.2036C163.229 38.6799 163.637 38.3736 164.209 38.2836C164.356 38.2524 164.505 38.2361 164.653 38.2361C164.891 38.2361 165.124 38.2886 165.351 38.3949C165.705 38.5636 165.891 38.8436 165.907 39.2348V39.3536C165.907 39.5285 165.891 39.6998 165.859 39.8685C165.828 40.0373 165.759 40.1985 165.653 40.3522C165.584 40.4472 165.491 40.5222 165.375 40.5785C165.259 40.6335 165.14 40.6622 165.018 40.6622C164.928 40.6622 164.843 40.6435 164.764 40.6072C164.691 40.576 164.653 40.541 164.653 40.5035C164.653 40.4722 164.674 40.4322 164.717 40.3847C164.933 40.0885 165.042 39.7935 165.042 39.4973C165.042 39.2548 164.95 39.0323 164.764 38.8311C164.722 38.7836 164.679 38.7599 164.638 38.7599C164.6 38.7599 164.562 38.7786 164.519 38.8149C164.239 39.0423 164.087 39.3361 164.067 39.6948C164.062 39.7373 164.06 39.7823 164.06 39.8298C164.06 40.036 164.089 40.2372 164.147 40.4322C164.205 40.6272 164.28 40.8234 164.37 41.0184C164.529 41.3509 164.712 41.6734 164.918 41.9859C164.992 42.0971 165.063 42.2083 165.132 42.3183C165.37 42.6883 165.553 43.082 165.68 43.4995C165.685 43.5307 165.693 43.5532 165.704 43.567C165.716 43.5807 165.733 43.587 165.759 43.587C165.769 43.587 165.786 43.5845 165.807 43.5795C166.474 43.3995 166.876 42.9608 167.013 42.2633C167.113 41.7559 167.196 41.2434 167.26 40.726C167.27 40.641 167.276 40.5572 167.276 40.4722V40.456C167.276 40.3497 167.329 40.2922 167.435 40.281C167.493 40.276 167.546 40.2735 167.594 40.2735C167.7 40.2735 167.775 40.2922 167.82 40.3285C167.866 40.366 167.888 40.431 167.888 40.526V40.581C167.867 41.2784 167.748 41.9571 167.531 42.6183C167.256 43.3158 166.743 43.7382 165.992 43.887H165.976C165.902 43.9032 165.854 43.9182 165.833 43.9345C165.812 43.9507 165.802 43.987 165.802 44.0457V44.2282C165.802 44.7619 165.65 45.2194 165.349 45.5993C165.047 45.9793 164.624 46.2205 164.079 46.3205C163.92 46.3468 163.763 46.3605 163.611 46.3605C163.25 46.3605 162.91 46.268 162.587 46.0831C162.423 45.9881 162.286 45.8543 162.178 45.6831C162.069 45.5118 162.015 45.3194 162.015 45.1081C162.015 44.9231 162.072 44.7307 162.189 44.5294C162.538 43.9957 163.03 43.7045 163.666 43.657C163.819 43.6407 163.975 43.6332 164.134 43.6332C164.182 43.6282 164.236 43.6257 164.289 43.6257ZM164.455 44.5769C164.455 44.4657 164.439 44.2994 164.408 44.077C164.403 44.0132 164.365 43.982 164.296 43.982H164.28C164.206 43.992 164.132 44.0007 164.057 44.0057C163.941 44.0157 163.827 44.0295 163.716 44.0457C163.499 44.0932 163.29 44.2207 163.089 44.4257C162.887 44.6319 162.787 44.8669 162.787 45.1306C162.787 45.1619 162.79 45.1944 162.795 45.2256C162.816 45.3794 162.882 45.5243 162.992 45.6618C163.104 45.7993 163.228 45.8918 163.365 45.9393C163.413 45.9493 163.46 45.9556 163.508 45.9556C163.741 45.9556 163.952 45.8393 164.142 45.6068C164.346 45.3331 164.45 44.9894 164.455 44.5769Z" fill="#505050"/>
<path d="M168.718 46.2018H168.694C168.641 46.1968 168.583 46.1831 168.52 46.1618C168.483 46.1568 168.449 46.1418 168.416 46.1181C168.385 46.0943 168.369 46.0618 168.369 46.0193V46.0031C168.369 45.9181 168.414 45.8606 168.504 45.8281C168.52 45.8181 168.536 45.8093 168.555 45.8043C168.574 45.7993 168.591 45.7968 168.606 45.7968H168.638C168.77 45.7968 168.876 45.7393 168.956 45.6219C169.034 45.5056 169.093 45.3731 169.131 45.2256C169.167 45.0781 169.188 44.9482 169.195 44.8369C169.195 44.7732 169.226 44.7282 169.29 44.7019C169.364 44.6757 169.435 44.6619 169.504 44.6619C169.594 44.6619 169.681 44.6782 169.765 44.7094C169.823 44.7357 169.853 44.7782 169.853 44.8357V44.8594C169.832 45.2394 169.71 45.5806 169.487 45.8818C169.286 46.0968 169.029 46.2018 168.718 46.2018Z" fill="#505050"/>
<path d="M176.154 46.5743C176.043 46.5743 175.929 46.558 175.813 46.5268C175.68 46.4843 175.593 46.3918 175.551 46.2493C175.44 45.4831 175.384 44.5207 175.384 43.3645C175.384 41.7522 175.486 40.0373 175.69 38.2162C175.894 36.3963 176.188 34.9889 176.575 33.9952C176.596 33.9527 176.626 33.9202 176.666 33.8965C176.706 33.8727 176.746 33.8502 176.789 33.829C176.953 33.7602 177.122 33.7265 177.297 33.7265C177.451 33.7265 177.606 33.7553 177.765 33.814C177.897 33.8565 177.964 33.9327 177.964 34.044C177.964 34.0815 177.959 34.1202 177.948 34.1627C177.757 34.9289 177.603 35.7089 177.487 36.5013C177.418 36.9975 177.357 37.4975 177.304 37.9999L177.225 38.7286C177.173 39.2523 177.122 39.7798 177.074 40.3135C177.01 40.926 176.955 41.5422 176.908 42.1609C176.881 42.5096 176.86 42.8583 176.844 43.207L176.827 43.5558C176.796 44.1107 176.772 44.6657 176.756 45.2206L176.74 45.5381C176.724 45.6644 176.716 45.7918 176.716 45.9181L176.74 46.2668C176.74 46.3456 176.719 46.4043 176.676 46.4405C176.633 46.478 176.565 46.5093 176.47 46.5355C176.366 46.5618 176.259 46.5743 176.154 46.5743Z" fill="#505050"/>
<path d="M183.828 46.828C183.653 46.828 183.487 46.773 183.328 46.6618C182.91 46.323 182.624 45.8931 182.47 45.3694C182.285 44.7144 182.193 43.9982 182.193 43.2208C182.193 42.3546 182.27 41.4509 182.427 40.5097C182.583 39.5698 182.756 38.6524 182.946 37.7587C183.131 36.86 183.281 36.0363 183.399 35.2851C183.435 35.0101 183.454 34.8014 183.454 34.6589C183.454 34.5527 183.44 34.4927 183.414 34.4764L183.39 34.4689C183.316 34.4689 183.218 34.5377 183.092 34.6752C182.969 34.8127 182.848 34.9551 182.736 35.1026C182.622 35.2501 182.547 35.3539 182.509 35.4114C182.044 36.1301 181.658 36.8825 181.354 37.6699C181.05 38.4574 180.802 39.2661 180.612 40.096C180.427 40.9097 180.275 41.7284 180.16 42.5533C180.123 42.8021 180.084 43.047 180.041 43.2908C179.994 43.5707 179.951 43.8532 179.915 44.1395C179.877 44.4244 179.86 44.7132 179.86 45.0031L179.867 45.2644C179.867 45.3644 179.822 45.4281 179.732 45.4544C179.6 45.5069 179.471 45.5331 179.343 45.5331C179.21 45.5331 179.078 45.5069 178.946 45.4544C178.692 45.3381 178.513 45.0331 178.411 44.5382C178.308 44.0445 178.255 43.4508 178.255 42.7583C178.255 41.6121 178.351 40.4147 178.541 39.1673C178.731 37.9199 178.921 37.0537 179.113 36.5675C179.198 36.34 179.359 36.2026 179.597 36.1551C179.708 36.1288 179.822 36.1151 179.939 36.1151C180.055 36.1151 180.174 36.1338 180.295 36.1701C180.449 36.2076 180.526 36.2963 180.526 36.44L180.518 36.5188C180.407 37.295 180.317 38.0774 180.248 38.8649L180.224 39.3161H180.24C180.283 39.1898 180.328 39.0623 180.375 38.9361C180.471 38.6349 180.577 38.3386 180.693 38.0487C181.069 37.0762 181.532 36.1513 182.082 35.2739C182.305 34.9039 182.588 34.5864 182.932 34.3227C183.17 34.149 183.427 34.0615 183.702 34.0615C183.776 34.0615 183.853 34.0665 183.932 34.0777C184.303 34.1565 184.512 34.4189 184.559 34.8626L184.567 35.1089C184.567 35.4364 184.54 35.7588 184.488 36.0763L184.472 36.2025C184.403 36.705 184.296 37.3787 184.154 38.2236C183.973 39.2536 183.797 40.3622 183.622 41.5484C183.448 42.7346 183.36 43.767 183.36 44.6432C183.36 45.0344 183.385 45.3706 183.435 45.6543C183.485 45.9368 183.567 46.1493 183.677 46.2918C183.703 46.3343 183.734 46.3555 183.772 46.3555C183.793 46.3555 183.82 46.3393 183.851 46.308C183.903 46.2655 183.967 46.2418 184.041 46.2368L184.192 46.2293C184.229 46.2293 184.263 46.2355 184.291 46.2493C184.32 46.263 184.343 46.288 184.359 46.3243C184.369 46.3505 184.375 46.3793 184.375 46.4118C184.375 46.5118 184.328 46.6043 184.233 46.6893C184.122 46.783 183.987 46.828 183.828 46.828Z" fill="#505050"/>
<path d="M188.186 46.6305C187.561 46.6043 186.996 46.318 186.488 45.7743C186.186 45.4681 185.943 45.1319 185.758 44.7682C185.393 44.0395 185.171 43.267 185.091 42.4533L185.067 42.1921C185.051 41.9759 185.043 41.7534 185.043 41.5259C185.043 41.0709 185.082 40.5335 185.159 39.9123C185.235 39.2911 185.383 38.6686 185.599 38.0462L185.797 37.46C186.241 36.2663 186.929 35.2301 187.861 34.3527C188.442 33.8352 189.138 33.5653 189.948 33.544C190.186 33.544 190.39 33.5603 190.559 33.5915C190.728 33.6228 190.908 33.689 191.098 33.789C191.39 33.969 191.551 34.2327 191.582 34.5814L191.59 34.6364V34.7152C191.59 34.9264 191.536 35.1364 191.427 35.3451C191.318 35.5539 191.174 35.7513 190.994 35.9351C190.915 36.0138 190.843 36.0726 190.78 36.1101C190.706 36.1626 190.638 36.1888 190.574 36.1888C190.536 36.1888 190.486 36.1713 190.422 36.1376C190.359 36.1038 190.32 36.0651 190.303 36.0226C190.293 36.0063 190.287 35.9913 190.287 35.9751V35.9588C190.287 35.9276 190.297 35.8901 190.318 35.8476C190.583 35.5301 190.715 35.2076 190.715 34.8802V34.7539C190.694 34.5739 190.633 34.4264 190.532 34.3102C190.432 34.199 190.3 34.144 190.136 34.144H190.112C189.747 34.154 189.347 34.4239 188.913 34.9526C188.464 35.5239 188.093 36.1288 187.802 36.7675L187.548 37.3537C187.304 37.9512 187.092 38.6324 186.913 39.3986C186.664 40.4822 186.54 41.4784 186.54 42.3871C186.54 42.6308 186.548 42.8683 186.564 43.1008L186.58 43.3233C186.67 44.222 186.913 44.9294 187.31 45.4481C187.675 45.8918 188.043 46.1143 188.414 46.1143L188.469 46.1068C189.765 45.9218 190.685 44.2207 191.231 41.0022L191.286 40.7485C191.317 40.601 191.343 40.4497 191.365 40.2972C191.381 40.186 191.431 40.101 191.516 40.0398C191.601 39.9785 191.685 39.946 191.77 39.941H191.786C191.972 39.941 192.074 40.0235 192.096 40.1873L192.088 40.2748C191.955 41.2209 191.751 42.1559 191.477 43.0808C191.34 43.5833 191.167 44.0732 190.958 44.5507C190.749 45.0294 190.462 45.4469 190.097 45.8031C189.732 46.1593 189.391 46.388 189.073 46.4893C188.767 46.5843 188.499 46.6318 188.271 46.6318H188.186V46.6305Z" fill="#505050"/>
<path d="M193.425 46.218C193.218 46.213 193.077 46.1568 193 46.0518C192.924 45.9468 192.883 45.7931 192.878 45.5918C192.878 45.4381 192.935 45.3069 193.052 45.1956C193.168 45.0844 193.308 45.0294 193.472 45.0294C193.62 45.0294 193.749 45.0594 193.858 45.1206C193.967 45.1819 194.02 45.2756 194.02 45.4019L194.013 45.4731C194.008 45.7318 193.962 45.9206 193.874 46.0393C193.785 46.1581 193.636 46.218 193.425 46.218Z" fill="#505050"/>
<path d="M89.7139 0.507721C90.5274 0.507721 91.1594 1.17517 91.1231 1.98761L90.147 26.547C90.2909 26.4208 90.4185 26.2758 90.5449 26.132C91.5749 24.9234 92.3333 22.8298 92.5861 20.8449C92.6399 20.4837 92.9478 20.2137 93.3082 20.2137H93.3983C93.7963 20.2675 94.0854 20.6287 94.0303 21.0262C93.7588 23.2273 92.9641 25.5196 91.6638 27.0532C91.013 27.8294 90.2008 28.4244 89.2421 28.6419C89.0619 28.6781 88.8992 28.6956 88.7178 28.7144C88.6639 28.7319 88.6089 28.7319 88.5551 28.7319H88.5013H88.266C86.2786 28.6419 84.4902 27.3607 84.5441 23.751L84.8156 17.7239H79.7571L79.3954 27.017C79.3591 27.8469 78.6733 28.4969 77.8599 28.4969H75.2042C74.3907 28.4969 73.7587 27.8294 73.795 27.017L74.7712 2.00636C74.8075 1.17642 75.4933 0.52647 76.3068 0.52647H78.9812C79.7947 0.52647 80.4267 1.19392 80.3904 2.00636L79.8297 16.2978H84.8882L85.539 1.98761C85.5753 1.15767 86.2611 0.507721 87.0746 0.507721H89.7139Z" fill="#505050"/>
<path d="M102.968 0.490208C102.986 0.490208 103.022 0.507707 103.041 0.507707C103.799 0.525206 104.54 0.813934 105.101 1.37389C106.889 3.14251 106.474 14.2942 106.438 15.2866H106.455L106.419 16.279H107.25C107.648 16.279 107.973 16.604 107.973 17.0015C107.973 17.3989 107.648 17.7227 107.25 17.7227H106.365L106.022 26.547C106.166 26.4208 106.294 26.2758 106.42 26.132C107.45 24.9234 108.208 22.8298 108.461 20.8449C108.515 20.4837 108.823 20.2137 109.183 20.2137H109.273C109.671 20.2675 109.961 20.6287 109.905 21.0262C109.634 23.2273 108.839 25.5196 107.539 27.0532C106.888 27.8294 106.076 28.4244 105.117 28.6418C104.937 28.6781 104.774 28.6956 104.593 28.7143H104.557H104.43H104.376H104.141C102.154 28.6244 100.365 27.3432 100.419 23.7335L100.672 18.0676L100.689 17.7064C99.642 17.6889 98.8461 17.9414 98.1415 18.4289C97.4181 18.9526 96.7861 19.7463 96.2442 20.7562C95.1604 22.7948 94.4558 25.7008 93.6599 28.6606C93.551 29.0393 93.1718 29.2556 92.7926 29.1656C92.3946 29.0756 92.1606 28.6968 92.2507 28.2994L97.2379 8.6296C97.2379 8.59335 97.2379 8.5571 97.2554 8.52086C98.2854 4.27992 99.2791 2.06009 100.688 1.01392C101.213 0.616449 101.808 0.436462 102.405 0.436462C102.607 0.436462 102.806 0.453961 102.968 0.490208ZM98.9762 7.67217C98.9762 7.68967 98.9574 7.72592 98.9574 7.74467L96.3193 18.1389C96.6259 17.8139 96.9513 17.5077 97.313 17.2552C98.2528 16.6053 99.4092 16.2453 100.746 16.2803L101.288 2.40382C100.602 3.10626 99.7709 4.73114 98.9762 7.67217Z" fill="#505050"/>
<path d="M114.737 0.490234H117.339C118.153 0.490234 118.785 1.15768 118.748 1.97012L117.899 23.5348C120.447 23.7335 122.922 23.7697 124.963 23.426C125.343 22.6498 125.614 21.7661 125.722 20.845C125.776 20.4837 126.083 20.2138 126.445 20.2138H126.535C126.933 20.2675 127.222 20.6287 127.167 21.0262C126.878 23.2998 125.848 25.3209 124.456 26.6745C124.366 26.7645 124.276 26.837 124.185 26.927C122.504 28.8581 119.776 28.7494 116.867 28.7319H116.379C116.326 28.7494 116.27 28.7494 116.217 28.7494C116.036 28.7494 115.837 28.7319 115.656 28.7131C111.266 28.5869 107.435 27.9907 108.157 25.7358L109.512 22.4336C110.38 22.5786 111.301 22.7223 112.241 22.8661L113.198 1.98762C113.234 1.15768 113.921 0.507733 114.734 0.507733V0.490234H114.737Z" fill="#505050"/>
<path d="M132.099 0.364003H132.335C132.823 0.364003 133.292 0.453997 133.744 0.616484C135.551 1.28393 136.924 2.94381 137.774 4.87492C137.936 5.23614 137.774 5.66861 137.412 5.83109C137.05 5.99358 136.617 5.83109 136.454 5.46987C135.876 4.15247 135.009 3.0513 134.069 2.4026C132.714 2.00513 131.9 2.83507 131.829 4.60369L131.36 16.2966H134.45C134.848 16.2966 135.172 16.6215 135.172 17.0178C135.172 17.4152 134.846 17.739 134.45 17.739H131.306L131.053 24.1997C131.017 25.9133 131.614 26.762 132.318 27.1045C132.427 27.122 132.517 27.1407 132.607 27.1582C133.457 27.2845 134.252 27.032 135.01 26.472C136.528 25.3534 137.739 22.9711 138.028 20.7337C138.081 20.3725 138.389 20.1025 138.751 20.1025H138.841C139.239 20.1563 139.528 20.5175 139.473 20.915C139.148 23.5135 137.847 26.1846 135.878 27.6282C135.028 28.2594 133.999 28.6569 132.897 28.6206C127.892 28.9456 125.958 25.4446 125.687 24.5059C125.434 23.6398 125.344 22.5386 125.451 21.1312L125.957 10.0695C126.12 5.26989 127.131 0.325256 132.082 0.325256L132.099 0.364003Z" fill="#505050"/>
<path d="M161.964 0.526501H164.583C165.396 0.526501 166.028 1.19395 165.992 2.00639L165.016 26.5658C165.16 26.4396 165.287 26.2946 165.414 26.1508C166.444 24.9422 167.202 22.8486 167.455 20.8637C167.509 20.5025 167.817 20.2325 168.178 20.2325H168.269C168.666 20.2863 168.956 20.6475 168.901 21.045C168.629 23.246 167.834 25.5384 166.534 27.072C165.883 27.8482 165.071 28.4432 164.112 28.6594C163.932 28.6956 163.769 28.7131 163.588 28.7319H163.552H163.425H163.371H163.136C161.384 28.6594 159.793 27.6495 159.468 24.9422L155.168 7.02351L154.373 27.0183C154.337 27.8482 153.651 28.4982 152.838 28.4982H150.182C149.369 28.4982 148.737 27.8307 148.773 27.0183L149.767 2.00764C149.803 1.1777 150.49 0.527751 151.302 0.527751H153.958C154.41 0.527751 154.808 0.726486 155.06 1.03271C155.204 1.14146 155.296 1.28519 155.332 1.44768L159.632 19.3488L160.427 1.98889C160.463 1.15895 161.149 0.509003 161.962 0.509003V0.526501H161.964Z" fill="#505050"/>
<path d="M169.633 0.526501H172.307C173.121 0.526501 173.753 1.19395 173.716 2.00639L172.831 24.1485C172.795 25.9896 173.356 26.6383 174.258 26.6383C174.475 26.5121 174.674 26.3671 174.873 26.2233C176.427 25.0684 177.655 23.0648 177.999 21.1887L178.866 2.00639C178.902 1.17645 179.588 0.526501 180.402 0.526501H183.057C183.871 0.526501 184.503 1.19395 184.466 2.00639L183.49 26.5658C183.636 26.4396 183.762 26.2946 183.888 26.1508C184.918 24.9422 185.677 22.8486 185.929 20.8637C185.983 20.5025 186.291 20.2325 186.653 20.2325H186.743C187.141 20.2863 187.43 20.6475 187.375 21.045C187.103 23.2461 186.309 25.5384 185.008 27.072C184.358 27.8482 183.545 28.4432 182.587 28.6594C182.407 28.6956 182.244 28.7131 182.062 28.7319C182.009 28.7494 181.954 28.7494 181.9 28.7494H181.846H181.611C179.859 28.6769 178.287 27.6845 177.943 25.0322C177.328 25.9346 176.587 26.747 175.739 27.3782C174.745 28.1182 173.625 28.6231 172.432 28.7319C172.034 28.7681 171.638 28.7494 171.24 28.6956L171.131 28.7494C169.017 28.7669 167.047 27.5582 167.101 23.751L168.095 1.98889C168.131 1.15895 168.817 0.509003 169.63 0.509003V0.526501H169.633Z" fill="#505050"/>
<path d="M188.072 0.526501H190.71C191.524 0.526501 192.156 1.19395 192.119 2.00639L191.143 26.5658C191.287 26.4396 191.415 26.2946 191.541 26.1508C192.571 24.9422 193.33 22.8486 193.582 20.8637C193.636 20.5025 193.944 20.2325 194.304 20.2325H194.395C194.793 20.2863 195.082 20.6475 195.027 21.045C194.755 23.246 193.96 25.5384 192.66 27.072C192.009 27.8482 191.197 28.4432 190.238 28.6594C190.058 28.6956 189.895 28.7131 189.714 28.7319H189.678H189.551H189.497H189.262C187.275 28.6419 185.486 27.3607 185.54 23.751L186.534 1.98889C186.57 1.15895 187.256 0.509003 188.07 0.509003V0.526501H188.072Z" fill="#505050"/>
</svg>
