<svg width="76" height="51" viewBox="0 0 76 51" fill="none" xmlns="http://www.w3.org/2000/svg">
<g clip-path="url(#clip0_256_615)">
<path d="M2.18322 4.71951C1.09836 4.71951 0.218445 5.59803 0.218445 6.68302V16.4998C0.218445 17.5839 1.09836 18.4633 2.18322 18.4633C3.26809 18.4633 4.148 17.5839 4.148 16.4998V6.68302C4.14718 5.59803 3.26809 4.71951 2.18322 4.71951Z" fill="#505050"/>
<path d="M5.09952 21.3168C5.09952 20.2655 5.95227 19.4133 7.00421 19.4133H16.7771C17.829 19.4133 18.6817 20.2655 18.6817 21.3168C18.6817 22.3681 17.829 23.2203 16.7771 23.2203H7.00421C5.95227 23.2203 5.09952 22.3681 5.09952 21.3168Z" fill="#505050"/>
<path d="M5.09955 2.22872C5.09955 1.17745 5.9523 0.325256 7.00424 0.325256H16.7771C17.829 0.325256 18.6818 1.17745 18.6818 2.22872C18.6818 3.27998 17.829 4.13218 16.7771 4.13218H7.00424C5.9523 4.133 5.09955 3.27998 5.09955 2.22872Z" fill="#505050"/>
<path d="M18.6817 16.5508C18.6817 17.078 18.4669 17.556 18.1212 17.9014C17.7755 18.2477 17.2973 18.4624 16.7696 18.4624H11.7914C9.94602 18.4624 8.27263 17.7114 7.061 16.4998C6.64121 16.0802 6.27575 15.6048 5.9786 15.0857C5.41806 14.1085 5.09787 12.9783 5.09787 11.7732C5.09787 9.1878 6.57207 6.94132 8.72369 5.82754C9.64229 5.35208 10.686 5.0831 11.7906 5.0831C13.1891 5.08392 14.4913 5.51578 15.5654 6.25281C17.3261 7.45872 18.4842 9.48228 18.4842 11.7732C18.4842 12.3005 18.2694 12.7784 17.9237 13.1247C17.5779 13.4702 17.0989 13.6849 16.5713 13.6849C15.516 13.684 14.66 12.8286 14.66 11.7732C14.66 11.0403 14.3826 10.3707 13.9283 9.86314C13.6673 9.57112 13.3471 9.3334 12.9866 9.16888C12.6228 9.00107 12.2178 8.9073 11.7923 8.9073C11.505 8.9073 11.2284 8.95007 10.9667 9.02986C10.4555 9.18204 10.0036 9.47488 9.65628 9.86314C9.20192 10.3707 8.92453 11.0394 8.92453 11.7732C8.92453 12.5069 9.20192 13.1773 9.65793 13.6849C10.1831 14.2714 10.9453 14.6399 11.7931 14.6399H16.7713C17.8257 14.6391 18.6817 15.4946 18.6817 16.5508Z" fill="#505050"/>
<path d="M69.8425 40.5348C71.47 40.5348 72.7893 39.2164 72.7893 37.59C72.7893 35.9636 71.47 34.6451 69.8425 34.6451C68.2151 34.6451 66.8958 35.9636 66.8958 37.59C66.8958 39.2164 68.2151 40.5348 69.8425 40.5348Z" fill="#505050"/>
<path d="M74.9499 40.5349C75.4923 40.5349 75.9319 40.0955 75.9319 39.5535C75.9319 39.0115 75.4923 38.5722 74.9499 38.5722C74.4076 38.5722 73.968 39.0115 73.968 39.5535C73.968 40.0955 74.4076 40.5349 74.9499 40.5349Z" fill="#505050"/>
<path d="M58.956 26.7919C55.1581 26.7919 52.0797 29.8684 52.0797 33.6638C52.0797 37.4592 55.1581 40.5357 58.956 40.5357C59.0646 40.5357 59.1733 40.5332 59.2811 40.5275C60.7536 40.6895 61.9035 41.9398 61.9035 43.4542C61.9035 45.078 60.5816 46.3991 58.9568 46.3991C57.3319 46.3991 56.01 45.078 56.01 43.4542C56.01 42.37 55.1301 41.4907 54.0453 41.4907C52.9604 41.4907 52.0805 42.37 52.0805 43.4542C52.0805 47.243 55.1647 50.3261 58.9568 50.3261C62.748 50.3261 65.8331 47.2439 65.8331 43.4542C65.8331 41.5409 65.0462 39.8085 63.7794 38.5615C65.047 37.3153 65.8331 35.5813 65.8331 33.6638C65.8323 29.8684 62.7538 26.7919 58.956 26.7919ZM59.2811 36.5897C59.1733 36.5848 59.0654 36.5815 58.9568 36.5815C58.8745 36.5815 58.7938 36.5873 58.7148 36.5971C57.2027 36.4738 56.01 35.2053 56.01 33.663C56.01 32.0392 57.3319 30.7181 58.9568 30.7181C60.5816 30.7181 61.9035 32.0392 61.9035 33.663C61.9035 35.1774 60.7536 36.4277 59.2811 36.5897Z" fill="#505050"/>
<path d="M35.9713 26.7919C34.8864 26.7919 34.0065 27.6713 34.0065 28.7554V38.5722C34.0065 39.6563 34.8864 40.5357 35.9713 40.5357C37.0561 40.5357 37.9361 39.6563 37.9361 38.5722V28.7554C37.9352 27.6713 37.0561 26.7919 35.9713 26.7919Z" fill="#505050"/>
<path d="M47.5484 27.3661C46.7788 26.9976 45.9178 26.7919 45.0075 26.7919C44.0971 26.7919 43.2361 26.9976 42.4665 27.3661C42.1109 27.0116 41.6203 26.7919 41.0779 26.7919C39.993 26.7919 39.1131 27.6705 39.1131 28.7554V38.5722C39.1131 39.6563 39.9922 40.5357 41.0779 40.5357C42.1636 40.5357 43.0427 39.6572 43.0427 38.5722V32.6825C43.0427 31.5991 43.9242 30.719 45.0075 30.719C46.0915 30.719 46.9722 31.5991 46.9722 32.6825V38.5722C46.9722 39.6563 47.8513 40.5357 48.937 40.5357C50.0219 40.5357 50.9018 39.6572 50.9018 38.5722V32.6825C50.9018 30.3381 49.5321 28.3137 47.5484 27.3661Z" fill="#505050"/>
<path d="M21.2136 20.9022C20.1288 20.9022 19.2489 21.7816 19.2489 22.8657V38.5722C19.2489 39.6563 20.1288 40.5357 21.2136 40.5357C22.2985 40.5357 23.1784 39.6563 23.1784 38.5722V22.8649C23.1776 21.7807 22.2985 20.9022 21.2136 20.9022Z" fill="#505050"/>
<path d="M28.7361 33.6696L32.25 30.1579C33.0171 29.3913 33.0171 28.1484 32.25 27.3817C31.4828 26.6151 30.2391 26.6151 29.472 27.3817L23.1776 33.672L25.9556 36.4482L25.9573 36.4466L29.4728 39.9599C30.2399 40.7265 31.4837 40.7265 32.2508 39.9599C33.018 39.1932 33.018 37.9503 32.2508 37.1836L28.7361 33.6696Z" fill="#505050"/>
<path d="M32.0961 13.1576H23.8427C23.5414 13.1576 23.3175 13.4373 23.3834 13.7317C23.506 14.2821 23.7447 14.7221 24.0978 15.0512C24.5662 15.488 25.1424 15.7059 25.8256 15.7059C26.7425 15.7059 27.4076 15.3572 27.8208 14.6604C27.9072 14.514 28.0603 14.4202 28.2307 14.4202H31.645C31.9693 14.4202 32.2014 14.7435 32.0878 15.0471C31.8541 15.6739 31.5182 16.2513 31.0803 16.7778C30.5 17.477 29.7732 18.0248 28.8999 18.4213C28.0258 18.8186 27.0487 19.0169 25.9688 19.0169C24.6658 19.0169 23.506 18.7388 22.4895 18.1836C21.4729 17.6283 20.6786 16.8337 20.1066 15.8022C19.5345 14.7698 19.2489 13.5631 19.2489 12.182C19.2489 10.8009 19.5304 9.59414 20.095 8.5618C20.6589 7.53028 21.4491 6.73648 22.4664 6.18042C23.483 5.62517 24.651 5.34714 25.9696 5.34714C27.2561 5.34714 28.4003 5.61777 29.4012 6.15738C30.4021 6.697 31.1849 7.46694 31.7487 8.4672C32.3125 9.46746 32.5949 10.6347 32.5949 11.9681C32.5949 12.2149 32.585 12.4674 32.5652 12.7274C32.5463 12.97 32.3405 13.1576 32.0961 13.1576ZM27.9056 10.8946C28.2003 10.8946 28.4299 10.6248 28.3673 10.3369C28.271 9.89356 28.0513 9.5234 27.7097 9.22727C27.2331 8.81433 26.6372 8.60786 25.9219 8.60786C25.2387 8.60786 24.6625 8.80693 24.1941 9.20341C23.8707 9.47734 23.632 9.83105 23.4789 10.2637C23.3702 10.5706 23.5957 10.8938 23.9217 10.8938H27.9056V10.8946Z" fill="#505050"/>
<path d="M13.5406 33.0707L17.0322 27.0264C17.7656 25.7571 16.8487 24.1712 15.3827 24.1712H8.39855C6.93176 24.1712 6.01563 25.7579 6.74903 27.0264L10.2407 33.0707C10.9741 34.34 12.8072 34.34 13.5406 33.0707Z" fill="#505050"/>
</g>
<defs>
<clipPath id="clip0_256_615">
<rect width="75.7143" height="50" fill="white" transform="translate(0.218445 0.325256)"/>
</clipPath>
</defs>
</svg>
