<svg width="164" height="51" viewBox="0 0 164 51" fill="none" xmlns="http://www.w3.org/2000/svg">
<g clip-path="url(#clip0_259_573)">
<path d="M48.1949 11.3619V28.3636H44.7849V11.3619H48.1949Z" fill="#505050"/>
<path d="M62.9316 16.1969C63.9216 17.2119 64.4182 18.6286 64.4182 20.4469V28.3636H61.0082V20.9103C61.0082 19.8386 60.7399 19.0153 60.2049 18.4386C59.6682 17.8619 58.9382 17.5736 58.0132 17.5736C57.0716 17.5736 56.3282 17.8619 55.7849 18.4386C55.2399 19.0153 54.9682 19.8386 54.9682 20.9103V28.3636H51.5582V14.8686H54.9682V16.5486C55.4232 15.9636 56.0032 15.5053 56.7099 15.1719C57.4166 14.8386 58.1916 14.6719 59.0366 14.6719C60.6432 14.6736 61.9416 15.1819 62.9316 16.1969Z" fill="#505050"/>
<path d="M67.6332 17.9503C68.2016 16.9036 68.9882 16.0903 69.9966 15.5153C71.0032 14.9386 72.1566 14.6503 73.4549 14.6503C75.1266 14.6503 76.5116 15.0686 77.6082 15.9053C78.7049 16.7419 79.4382 17.9153 79.8132 19.4253H76.1349C75.9399 18.8403 75.6116 18.3819 75.1482 18.0486C74.6849 17.7153 74.1132 17.5486 73.4316 17.5486C72.4566 17.5486 71.6866 17.9019 71.1182 18.6086C70.5499 19.3153 70.2649 20.3186 70.2649 21.6169C70.2649 22.9003 70.5482 23.8953 71.1182 24.6003C71.6866 25.3069 72.4582 25.6603 73.4316 25.6603C74.8116 25.6603 75.7132 25.0436 76.1349 23.8086H79.8132C79.4399 25.2703 78.7016 26.4319 77.5966 27.2919C76.4916 28.1536 75.1116 28.5836 73.4549 28.5836C72.1549 28.5836 71.0032 28.2953 69.9966 27.7186C68.9899 27.1419 68.2016 26.3303 67.6332 25.2836C67.0649 24.2369 66.7799 23.0153 66.7799 21.6169C66.7816 20.2203 67.0649 18.9986 67.6332 17.9503Z" fill="#505050"/>
<path d="M95.0599 14.8686V28.3636H91.6249V26.6586C91.1866 27.2436 90.6132 27.7019 89.9082 28.0353C89.2016 28.3686 88.4349 28.5353 87.6066 28.5353C86.5516 28.5353 85.6166 28.3119 84.8049 27.8653C83.9932 27.4186 83.3549 26.7619 82.8932 25.8919C82.4299 25.0236 82.1982 23.9886 82.1982 22.7869V14.8703H85.6082V22.3003C85.6082 23.3719 85.8766 24.1969 86.4116 24.7719C86.9466 25.3486 87.6782 25.6369 88.6032 25.6369C89.5449 25.6369 90.2832 25.3486 90.8199 24.7719C91.3549 24.1953 91.6232 23.3719 91.6232 22.3003V14.8686H95.0599Z" fill="#505050"/>
<path d="M103.647 15.2586C104.418 14.8536 105.298 14.6503 106.29 14.6503C107.443 14.6503 108.487 14.9353 109.42 15.5036C110.353 16.0719 111.092 16.8803 111.637 17.9269C112.18 18.9736 112.453 20.1886 112.453 21.5686C112.453 22.9486 112.182 24.1719 111.637 25.2353C111.092 26.2986 110.353 27.1236 109.42 27.7069C108.487 28.2919 107.443 28.5836 106.29 28.5836C105.283 28.5836 104.402 28.3853 103.647 27.9869C102.892 27.5886 102.287 27.0736 101.832 26.4403V28.3653H98.4216V10.3386H101.832V16.8419C102.27 16.1936 102.875 15.6653 103.647 15.2586ZM108.47 19.4603C108.137 18.8669 107.698 18.4169 107.155 18.1086C106.61 17.8003 106.022 17.6453 105.388 17.6453C104.772 17.6453 104.19 17.8036 103.647 18.1203C103.102 18.4369 102.663 18.8953 102.332 19.4969C101.998 20.0986 101.832 20.8036 101.832 21.6153C101.832 22.4269 101.998 23.1336 102.332 23.7336C102.665 24.3353 103.103 24.7936 103.647 25.1103C104.19 25.4269 104.772 25.5853 105.388 25.5853C106.022 25.5853 106.61 25.4236 107.155 25.0986C107.698 24.7736 108.137 24.3119 108.47 23.7103C108.803 23.1103 108.97 22.3953 108.97 21.5669C108.97 20.7553 108.803 20.0536 108.47 19.4603Z" fill="#505050"/>
<path d="M114.875 17.9386C115.418 16.8836 116.158 16.0719 117.092 15.5019C118.025 14.9336 119.068 14.6486 120.222 14.6486C121.228 14.6486 122.11 14.8519 122.865 15.2569C123.62 15.6636 124.225 16.1753 124.68 16.7919V14.8686H128.115V28.3636H124.68V26.3903C124.242 27.0236 123.637 27.5469 122.865 27.9619C122.093 28.3753 121.205 28.5836 120.198 28.5836C119.062 28.5836 118.027 28.2919 117.093 27.7069C116.16 27.1219 115.42 26.2986 114.877 25.2353C114.332 24.1719 114.06 22.9503 114.06 21.5686C114.06 20.2036 114.332 18.9936 114.875 17.9386ZM124.193 19.4853C123.868 18.8919 123.43 18.4386 122.878 18.1219C122.327 17.8053 121.733 17.6469 121.1 17.6469C120.467 17.6469 119.882 17.8019 119.347 18.1103C118.812 18.4186 118.377 18.8703 118.043 19.4619C117.71 20.0553 117.543 20.7569 117.543 21.5686C117.543 22.3803 117.71 23.0903 118.043 23.7003C118.377 24.3086 118.815 24.7769 119.358 25.1003C119.902 25.4253 120.483 25.5869 121.1 25.5869C121.733 25.5869 122.325 25.4286 122.878 25.1119C123.43 24.7953 123.868 24.3403 124.193 23.7486C124.518 23.1553 124.68 22.4453 124.68 21.6169C124.68 20.7886 124.518 20.0786 124.193 19.4853Z" fill="#505050"/>
<path d="M135.422 17.6703V24.1986C135.422 24.6536 135.532 24.9819 135.75 25.1853C135.97 25.3886 136.338 25.4903 136.858 25.4903H138.442V28.3653H136.298C133.423 28.3653 131.987 26.9686 131.987 24.1753V17.6719H130.378V14.8686H131.987V11.5319H135.422V14.8686H138.442V17.6703H135.422Z" fill="#505050"/>
<path d="M143.387 27.7186C142.347 27.1419 141.532 26.3269 140.938 25.2703C140.345 24.2153 140.05 22.9969 140.05 21.6169C140.05 20.2369 140.355 19.0186 140.963 17.9636C141.572 16.9086 142.405 16.0919 143.46 15.5153C144.515 14.9386 145.693 14.6503 146.992 14.6503C148.29 14.6503 149.468 14.9386 150.523 15.5153C151.578 16.0919 152.412 16.9086 153.02 17.9636C153.628 19.0186 153.933 20.2369 153.933 21.6169C153.933 22.9969 153.62 24.2153 152.995 25.2703C152.37 26.3253 151.525 27.1419 150.462 27.7186C149.398 28.2953 148.208 28.5836 146.893 28.5836C145.595 28.5836 144.425 28.2953 143.387 27.7186ZM148.635 25.1603C149.178 24.8603 149.613 24.4086 149.938 23.8086C150.263 23.2086 150.425 22.4769 150.425 21.6169C150.425 20.3336 150.088 19.3486 149.413 18.6569C148.74 17.9669 147.915 17.6219 146.942 17.6219C145.967 17.6219 145.152 17.9669 144.493 18.6569C143.835 19.3469 143.507 20.3336 143.507 21.6169C143.507 22.9003 143.827 23.8869 144.468 24.5769C145.11 25.2669 145.918 25.6119 146.892 25.6119C147.512 25.6119 148.092 25.4619 148.635 25.1603Z" fill="#505050"/>
<path d="M161.57 15.2836C162.277 14.8786 163.083 14.6753 163.993 14.6753V18.2553H163.092C162.02 18.2553 161.212 18.5069 160.668 19.0103C160.123 19.5136 159.852 20.3903 159.852 21.6403V28.3636H156.442V14.8686H159.852V16.9636C160.292 16.2503 160.863 15.6903 161.57 15.2836Z" fill="#505050"/>
<path d="M45.8133 32.1486V36.8353C45.8133 38.6086 46.5999 39.3603 47.6583 39.3603C48.8333 39.3603 49.5849 38.5853 49.5849 36.8353V32.1486H50.6183V36.7653C50.6183 39.1969 49.3383 40.1953 47.6233 40.1953C46.0016 40.1953 44.7799 39.2669 44.7799 36.8119V32.1486H45.8133Z" fill="#505050"/>
<path d="M52.3566 35.9203C52.3566 35.3336 52.3449 34.8519 52.3099 34.3819H53.2266L53.2849 35.3219H53.3083C53.5899 34.7819 54.2483 34.2536 55.1883 34.2536C55.9749 34.2536 57.1966 34.7236 57.1966 36.6736V40.0686H56.1633V36.7919C56.1633 35.8753 55.8233 35.1119 54.8483 35.1119C54.1666 35.1119 53.6383 35.5936 53.4616 36.1686C53.4149 36.2986 53.3916 36.4736 53.3916 36.6503V40.0686H52.3583V35.9203H52.3566Z" fill="#505050"/>
<path d="M60.0283 32.7836C60.0399 33.1369 59.7816 33.4186 59.3699 33.4186C59.0049 33.4186 58.7466 33.1369 58.7466 32.7836C58.7466 32.4203 59.0166 32.1369 59.3933 32.1369C59.7816 32.1369 60.0283 32.4186 60.0283 32.7836ZM58.8766 40.0669V34.3819H59.9099V40.0669H58.8766Z" fill="#505050"/>
<path d="M62.0249 34.3803L63.1416 37.5753C63.3299 38.0919 63.4816 38.5619 63.5999 39.0319H63.6349C63.7649 38.5619 63.9283 38.0919 64.1166 37.5753L65.2199 34.3803H66.2999L64.0683 40.0653H63.0816L60.9199 34.3803H62.0249Z" fill="#505050"/>
<path d="M67.7333 37.4119C67.7566 38.8103 68.6499 39.3853 69.6833 39.3853C70.4233 39.3853 70.8699 39.2553 71.2566 39.0919L71.4333 39.8319C71.0699 39.9969 70.4466 40.1836 69.5416 40.1836C67.7916 40.1836 66.7466 39.0319 66.7466 37.3169C66.7466 35.6019 67.7566 34.2503 69.4133 34.2503C71.2699 34.2503 71.7633 35.8836 71.7633 36.9286C71.7633 37.1403 71.7399 37.3053 71.7283 37.4103H67.7333V37.4119ZM70.7649 36.6719C70.7766 36.0136 70.4949 34.9919 69.3316 34.9919C68.2866 34.9919 67.8283 35.9553 67.7449 36.6719H70.7649Z" fill="#505050"/>
<path d="M73.0433 36.1553C73.0433 35.4853 73.0316 34.9103 72.9966 34.3819H73.9016L73.9366 35.4986H73.9833C74.2416 34.7353 74.8649 34.2536 75.5566 34.2536C75.6749 34.2536 75.7566 34.2653 75.8499 34.2886V35.2636C75.7449 35.2403 75.6383 35.2286 75.4983 35.2286C74.7699 35.2286 74.2533 35.7803 74.1116 36.5553C74.0883 36.6969 74.0649 36.8603 74.0649 37.0369V40.0669H73.0433V36.1553Z" fill="#505050"/>
<path d="M76.7449 39.0086C77.0499 39.2086 77.5916 39.4203 78.1083 39.4203C78.8599 39.4203 79.2116 39.0436 79.2116 38.5736C79.2116 38.0803 78.9183 37.8103 78.1549 37.5286C77.1333 37.1653 76.6516 36.6003 76.6516 35.9186C76.6516 35.0019 77.3916 34.2503 78.6133 34.2503C79.1883 34.2503 79.6933 34.4153 80.0116 34.6019L79.7533 35.3536C79.5299 35.2119 79.1183 35.0253 78.5899 35.0253C77.9783 35.0253 77.6383 35.3769 77.6383 35.8003C77.6383 36.2703 77.9783 36.4819 78.7183 36.7636C79.7049 37.1386 80.2099 37.6319 80.2099 38.4786C80.2099 39.4769 79.4349 40.1819 78.0833 40.1819C77.4599 40.1819 76.8849 40.0286 76.4849 39.7936L76.7449 39.0086Z" fill="#505050"/>
<path d="M82.6883 32.7836C82.6999 33.1369 82.4416 33.4186 82.0299 33.4186C81.6649 33.4186 81.4066 33.1369 81.4066 32.7836C81.4066 32.4203 81.6766 32.1369 82.0533 32.1369C82.4416 32.1369 82.6883 32.4186 82.6883 32.7836ZM81.5366 40.0669V34.3819H82.5699V40.0669H81.5366Z" fill="#505050"/>
<path d="M85.5316 32.7486V34.3819H87.0116V35.1686H85.5316V38.2353C85.5316 38.9403 85.7316 39.3386 86.3066 39.3386C86.5766 39.3386 86.7766 39.3036 86.9049 39.2686L86.9516 40.0436C86.7516 40.1253 86.4349 40.1853 86.0349 40.1853C85.5533 40.1853 85.1649 40.0319 84.9183 39.7503C84.6249 39.4453 84.5183 38.9403 84.5183 38.2703V35.1686H83.6366V34.3819H84.5183V33.0186L85.5316 32.7486Z" fill="#505050"/>
<path d="M88.6566 34.3803L89.9016 37.7403C90.0316 38.1153 90.1716 38.5619 90.2666 38.9036H90.2899C90.3949 38.5636 90.5133 38.1286 90.6533 37.7169L91.7816 34.3803H92.8733L91.3233 38.4336C90.5833 40.3836 90.0783 41.3819 89.3733 41.9936C88.8683 42.4403 88.3633 42.6169 88.1049 42.6636L87.8466 41.7936C88.1049 41.7119 88.4449 41.5469 88.7516 41.2886C89.0333 41.0653 89.3866 40.6653 89.6216 40.1369C89.6683 40.0319 89.7033 39.9486 89.7033 39.8903C89.7033 39.8319 89.6799 39.7486 89.6333 39.6203L87.5299 34.3819H88.6566V34.3803Z" fill="#505050"/>
<path d="M101.448 37.1769C101.448 39.2803 99.9916 40.1953 98.6166 40.1953C97.0783 40.1953 95.8916 39.0669 95.8916 37.2703C95.8916 35.3669 97.1366 34.2519 98.7116 34.2519C100.345 34.2519 101.448 35.4386 101.448 37.1769ZM96.9383 37.2353C96.9383 38.4803 97.6549 39.4203 98.6649 39.4203C99.6516 39.4203 100.392 38.4919 100.392 37.2119C100.392 36.2486 99.9099 35.0269 98.6883 35.0269C97.4666 35.0269 96.9383 36.1553 96.9383 37.2353Z" fill="#505050"/>
<path d="M102.858 40.0669V35.1686H102.06V34.3819H102.858V34.1119C102.858 33.3136 103.035 32.5853 103.517 32.1269C103.905 31.7503 104.422 31.5986 104.903 31.5986C105.267 31.5986 105.585 31.6803 105.785 31.7636L105.643 32.5619C105.49 32.4919 105.28 32.4319 104.985 32.4319C104.103 32.4319 103.882 33.2069 103.882 34.0769V34.3819H105.257V35.1686H103.882V40.0669H102.858Z" fill="#505050"/>
<path d="M108.708 32.2553C109.155 32.1619 109.86 32.0903 110.577 32.0903C111.598 32.0903 112.257 32.2669 112.75 32.6653C113.162 32.9703 113.408 33.4403 113.408 34.0636C113.408 34.8269 112.903 35.4969 112.068 35.8019V35.8253C112.82 36.0136 113.702 36.6353 113.702 37.8103C113.702 38.4919 113.432 39.0086 113.032 39.3953C112.48 39.9003 111.587 40.1353 110.295 40.1353C109.59 40.1353 109.05 40.0886 108.71 40.0419V32.2553H108.708ZM109.732 35.4969H110.66C111.74 35.4969 112.375 34.9336 112.375 34.1703C112.375 33.2419 111.67 32.8786 110.637 32.8786C110.167 32.8786 109.897 32.9136 109.732 32.9486V35.4969ZM109.732 39.2919C109.932 39.3269 110.225 39.3386 110.59 39.3386C111.647 39.3386 112.622 38.9503 112.622 37.8003C112.622 36.7203 111.693 36.2736 110.578 36.2736H109.733V39.2919H109.732Z" fill="#505050"/>
<path d="M120.233 37.1769C120.233 39.2803 118.777 40.1953 117.402 40.1953C115.863 40.1953 114.677 39.0669 114.677 37.2703C114.677 35.3669 115.922 34.2519 117.497 34.2519C119.128 34.2519 120.233 35.4386 120.233 37.1769ZM115.723 37.2353C115.723 38.4803 116.44 39.4203 117.45 39.4203C118.437 39.4203 119.177 38.4919 119.177 37.2119C119.177 36.2486 118.695 35.0269 117.473 35.0269C116.252 35.0269 115.723 36.1553 115.723 37.2353Z" fill="#505050"/>
<path d="M126.295 38.5153C126.295 39.1019 126.307 39.6186 126.342 40.0653H125.425L125.367 39.1369H125.343C125.073 39.5953 124.475 40.1936 123.463 40.1936C122.57 40.1936 121.502 39.7003 121.502 37.7036V34.3786H122.535V37.5269C122.535 38.6069 122.863 39.3353 123.803 39.3353C124.497 39.3353 124.978 38.8536 125.167 38.3953C125.225 38.2419 125.26 38.0553 125.26 37.8669V34.3786H126.293V38.5153H126.295Z" fill="#505050"/>
<path d="M128.01 35.9203C128.01 35.3336 127.998 34.8519 127.963 34.3819H128.868L128.915 35.2986H128.95C129.267 34.7586 129.797 34.2536 130.735 34.2536C131.51 34.2536 132.098 34.7236 132.345 35.3936H132.368C132.545 35.0769 132.768 34.8303 133.003 34.6536C133.343 34.3953 133.72 34.2536 134.26 34.2536C135.012 34.2536 136.128 34.7469 136.128 36.7203V40.0686H135.118V36.8503C135.118 35.7586 134.718 35.1003 133.885 35.1003C133.298 35.1003 132.84 35.5353 132.663 36.0403C132.617 36.1819 132.582 36.3686 132.582 36.5569V40.0686H131.572V36.6619C131.572 35.7569 131.172 35.1003 130.385 35.1003C129.738 35.1003 129.268 35.6169 129.105 36.1336C129.047 36.2869 129.023 36.4619 129.023 36.6386V40.0686H128.013V35.9203H128.01Z" fill="#505050"/>
<path d="M138.383 37.4119C138.407 38.8103 139.3 39.3853 140.333 39.3853C141.073 39.3853 141.52 39.2553 141.907 39.0919L142.083 39.8319C141.72 39.9969 141.097 40.1836 140.192 40.1836C138.442 40.1836 137.397 39.0319 137.397 37.3169C137.397 35.6019 138.407 34.2503 140.063 34.2503C141.92 34.2503 142.413 35.8836 142.413 36.9286C142.413 37.1403 142.39 37.3053 142.378 37.4103H138.383V37.4119ZM141.415 36.6719C141.427 36.0136 141.145 34.9919 139.982 34.9919C138.937 34.9919 138.478 35.9553 138.397 36.6719H141.415Z" fill="#505050"/>
<path d="M143.693 36.1553C143.693 35.4853 143.682 34.9103 143.647 34.3819H144.552L144.587 35.4986H144.633C144.892 34.7353 145.515 34.2536 146.207 34.2536C146.325 34.2536 146.407 34.2653 146.5 34.2886V35.2636C146.395 35.2403 146.288 35.2286 146.147 35.2286C145.418 35.2286 144.902 35.7803 144.76 36.5553C144.737 36.6969 144.713 36.8603 144.713 37.0369V40.0669H143.692V36.1553H143.693Z" fill="#505050"/>
<path d="M152.328 31.7269V38.5986C152.328 39.1036 152.34 39.6786 152.375 40.0669H151.447L151.4 39.0803H151.377C151.06 39.7153 150.367 40.1969 149.438 40.1969C148.063 40.1969 147.007 39.0336 147.007 37.3069C146.995 35.4153 148.17 34.2519 149.555 34.2519C150.425 34.2519 151.012 34.6636 151.27 35.1219H151.293V31.7269H152.328ZM151.293 36.6953C151.293 36.5653 151.282 36.3903 151.247 36.2603C151.093 35.6019 150.53 35.0619 149.755 35.0619C148.687 35.0619 148.052 36.0019 148.052 37.2586C148.052 38.4103 148.615 39.3619 149.732 39.3619C150.425 39.3619 151.058 38.9036 151.247 38.1286C151.282 37.9869 151.293 37.8469 151.293 37.6819V36.6953Z" fill="#505050"/>
<path d="M154.618 37.4119C154.642 38.8103 155.535 39.3853 156.568 39.3853C157.308 39.3853 157.755 39.2553 158.143 39.0919L158.32 39.8319C157.957 39.9969 157.333 40.1836 156.428 40.1836C154.678 40.1836 153.633 39.0319 153.633 37.3169C153.633 35.6019 154.643 34.2503 156.3 34.2503C158.157 34.2503 158.65 35.8836 158.65 36.9286C158.65 37.1403 158.627 37.3053 158.615 37.4103H154.618V37.4119ZM157.65 36.6719C157.662 36.0136 157.38 34.9919 156.217 34.9919C155.172 34.9919 154.713 35.9553 154.632 36.6719H157.65Z" fill="#505050"/>
<path d="M159.788 39.0086C160.093 39.2086 160.635 39.4203 161.152 39.4203C161.903 39.4203 162.257 39.0436 162.257 38.5736C162.257 38.0803 161.963 37.8103 161.2 37.5286C160.178 37.1653 159.697 36.6003 159.697 35.9186C159.697 35.0019 160.437 34.2503 161.658 34.2503C162.233 34.2503 162.738 34.4153 163.057 34.6019L162.798 35.3536C162.575 35.2119 162.163 35.0253 161.635 35.0253C161.025 35.0253 160.683 35.3769 160.683 35.8003C160.683 36.2703 161.023 36.4819 161.763 36.7636C162.75 37.1386 163.255 37.6319 163.255 38.4786C163.255 39.4769 162.48 40.1819 161.128 40.1819C160.505 40.1819 159.93 40.0286 159.532 39.7936L159.788 39.0086Z" fill="#505050"/>
<path d="M36.2833 19.1386C36.2699 19.1186 36.2566 19.0986 36.2449 19.0769C37.0116 24.3036 35.3833 29.8136 31.3616 33.8353L19.1266 46.0703L17.6233 44.5669L6.89327 33.8369C2.8716 29.8153 1.24327 24.3036 2.00994 19.0769C1.9966 19.0986 1.98327 19.1186 1.96994 19.1403C-0.620062 23.2169 -0.608396 28.4386 1.98827 32.5103C2.76827 33.7353 3.69494 34.8953 4.76494 35.9653L17.6216 48.8236L18.3099 49.5119L19.1249 50.3269L33.4866 35.9653C34.5566 34.8953 35.4833 33.7353 36.2649 32.5103C38.8616 28.4369 38.8733 23.2153 36.2833 19.1386Z" fill="#505050"/>
<path d="M22.3183 3.51694L29.7649 10.9636C29.8599 11.0586 29.9533 11.1553 30.0466 11.2519C35.6383 17.1469 35.5449 26.4603 29.7649 32.2403L19.1266 42.8786L16.9983 40.7503L27.6366 30.1119C32.2416 25.5069 32.3349 18.1003 27.9166 13.3819C27.8266 13.2836 27.7316 13.1869 27.6366 13.0919L25.7949 11.2486L20.1899 5.6436L22.3183 3.51694Z" fill="#505050"/>
<path d="M19.1266 0.325256L21.2549 2.45359L10.6149 13.0919C5.91327 17.7919 5.91327 25.4136 10.6149 30.1136L17.6216 37.1203L18.0616 37.5603L15.9333 39.6869L8.4866 32.2403C2.6116 26.3636 2.6116 16.8386 8.4866 10.9619L19.1266 0.325256Z" fill="#505050"/>
</g>
<defs>
<clipPath id="clip0_259_573">
<rect width="163.96" height="50" fill="white" transform="translate(0.0332642 0.325256)"/>
</clipPath>
</defs>
</svg>
