<svg width="149" height="45" viewBox="0 0 149 45" fill="none" xmlns="http://www.w3.org/2000/svg">
<path d="M56.3606 28.1303H45.5916V11.5547H41.5314V31.9286H56.3606V28.1303Z" fill="#505050"/>
<path d="M65.6831 11.5547H61.6228V31.9286H65.6831V11.5547Z" fill="#505050"/>
<path d="M86.1948 28.203H75.033V23.517H85.569V19.7915H75.033V15.2802H86.0785V11.5547H70.9727V31.9286H86.1948V28.203Z" fill="#505050"/>
<path d="M126.843 28.203H115.682V23.517H126.218V19.7915H115.682V15.2802H126.727V11.5547H111.621V31.9286H126.843V28.203Z" fill="#505050"/>
<path d="M105.743 19.9371H95.5272V15.2948H106.427V11.5547H91.467V31.9286H95.5272V23.6771H105.743V19.9371Z" fill="#505050"/>
<path d="M132.108 11.5547V31.9286H136.168V23.8227H137.362L143.299 31.9286H148.218L141.946 23.7644C145.86 23.3861 148.189 21.1013 148.189 17.7542C148.189 13.854 145.584 11.5547 140.723 11.5547H132.108ZM140.651 15.2948C142.804 15.2948 144.012 16.0661 144.012 17.7542C144.012 19.4714 142.863 20.2863 140.651 20.2863H136.168V15.2948H140.651Z" fill="#505050"/>
<path d="M15.0204 26.8804V8.63788C15.0199 8.52248 14.9891 8.40928 14.931 8.30958C14.8729 8.20988 14.7896 8.12728 14.6895 8.06998L10.2075 5.47554L5.40283 2.71363L1.39071 0.397048C1.31045 0.350228 1.21924 0.325458 1.12633 0.325258C1.03341 0.325048 0.942089 0.349398 0.861619 0.395858C0.781149 0.442318 0.714389 0.509218 0.668109 0.589788C0.621829 0.670358 0.597679 0.761728 0.598089 0.854648V35.8157C0.597669 35.9078 0.621169 35.9983 0.666289 36.0786C0.711419 36.1588 0.776609 36.2259 0.855489 36.2733L5.39466 38.8963L10.1994 41.6664L14.7467 44.2894C14.8283 44.3375 14.9217 44.3616 15.0164 44.3589V38.8146C14.922 38.8153 14.829 38.7913 14.7467 38.7452L10.2075 36.1181L5.6684 33.4992C5.58801 33.4527 5.52118 33.3861 5.47459 33.3058C5.42799 33.2255 5.40325 33.1344 5.40283 33.0416V9.17718C5.40365 9.08468 5.42858 8.99408 5.47516 8.91428C5.52173 8.83438 5.58834 8.76808 5.66839 8.72188C5.74845 8.67568 5.83918 8.65118 5.93162 8.65068C6.02405 8.65028 6.115 8.67408 6.19545 8.71958L9.87255 10.8441C9.97265 10.9015 10.0559 10.9841 10.114 11.0838C10.1721 11.1835 10.2029 11.2967 10.2034 11.412V30.2715C10.2033 30.3634 10.2275 30.4537 10.2734 30.5333C10.3193 30.6129 10.3853 30.679 10.4649 30.725L14.7426 33.1764C14.8238 33.2253 14.9175 33.2495 15.0123 33.2458V26.958C15.0102 26.9335 15.0102 26.9089 15.0123 26.8845L15.0204 26.8804Z" fill="#505050"/>
<path d="M31.5511 26.2718L27.0038 23.6569L24.8547 22.4312C24.7745 22.383 24.6827 22.3575 24.5891 22.3575C24.4956 22.3575 24.4037 22.383 24.3236 22.4312L22.1949 23.6569L19.9887 24.9235C19.9701 24.9353 19.9548 24.9516 19.9443 24.9709C19.9337 24.9902 19.9281 25.0118 19.9281 25.0338C19.9281 25.0558 19.9337 25.0775 19.9443 25.0967C19.9548 25.116 19.9701 25.1323 19.9887 25.1441L26.7505 29.0419C26.8289 29.0914 26.8934 29.1602 26.9378 29.2417C26.9821 29.3233 27.0048 29.4148 27.0038 29.5076V37.2908C27.0034 37.3134 27.0092 37.3357 27.0203 37.3553C27.0315 37.3749 27.0477 37.3912 27.0673 37.4025C27.0869 37.4137 27.1092 37.4195 27.1317 37.4193C27.1543 37.4191 27.1765 37.4128 27.1958 37.4011L31.4735 34.9497C31.5731 34.8922 31.6558 34.8094 31.7132 34.7097C31.7706 34.61 31.8007 34.4969 31.8003 34.3818V26.7212C31.8018 26.631 31.7796 26.542 31.7358 26.4632C31.6921 26.3843 31.6284 26.3183 31.5511 26.2718Z" fill="#505050"/>
<path d="M22.0071 29.3114L19.8172 30.5739L15.278 33.1928C15.2001 33.2389 15.1111 33.2629 15.0206 33.2622V27.7915L15.7846 27.3503H15.8051L17.329 26.4719C17.3486 26.4618 17.3703 26.4566 17.3923 26.4566C17.4144 26.4566 17.4361 26.4618 17.4557 26.4719L22.0071 29.0908C22.0257 29.1026 22.041 29.1189 22.0515 29.1382C22.0621 29.1574 22.0677 29.1791 22.0677 29.2011C22.0677 29.2231 22.0621 29.2447 22.0515 29.264C22.041 29.2833 22.0257 29.2996 22.0071 29.3114Z" fill="#505050"/>
<path d="M24.4175 33.4623L19.817 36.118L17.4107 37.5112L15.278 38.7369C15.1991 38.7847 15.1086 38.8102 15.0164 38.8104V44.3547C15.108 44.3539 15.198 44.33 15.278 44.2852L19.817 41.6622L24.5523 38.9412C24.5708 38.9292 24.5861 38.9128 24.5968 38.8936C24.6074 38.8744 24.6132 38.8528 24.6136 38.8308V33.5726C24.6144 33.5494 24.6088 33.5264 24.5975 33.5061C24.5861 33.4859 24.5695 33.4691 24.5492 33.4577C24.529 33.4464 24.5059 33.4408 24.4827 33.4416C24.4595 33.4424 24.4369 33.4495 24.4175 33.4623Z" fill="#505050"/>
</svg>
