<svg width="90" height="51" viewBox="0 0 90 51" fill="none" xmlns="http://www.w3.org/2000/svg">
<g clip-path="url(#clip0_256_658)">
<path d="M29.0563 17.4769C28.0308 17.4543 27.0124 17.3486 25.9988 17.1622C24.9852 16.9757 24.0713 16.5446 23.2559 15.8688C22.5094 15.2167 21.98 14.4067 21.6655 13.4387C21.3509 12.4719 21.2287 11.498 21.2987 10.5193C21.3913 9.58698 21.6536 8.71283 22.0856 7.89688C22.5165 7.08092 23.0518 6.34098 23.6927 5.67706C24.3324 5.01313 25.0493 4.42403 25.841 3.91213C26.6326 3.40023 27.448 2.97978 28.2872 2.65316C28.9388 2.39662 29.7079 2.22202 30.5933 2.12819C31.4787 2.03555 32.363 2.1757 33.2484 2.54745C33.3647 2.66385 33.4526 2.79806 33.5095 2.9489C33.5677 3.10092 33.5855 3.24107 33.5629 3.36816C33.5392 3.49643 33.4751 3.60095 33.3707 3.6829C33.265 3.76485 33.1084 3.79336 32.8983 3.77079C32.6894 3.77079 32.4852 3.70072 32.287 3.56057C32.0888 3.42042 31.8858 3.3159 31.6758 3.24582C31.4194 3.15318 31.1571 3.10567 30.8889 3.10567C30.6206 3.10567 30.3583 3.12943 30.1031 3.17575C29.2177 3.29214 28.3964 3.60689 27.6403 4.11997C26.8831 4.63306 26.2303 5.26849 25.6831 6.02505C25.136 6.78281 24.7217 7.61064 24.4428 8.50736C24.1627 9.40526 24.0583 10.2735 24.1283 11.112C24.1983 11.998 24.4606 12.808 24.914 13.542C25.3686 14.276 25.968 14.877 26.7133 15.3426C27.016 15.5754 27.3602 15.7619 27.7448 15.902C28.1293 16.0422 28.5186 16.1241 28.915 16.1467C29.404 16.1467 29.7708 16.0184 30.0153 15.7619C30.261 15.5053 30.4984 15.1799 30.7322 14.7832C31.7802 12.7795 32.9339 10.8733 34.1908 9.06676C35.4477 7.26145 36.9159 5.61173 38.593 4.11997C39.3384 3.44417 40.136 2.82063 40.987 2.24934C41.8368 1.67805 42.7507 1.20653 43.7299 0.833596C44.0788 0.717201 44.4693 0.606744 44.9002 0.501038C45.331 0.39652 45.7737 0.338323 46.2283 0.326446C46.6817 0.314569 47.1185 0.356138 47.5387 0.448779C47.9576 0.542608 48.3303 0.72789 48.6567 1.00819C49.0982 1.42745 49.338 1.9346 49.3724 2.52845C49.408 3.1223 49.3202 3.73397 49.1101 4.36345C48.9012 4.99294 48.627 5.59273 48.29 6.16401C47.9517 6.7353 47.6431 7.20801 47.3642 7.57976C46.0598 9.35182 44.4931 10.9707 42.6653 12.4398C40.8362 13.9078 38.8743 15.0504 36.7782 15.8664C36.3118 16.0528 35.818 16.2108 35.2934 16.3379C34.7688 16.4662 34.3202 16.7168 33.9475 17.0897C33.3422 17.6966 32.8176 18.4009 32.376 19.205C31.9333 20.0091 31.4906 20.831 31.0479 21.6695C30.6052 22.508 30.1162 23.3073 29.5797 24.0639C29.0444 24.8217 28.3798 25.4571 27.5881 25.969C28.1234 26.1792 28.648 26.3776 29.1607 26.5628C29.6735 26.7493 30.1969 26.9358 30.7334 27.1223C31.2924 27.3325 31.8455 27.5308 32.3927 27.7161C32.9398 27.9026 33.5166 28.0427 34.122 28.1354C34.5409 28.1829 34.9718 28.1936 35.4145 28.1698C35.8572 28.1472 36.2406 27.9952 36.567 27.7149C36.6833 27.6223 36.8127 27.4821 36.9515 27.2957C37.0916 27.1092 37.2661 27.0391 37.4761 27.0854C37.6625 27.1329 37.7551 27.2196 37.7551 27.3479C37.7551 27.4762 37.7088 27.5985 37.6162 27.7149C37.4761 28.0641 37.2779 28.3622 37.0216 28.6069C36.7652 28.8516 36.4685 29.0558 36.1302 29.2186C35.7919 29.3825 35.443 29.5155 35.0822 29.62C34.7213 29.7245 34.389 29.8124 34.0864 29.8825C33.5511 29.9989 33.0039 30.0393 32.4449 30.0048C31.8858 29.9704 31.3209 29.8944 30.75 29.778C30.1791 29.6616 29.6141 29.5155 29.0551 29.3409C28.4961 29.1663 27.9715 28.9976 27.4825 28.8337C27.086 28.7173 26.6908 28.5368 26.2944 28.2921C25.8979 28.0475 25.4908 27.9133 25.0719 27.8907C24.8155 27.8907 24.5829 27.9489 24.3728 28.0653C24.1627 28.1817 23.9419 28.2981 23.7093 28.4145C23.2191 28.6473 22.6838 28.8337 22.1022 28.9739C21.6132 29.114 21.1064 29.2482 20.583 29.3753C20.0584 29.5036 19.5291 29.5974 18.9926 29.6544C18.4561 29.7126 17.9149 29.7293 17.3677 29.7067C16.8206 29.6841 16.29 29.5903 15.7785 29.4276C15.4283 29.3112 15.0568 29.1307 14.6604 28.886C14.2652 28.6413 13.9388 28.3563 13.6812 28.0297C13.4248 27.703 13.286 27.3479 13.2622 26.9631C13.2397 26.5783 13.426 26.1887 13.8213 25.792C14.4978 25.1162 15.3239 24.6673 16.3019 24.4464C17.2811 24.2254 18.2116 24.1031 19.097 24.0794C19.7023 24.0568 20.3207 24.1031 20.9486 24.2195C21.5776 24.3359 22.1948 24.4879 22.8001 24.6744C23.0102 24.7219 23.2369 24.8027 23.4814 24.9191C23.7259 25.0355 23.9645 25.0711 24.1983 25.0236C24.4547 24.9773 24.6398 24.849 24.7573 24.6388C24.8737 24.4285 24.99 24.2314 25.1063 24.0449C25.8517 22.9498 26.5448 21.8773 27.1857 20.8286C27.8278 19.7834 28.4498 18.6646 29.0563 17.4769ZM22.488 26.5664C21.7426 26.2172 20.945 25.9191 20.0952 25.6744C19.2442 25.4298 18.3884 25.3656 17.5268 25.482C17.2941 25.5295 17.0378 25.5984 16.7576 25.6923C16.4775 25.7861 16.233 25.9084 16.0241 26.0593C15.8141 26.2113 15.6574 26.4084 15.5518 26.6531C15.4473 26.8978 15.4532 27.1721 15.5696 27.475C15.6621 27.7315 15.8141 27.924 16.0241 28.0522C16.233 28.1805 16.4728 28.2684 16.7398 28.3147C17.0081 28.3622 17.2751 28.3848 17.5434 28.3848C17.8116 28.3848 18.0739 28.3729 18.3303 28.3503C19.1219 28.2803 19.8733 28.0997 20.5842 27.8087C21.294 27.5166 21.929 27.1033 22.488 26.5664ZM35.1012 15.1336C35.7065 14.9008 36.2999 14.6561 36.8827 14.3996C37.4655 14.143 38.0007 13.8176 38.4897 13.4209C39.0951 13.0254 39.666 12.5942 40.2013 12.1275C40.7365 11.6619 41.273 11.1951 41.8083 10.7296C42.6937 9.9136 43.521 9.03351 44.2889 8.09047C45.0569 7.14625 45.7441 6.11532 46.3506 4.9965C46.5595 4.64732 46.7755 4.22687 46.9962 3.73753C47.217 3.2482 47.2811 2.77074 47.1885 2.30397C47.1185 2.02486 46.9796 1.81464 46.7695 1.67449C46.5595 1.53434 46.3328 1.45952 46.0883 1.44764C45.8438 1.43576 45.5874 1.46545 45.3192 1.53553C45.0509 1.6056 44.8123 1.68756 44.6035 1.7802C44.0907 2.03674 43.6243 2.35742 43.2053 2.74105C42.7863 3.12587 42.3899 3.557 42.0172 4.03446C41.6445 4.51192 41.2885 5.00244 40.9514 5.50246C40.6131 6.00367 40.2926 6.47638 39.9912 6.91821C39.1057 8.26982 38.2725 9.62736 37.4928 10.992C36.7141 12.3543 35.9154 13.7356 35.1012 15.1336Z" fill="#505050"/>
<path d="M47.0497 15.3081C46.6995 16.2405 46.3102 17.0861 45.8782 17.8427C45.4473 18.6005 44.9987 19.3404 44.5334 20.0625C44.3471 20.3654 44.1548 20.6694 43.9566 20.9711C43.7584 21.274 43.5661 21.5887 43.3798 21.9153C43.0534 22.4985 42.7044 23.0805 42.3317 23.6637C41.959 24.2468 41.6101 24.8169 41.2837 25.3763C41.1662 25.5402 41.0439 25.7374 40.917 25.9702C40.7888 26.203 40.6772 26.4476 40.5846 26.7042C40.4909 26.9607 40.4386 27.2173 40.4279 27.4738C40.4161 27.7304 40.4802 27.975 40.6202 28.2078C40.7591 28.3943 40.8991 28.5 41.0392 28.5226C41.3181 28.6164 41.6623 28.557 42.0694 28.348C42.4765 28.1377 42.9014 27.8361 43.3453 27.4394C43.7869 27.0439 44.2367 26.589 44.6901 26.0759C45.1447 25.564 45.5696 25.0509 45.966 24.5378C46.3613 24.0259 46.7055 23.5354 46.9962 23.0698C47.287 22.6042 47.503 22.2194 47.6431 21.9165H47.6087L47.7475 21.6719C47.8639 21.5092 47.9802 21.3453 48.0977 21.1825C48.214 21.0198 48.2947 21.0424 48.3422 21.2526C48.3647 21.3001 48.3707 21.3809 48.36 21.4973C48.3469 21.6137 48.3066 21.7419 48.2377 21.8821V21.8477C48.0514 22.1042 47.8769 22.3892 47.7143 22.704C47.5505 23.0187 47.3879 23.3157 47.2253 23.596C46.7589 24.4345 46.258 25.2516 45.7227 26.0438C45.1862 26.836 44.5928 27.5356 43.94 28.1413C43.2872 28.7482 42.5774 29.2375 41.8095 29.6093C41.0404 29.9822 40.1894 30.1687 39.2589 30.1687C38.9325 30.1687 38.6191 30.1046 38.3165 29.9763C38.0138 29.848 37.7693 29.5974 37.5818 29.2245C37.3491 28.8515 37.2328 28.4085 37.2328 27.8954C37.2328 27.3598 37.3325 26.8182 37.5295 26.2695C37.7278 25.7219 37.92 25.2385 38.1064 24.8181C38.5028 24.0021 38.9158 23.2337 39.3467 22.5104C39.7775 21.7883 40.2262 21.0887 40.6914 20.4129C41.0178 19.8772 41.3442 19.3297 41.6706 18.7703C41.997 18.2109 42.3222 17.6515 42.6486 17.0921C42.8112 16.813 42.9216 16.5624 42.981 16.3403C43.0391 16.1193 43.1032 15.8913 43.1732 15.6585C43.1732 15.6122 43.178 15.5659 43.1899 15.5184C43.2017 15.472 43.2077 15.4257 43.2077 15.3782C43.254 15.2618 43.2955 15.1336 43.3299 14.9934C43.3655 14.8533 43.4177 14.7487 43.4878 14.6787C43.7441 14.5623 44.0812 14.4922 44.5002 14.4684C44.9204 14.4459 45.2693 14.434 45.5482 14.434C45.7571 14.434 45.9969 14.4399 46.2639 14.4518C46.5322 14.4637 46.7814 14.4459 47.0152 14.3996V14.4696L47.0508 14.5397C47.0734 14.6561 47.0912 14.7784 47.1031 14.9067C47.1137 15.035 47.0959 15.1692 47.0497 15.3081ZM46.5595 9.64517C46.5595 9.36606 46.6236 9.07388 46.7517 8.77102C46.8799 8.46815 47.0497 8.19379 47.2585 7.94913C47.4686 7.70446 47.7072 7.50611 47.9754 7.35527C48.2425 7.20444 48.5167 7.11655 48.7968 7.09279C49.0982 7.07023 49.3499 7.11061 49.5469 7.21512C49.7451 7.31964 49.8899 7.47167 49.9837 7.67002C50.0774 7.86836 50.1237 8.08928 50.1237 8.33394C50.1237 8.57861 50.0774 8.81734 49.9837 9.05013C49.7973 9.49314 49.4709 9.89459 49.0057 10.2556C48.5392 10.6167 48.0858 10.7972 47.6431 10.7972C47.3867 10.7972 47.1588 10.7046 46.9618 10.5181C46.7636 10.3329 46.6295 10.0419 46.5595 9.64517Z" fill="#505050"/>
<path d="M50.1237 16.5327C50.3101 16.2761 50.4038 16.0208 50.4038 15.763C50.4038 15.5065 50.4157 15.2274 50.4383 14.9245C50.462 14.668 50.4667 14.5231 50.4561 14.4874C50.4442 14.453 50.5308 14.4352 50.7184 14.4352C50.881 14.4352 51.1492 14.4233 51.5219 14.4007C51.8946 14.3782 52.2732 14.3604 52.6578 14.3485C53.0423 14.3366 53.3794 14.3259 53.6702 14.314C53.961 14.3022 54.0951 14.2962 54.0725 14.2962C54.1188 14.3663 54.171 14.4708 54.2292 14.611C54.2874 14.7511 54.317 14.8901 54.317 15.0302C54.2707 15.3568 54.1604 15.6942 53.9847 16.0445C53.8102 16.3937 53.6536 16.7322 53.5135 17.0588C53.9788 16.6633 54.4452 16.2785 54.9117 15.9056C55.3769 15.5326 55.8778 15.206 56.4131 14.9269C56.6457 14.7867 56.914 14.6597 57.2166 14.5421C57.5181 14.4257 57.8326 14.3449 58.159 14.2974C58.4854 14.2511 58.8118 14.2333 59.1382 14.2451C59.4646 14.257 59.7673 14.3212 60.0462 14.4376C60.6752 14.7404 61.0183 15.1953 61.0776 15.801C61.1346 16.408 61.0942 17.0018 60.9554 17.5838C60.6978 18.3997 60.2907 19.186 59.7317 19.9438C59.1726 20.7015 58.6599 21.4296 58.1946 22.1291C57.7757 22.7586 57.3674 23.3881 56.9721 24.0176C56.5757 24.6471 56.1911 25.2991 55.8185 25.9749C55.7484 26.1151 55.644 26.3075 55.5039 26.5521C55.3639 26.7968 55.2594 27.0415 55.1894 27.2861C55.1194 27.5308 55.1194 27.741 55.1894 27.9156C55.2594 28.0902 55.4695 28.1544 55.8185 28.108C56.5638 27.9216 57.2214 27.6128 57.7923 27.1816C58.3632 26.7505 58.8818 26.2552 59.3471 25.6958C59.8124 25.1364 60.2492 24.5426 60.6574 23.9131C61.0657 23.2836 61.4788 22.6897 61.8978 22.1303C61.944 22.0602 62.0141 21.9332 62.1066 21.7455C62.1992 21.559 62.3108 21.3963 62.439 21.2562C62.5672 21.116 62.6953 21.0234 62.8235 20.9771C62.9505 20.9307 63.0858 21.0008 63.2247 21.1873C63.2947 21.3037 63.3125 21.432 63.2769 21.5721C63.2425 21.7123 63.1784 21.8583 63.0858 22.0092C62.9921 22.1612 62.8983 22.3014 62.8057 22.4284C62.712 22.5567 62.6313 22.6553 62.5612 22.7254C62.0022 23.495 61.4135 24.2813 60.7963 25.0853C60.1791 25.8894 59.5216 26.6353 58.8225 27.323C58.1234 28.0106 57.3543 28.6045 56.5164 29.1057C55.6772 29.6069 54.7574 29.9383 53.7556 30.1022C53.3367 30.1248 52.958 30.0499 52.6198 29.8753C52.2815 29.7008 52.0204 29.392 51.834 28.9489C51.624 28.4596 51.5599 27.9465 51.6418 27.4109C51.7237 26.8752 51.8863 26.3443 52.1308 25.8205C52.3753 25.2956 52.6554 24.7896 52.9699 24.3003C53.2844 23.8109 53.5693 23.3679 53.8257 22.9712C54.2446 22.2954 54.6814 21.6196 55.136 20.9438C55.5906 20.268 56.0155 19.5922 56.4107 18.9164C56.5971 18.6598 56.7787 18.3986 56.9531 18.1301C57.1276 17.8629 57.2843 17.5885 57.4243 17.3082C57.5406 17.1218 57.6285 16.889 57.6866 16.6087C57.7448 16.3296 57.6688 16.1193 57.4599 15.9792C57.2724 15.8628 57.0695 15.8509 56.8475 15.9448C56.6267 16.0386 56.4226 16.1193 56.2362 16.1894C55.4446 16.5386 54.7396 17.0458 54.1224 17.7109C53.5052 18.3748 52.9284 19.0221 52.3931 19.6516C52.1604 19.9081 51.9504 20.1706 51.764 20.4378C51.5777 20.7063 51.3913 20.9794 51.205 21.2597C50.3896 22.5187 49.5683 23.7717 48.741 25.0188C47.9137 26.2659 47.0936 27.5189 46.2782 28.7767C46.2307 28.8931 46.1559 29.0451 46.0515 29.2316C45.9458 29.4181 45.8473 29.5582 45.7536 29.6509C45.6373 29.7435 45.4509 29.7732 45.1945 29.7388C44.9382 29.7043 44.753 29.6984 44.6355 29.7209C43.9602 29.7209 43.4534 29.7209 43.1163 29.7209C42.7792 29.7209 42.5691 29.6687 42.4872 29.5642C42.4053 29.4596 42.4338 29.2672 42.5739 28.9869C42.7139 28.7066 42.9466 28.2874 43.273 27.728C44.321 26.0735 45.3524 24.4297 46.3648 22.7978C47.3784 21.1671 48.3849 19.5114 49.3878 17.8332C49.5042 17.623 49.6264 17.4139 49.7546 17.2037C49.8852 16.9876 50.0074 16.7655 50.1237 16.5327Z" fill="#505050"/>
<path d="M73.6029 14.5041H77.0972C76.1191 16.2298 75.1637 17.9543 74.232 19.6789C73.3003 21.4046 72.3104 23.0829 71.2624 24.7136C71.1686 24.8537 71.0226 25.1328 70.8256 25.5521C70.6274 25.9714 70.4754 26.3906 70.371 26.8111C70.2666 27.2303 70.2547 27.5807 70.3366 27.8598C70.4185 28.1389 70.6915 28.209 71.1567 28.07C71.8095 27.6971 72.3852 27.2434 72.886 26.7065C73.3869 26.1709 73.8522 25.5937 74.283 24.9761C74.7139 24.3585 75.14 23.7408 75.5589 23.1232C75.9779 22.5056 76.4325 21.9296 76.9215 21.3928C77.1078 21.2063 77.2586 21.1362 77.3761 21.1825C77.4924 21.23 77.5731 21.2764 77.6206 21.3227C77.6206 21.3464 77.5624 21.451 77.4461 21.6374C76.817 22.3833 76.2224 23.1874 75.6634 24.0497C75.1043 24.9119 74.505 25.7398 73.864 26.532C73.2231 27.3242 72.5193 28.0237 71.7502 28.6294C70.9811 29.2364 70.085 29.6556 69.0595 29.8884C68.523 29.911 68.1278 29.7946 67.8714 29.5392C67.615 29.2827 67.4405 28.9572 67.348 28.5606C67.2542 28.165 67.2127 27.7446 67.2257 27.3016C67.2376 26.8586 67.2661 26.4512 67.3136 26.0783C67.0572 26.3585 66.7249 26.7018 66.3177 27.1092C65.9095 27.5177 65.462 27.9311 64.973 28.3503C64.4828 28.7696 63.9772 29.1485 63.4526 29.487C62.928 29.8243 62.4164 30.0464 61.9155 30.1509C61.4135 30.2554 60.9482 30.2091 60.5174 30.0107C60.0865 29.8124 59.7316 29.3872 59.4515 28.7351C59.1726 28.0831 59.0444 27.4239 59.067 26.76C59.0907 26.0961 59.207 25.4369 59.4171 24.7848C59.626 24.1328 59.9002 23.5033 60.2373 22.8964C60.5755 22.2907 60.9185 21.7194 61.2687 21.1837C62.0378 20.0186 62.928 18.958 63.9416 18.0019C64.9552 17.0469 66.0661 16.231 67.2779 15.5552C67.6969 15.3224 68.18 15.0955 68.7271 14.8734C69.2743 14.6525 69.8108 14.5183 70.3342 14.472C70.8576 14.4257 71.3419 14.5064 71.7834 14.7167C72.2261 14.9269 72.5632 15.3461 72.797 15.9756C72.9371 15.7191 73.0771 15.4744 73.216 15.2416C73.3584 15.0065 73.4854 14.7618 73.6029 14.5041ZM68.9906 22.4759C69.0607 22.3358 69.2292 22.0686 69.4974 21.6719C69.7645 21.2764 70.0505 20.8215 70.3532 20.3084C70.6559 19.7965 70.9407 19.2478 71.2101 18.6658C71.4772 18.0838 71.6635 17.547 71.7692 17.0576C71.8736 16.5683 71.8677 16.1609 71.7514 15.8343C71.635 15.5077 71.3205 15.3224 70.8078 15.2749C70.4351 15.345 70.0683 15.491 69.7075 15.712C69.3455 15.9341 68.9906 16.2013 68.6417 16.516C68.2916 16.8308 67.9652 17.1574 67.6625 17.4947C67.3598 17.8332 67.069 18.1539 66.7889 18.4567C66.2299 19.2026 65.6828 19.9723 65.1475 20.7645C64.611 21.5567 64.1113 22.3607 63.6448 23.1767C63.5048 23.4332 63.3303 23.7539 63.1202 24.1387C62.9113 24.5235 62.7238 24.925 62.5612 25.3442C62.3974 25.7635 62.287 26.178 62.2301 26.5854C62.1719 26.994 62.2348 27.3491 62.4212 27.652C62.5849 27.9548 62.7998 28.1294 63.068 28.1769C63.3363 28.2244 63.6092 28.2007 63.8893 28.1069C64.1683 28.0142 64.4424 27.88 64.7107 27.7042C64.9777 27.5296 65.1937 27.361 65.3564 27.1971C66.078 26.5213 66.7427 25.7873 67.348 24.9939C67.9533 24.2017 68.5016 23.362 68.9906 22.4759Z" fill="#505050"/>
<path d="M9.41551 40.0884C9.64458 40.6371 9.87009 41.2132 10.0932 41.813C10.3164 42.4139 10.479 43.0173 10.5822 43.6242C10.6855 44.2311 10.7045 44.8369 10.6428 45.4438C10.5799 46.0507 10.3828 46.6339 10.0517 47.1945C9.85703 47.5721 9.60778 47.9011 9.30513 48.1814C9.00247 48.4617 8.67251 48.7159 8.31881 48.9451C7.96393 49.1744 7.57463 49.3775 7.15209 49.5544C6.72956 49.7314 6.28803 49.8692 5.83108 49.9666C5.37412 50.064 4.91598 50.1067 4.45902 50.0948C4.00207 50.083 3.56766 50.0034 3.15581 49.8549C2.81279 49.729 2.48521 49.5521 2.17543 49.3228C1.86446 49.0936 1.61047 48.8192 1.41344 48.4986C1.20455 48.1446 1.06924 47.7598 1.00515 47.3489C0.942243 46.9367 0.920879 46.5305 0.944617 46.1303C0.956486 45.7419 1.02889 45.3583 1.16182 44.9806C1.29594 44.6029 1.46923 44.243 1.68405 43.8998C1.89888 43.5565 2.14338 43.2358 2.41874 42.9389C2.6941 42.642 2.98015 42.3724 3.27806 42.1325C3.51781 41.9377 3.82166 41.7548 4.18722 41.5837C4.55279 41.4127 4.92785 41.2951 5.31121 41.2322C5.69458 41.1692 6.06252 41.1835 6.4174 41.2749C6.7711 41.3664 7.05714 41.5837 7.27553 41.927C7.38947 42.1099 7.47018 42.3071 7.51528 42.5197C7.56039 42.7311 7.58056 42.9484 7.57582 43.1717C7.56988 43.395 7.54377 43.6159 7.49867 43.8321C7.45238 44.0494 7.39541 44.2501 7.32775 44.433C7.22449 44.7418 7.09868 44.9794 6.95032 45.1457C6.80196 45.3119 6.62986 45.4687 6.43521 45.6172C6.3545 45.6742 6.30702 45.6884 6.28922 45.6599C6.2726 45.6314 6.26667 45.5851 6.2726 45.5222C6.27854 45.4592 6.29515 45.3903 6.32364 45.3167C6.35212 45.2419 6.37824 45.1872 6.40079 45.154C6.49218 44.9936 6.54084 44.8618 6.54677 44.7597C6.55271 44.6563 6.58357 44.5138 6.64054 44.3309C6.72006 44.0102 6.70938 43.6729 6.60612 43.3178C6.50286 42.9639 6.34856 42.6717 6.14323 42.4424C5.87974 42.1562 5.56877 41.9876 5.20795 41.9365C4.84832 41.8854 4.49582 41.9389 4.1528 42.0992C3.82047 42.2714 3.53205 42.5137 3.28637 42.8285C3.04068 43.1432 2.83772 43.4603 2.67749 43.781C2.49471 44.1136 2.3594 44.4711 2.27394 44.8535C2.1873 45.2371 2.15644 45.6231 2.18018 46.0127C2.20273 46.3904 2.26801 46.7657 2.3772 47.1375C2.48521 47.5092 2.63951 47.8501 2.84009 48.1589C3.04068 48.4677 3.28874 48.7337 3.58665 48.957C3.88338 49.1803 4.23826 49.3323 4.65011 49.4119C5.01568 49.4927 5.40735 49.501 5.82514 49.438C6.24174 49.3751 6.6168 49.2575 6.94913 49.0865C7.3147 48.8917 7.62685 48.6316 7.88441 48.305C8.14197 47.9783 8.36154 47.6387 8.54432 47.2835C8.73897 46.9296 8.86716 46.5543 8.93007 46.1588C8.99297 45.7645 9.00721 45.369 8.97279 44.9746C8.93837 44.5803 8.85885 44.1884 8.73304 43.7988C8.60723 43.4104 8.45293 43.0434 8.27015 42.7002C7.99598 42.1515 7.79539 41.5671 7.66958 40.9495C7.54377 40.3319 7.51766 39.725 7.59243 39.1299C7.66721 38.5349 7.85236 37.9743 8.15027 37.4482C8.447 36.922 8.88259 36.4754 9.45349 36.1096C9.73953 35.8923 10.0707 35.7177 10.4481 35.5858C10.8255 35.454 11.2053 35.3887 11.5887 35.3887C11.9721 35.3887 12.3317 35.4659 12.67 35.6203C13.0071 35.7747 13.2907 36.0241 13.5186 36.3673C13.7358 36.6999 13.8557 37.0764 13.8782 37.5004C13.9008 37.9244 13.8438 38.3354 13.7073 38.7368C13.5696 39.1371 13.3608 39.4946 13.0806 39.8093C12.8005 40.1241 12.4658 40.339 12.0777 40.453C11.8831 40.5101 11.7489 40.5338 11.6742 40.5219C11.5994 40.5101 11.5626 40.4816 11.5626 40.4364C11.5626 40.3913 11.5852 40.339 11.6314 40.282C11.6765 40.225 11.7288 40.1787 11.7857 40.1442C11.9341 40.0302 12.0635 39.8841 12.1715 39.706C12.2795 39.529 12.3804 39.3651 12.4718 39.2166C12.6546 38.8853 12.7483 38.5076 12.7543 38.0836C12.7602 37.6608 12.6854 37.2712 12.5311 36.9161C12.3768 36.5609 12.1454 36.2866 11.8368 36.0918C11.5282 35.897 11.1508 35.8578 10.7045 35.9718C10.327 36.1547 10.0244 36.4042 9.79531 36.7189C9.56624 37.0336 9.40126 37.3793 9.298 37.757C9.19474 38.1346 9.15439 38.5266 9.17813 38.9328C9.1983 39.3366 9.27783 39.7226 9.41551 40.0884Z" fill="#505050"/>
<path d="M17.649 42.4223H19.3641C18.8834 43.2691 18.4146 44.1159 17.9576 44.9628C17.4995 45.8096 17.014 46.6339 16.5001 47.4344C16.4538 47.5033 16.3826 47.6399 16.2853 47.8465C16.1879 48.0532 16.1144 48.2587 16.0621 48.4641C16.0099 48.6696 16.0052 48.8418 16.0443 48.9796C16.0847 49.1174 16.2188 49.1506 16.4479 49.0829C16.7683 48.9 17.0508 48.6767 17.2965 48.4131C17.5422 48.1494 17.7713 47.8667 17.9825 47.5638C18.1938 47.261 18.4027 46.9569 18.6092 46.6541C18.8146 46.3512 19.0377 46.0673 19.2786 45.8049C19.37 45.7134 19.4448 45.679 19.5018 45.7015C19.5587 45.7253 19.5991 45.7478 19.6216 45.7704C19.6216 45.7823 19.5932 45.8334 19.5362 45.9248C19.2276 46.2906 18.9356 46.6861 18.6614 47.109C18.3873 47.5318 18.0929 47.9392 17.7784 48.3275C17.4639 48.7171 17.1185 49.0604 16.741 49.3573C16.3636 49.6554 15.9233 49.8609 15.42 49.9749C15.1565 49.9868 14.9619 49.9286 14.8373 49.8039C14.7114 49.678 14.626 49.5176 14.5797 49.3228C14.5334 49.1281 14.5132 48.9226 14.5192 48.7052C14.5251 48.4879 14.5393 48.2872 14.5619 48.1043C14.4361 48.242 14.2735 48.4107 14.0729 48.6102C13.8723 48.8109 13.6527 49.014 13.413 49.2195C13.1732 49.425 12.924 49.6114 12.6664 49.7777C12.4089 49.944 12.1572 50.0521 11.9116 50.1043C11.6659 50.1554 11.4368 50.1329 11.2255 50.0355C11.0143 49.9381 10.8398 49.729 10.7021 49.4084C10.5644 49.0877 10.5027 48.7646 10.5134 48.438C10.5253 48.1114 10.5822 47.7883 10.6843 47.4688C10.7876 47.1481 10.9217 46.8393 11.0878 46.5424C11.254 46.2455 11.4226 45.9652 11.5935 45.7015C11.9709 45.129 12.4089 44.6088 12.9062 44.1397C13.4035 43.6705 13.9495 43.2703 14.5441 42.9377C14.7506 42.8237 14.9868 42.7121 15.2562 42.6028C15.5245 42.4947 15.788 42.4282 16.0455 42.4056C16.3031 42.3831 16.5405 42.4235 16.7577 42.5256C16.9749 42.6289 17.141 42.8344 17.255 43.1432C17.3238 43.0173 17.3926 42.8974 17.4603 42.7833C17.5291 42.6693 17.592 42.5482 17.649 42.4223ZM15.3856 46.3369C15.42 46.2681 15.5031 46.1374 15.6349 45.9426C15.7666 45.7478 15.9067 45.5257 16.055 45.2728C16.2034 45.021 16.3434 44.7525 16.4752 44.4663C16.6069 44.1801 16.6983 43.9176 16.7493 43.6765C16.8004 43.4354 16.798 43.2358 16.741 43.0755C16.6841 42.9152 16.5298 42.8237 16.2782 42.8011C16.0954 42.8356 15.915 42.9069 15.7381 43.0161C15.5601 43.1254 15.3868 43.256 15.2147 43.4104C15.0438 43.5648 14.8824 43.7252 14.734 43.8915C14.5856 44.0577 14.442 44.2145 14.3055 44.363C14.0314 44.7288 13.7619 45.1065 13.4996 45.4961C13.2361 45.8856 12.9904 46.2799 12.7614 46.6802C12.6925 46.8061 12.6071 46.9629 12.5038 47.1517C12.4006 47.3406 12.3092 47.5377 12.2296 47.7444C12.1489 47.9498 12.0955 48.1541 12.067 48.3537C12.0386 48.5544 12.0694 48.729 12.1608 48.8774C12.2403 49.0259 12.3471 49.1126 12.4777 49.1352C12.6094 49.1577 12.7436 49.1471 12.8812 49.1007C13.0189 49.0556 13.153 48.9891 13.2848 48.9036C13.4165 48.8181 13.5222 48.7349 13.6017 48.6542C13.9554 48.3228 14.2818 47.9617 14.5797 47.5733C14.8764 47.1838 15.1447 46.7716 15.3856 46.3369Z" fill="#505050"/>
<path d="M25.9003 37.5824C25.4422 38.4292 24.9686 39.2701 24.476 40.1062C23.9847 40.9412 23.4897 41.7833 22.9924 42.6301C22.4951 43.477 22.0002 44.3262 21.5088 45.1789C21.0174 46.0317 20.5486 46.8987 20.1023 47.78C20.0454 47.8715 19.9765 48.0033 19.897 48.1743C19.8163 48.3454 19.7878 48.5069 19.8115 48.6553C19.8115 48.7587 19.8626 48.8359 19.9658 48.8869C20.0691 48.938 20.2115 48.9238 20.3943 48.8442C20.7029 48.6613 20.9866 48.4439 21.2429 48.1921C21.5005 47.9403 21.7402 47.6743 21.9634 47.394C22.1865 47.1137 22.3954 46.8191 22.5901 46.5103C22.7847 46.2015 22.9734 45.8987 23.1562 45.6006C23.1788 45.5436 23.2334 45.4521 23.3188 45.3262C23.4043 45.2003 23.4874 45.1374 23.5681 45.1374C23.625 45.1374 23.6595 45.1635 23.6713 45.2146C23.682 45.2656 23.682 45.3238 23.6713 45.3856C23.6595 45.4485 23.6393 45.5091 23.6108 45.5661C23.5823 45.6231 23.5621 45.6635 23.5503 45.6861C23.2524 46.0756 22.958 46.4961 22.6672 46.9474C22.3752 47.3999 22.0583 47.8311 21.7153 48.2432C21.3723 48.6553 20.9949 49.0152 20.583 49.3252C20.1712 49.634 19.7083 49.8407 19.1932 49.9428C18.7813 49.9654 18.5012 49.8656 18.3528 49.6423C18.2045 49.419 18.1297 49.1471 18.1297 48.8264C18.1297 48.5057 18.1807 48.1767 18.284 47.8394C18.3873 47.5021 18.4893 47.2301 18.5926 47.0246C18.9356 46.3156 19.3154 45.6291 19.7332 44.9651C20.151 44.3012 20.5593 43.6266 20.9593 42.9401C21.44 42.1396 21.9135 41.3415 22.3835 40.5457C22.8524 39.7499 23.3212 38.947 23.79 38.1335C23.8351 38.0539 23.8731 37.9767 23.9016 37.9019C23.9301 37.827 23.9502 37.7498 23.9621 37.6703C23.9621 37.6133 23.9621 37.5384 23.9621 37.447C23.9621 37.3555 23.9681 37.2819 23.9787 37.2237C24.0238 37.213 24.1307 37.1952 24.2956 37.1726C24.4618 37.15 24.6446 37.1275 24.844 37.1037C25.0446 37.0812 25.2321 37.0586 25.4101 37.0348C25.587 37.0123 25.7164 37.0004 25.7959 37.0004C25.8873 37.0348 25.93 37.1263 25.9252 37.2748C25.9193 37.422 25.911 37.5254 25.9003 37.5824Z" fill="#505050"/>
<path d="M22.8298 48.5164C22.8642 48.78 22.9556 48.9546 23.104 49.0402C23.2524 49.1257 23.4268 49.1577 23.6274 49.134C23.8268 49.1114 24.031 49.0544 24.2363 48.963C24.4416 48.8715 24.6137 48.78 24.7514 48.6886C25.0719 48.4938 25.3947 48.2396 25.7211 47.9249C26.0475 47.6102 26.3525 47.2895 26.6386 46.964C26.9246 46.6374 27.1822 46.3322 27.4101 46.046C27.6391 45.7597 27.8219 45.5424 27.9584 45.3939C28.0379 45.3024 28.0925 45.2823 28.121 45.3333C28.1495 45.3844 28.1519 45.4569 28.1293 45.5483C28.0723 45.7205 27.9584 45.9296 27.7863 46.1754C27.6142 46.4213 27.4089 46.6814 27.1691 46.9569C26.9294 47.2325 26.6682 47.5116 26.3893 47.7978C26.1092 48.0841 25.8315 48.3465 25.5573 48.5876C25.2831 48.8276 25.028 49.0402 24.7941 49.2231C24.5591 49.406 24.368 49.5378 24.2197 49.6174C24.0025 49.7433 23.7532 49.843 23.4731 49.9179C23.193 49.9927 22.9188 50.0236 22.6494 50.0117C22.38 49.9998 22.1284 49.9309 21.8945 49.8062C21.6595 49.6803 21.4744 49.4796 21.3367 49.2052C21.2228 48.9653 21.1622 48.7076 21.1563 48.4332C21.1504 48.1589 21.18 47.8845 21.2417 47.609C21.3047 47.3346 21.3901 47.0686 21.4993 46.8108C21.6085 46.5531 21.7248 46.3108 21.8506 46.0816C22.1818 45.4414 22.5889 44.8689 23.0684 44.3653C23.5491 43.8618 24.0974 43.4271 24.7146 43.0613C25.0113 42.8665 25.3235 42.7061 25.6499 42.5802C25.9763 42.4543 26.3098 42.3629 26.6528 42.3059C26.87 42.2607 27.105 42.2489 27.3566 42.2714C27.6083 42.294 27.797 42.4151 27.9228 42.6313C28.0261 42.7916 28.0712 42.9603 28.0605 43.1373C28.0486 43.3142 28.0094 43.4888 27.9406 43.661C27.8718 43.8321 27.7827 43.9936 27.6747 44.1421C27.5655 44.2905 27.454 44.4224 27.34 44.5364C27.0659 44.8345 26.7537 45.091 26.4048 45.3084C26.0558 45.5257 25.7045 45.7146 25.3496 45.8749C25.155 45.9557 24.9639 46.0269 24.7751 46.0899C24.5864 46.1528 24.3894 46.2134 24.1829 46.2704C24.0689 46.293 23.9313 46.3108 23.771 46.3215C23.6108 46.3334 23.4909 46.3844 23.4114 46.4759C23.32 46.5674 23.2488 46.7051 23.1966 46.888C23.1455 47.0709 23.0909 47.2253 23.034 47.3512C22.9533 47.5341 22.8939 47.7266 22.8536 47.9261C22.8144 48.1244 22.8061 48.3216 22.8298 48.5164ZM23.6701 45.9414C24.0701 45.9189 24.4333 45.793 24.7597 45.5637C25.0861 45.3345 25.3971 45.0887 25.695 44.825C25.8434 44.6991 25.9834 44.5649 26.1152 44.4212C26.2469 44.2786 26.3644 44.1266 26.4665 43.9663C26.5353 43.8404 26.6148 43.6824 26.7062 43.4948C26.7976 43.3059 26.838 43.1373 26.8261 42.9888C26.8142 42.8629 26.7751 42.7893 26.7062 42.7655C26.6374 42.7429 26.5519 42.7513 26.4487 42.7916C26.3454 42.832 26.2338 42.895 26.114 42.9805C25.9941 43.066 25.8825 43.1551 25.7793 43.2465C25.676 43.338 25.5846 43.4271 25.5051 43.5126C25.4244 43.5981 25.3733 43.6527 25.3508 43.6753C25.0185 44.0185 24.7194 44.382 24.4499 44.7656C24.1817 45.1492 23.9218 45.5412 23.6701 45.9414ZM26.1223 41.1182C26.4534 40.8212 26.8024 40.5576 27.1691 40.3283C27.5347 40.0991 27.8896 39.8426 28.2326 39.5563C28.324 39.4768 28.4189 39.3912 28.5151 39.2986C28.6124 39.2071 28.7097 39.1264 28.807 39.0587C28.9044 38.9898 29.0064 38.9447 29.1156 38.9209C29.2236 38.8983 29.3305 38.915 29.4325 38.972C29.6391 39.086 29.7186 39.2119 29.6723 39.3497C29.626 39.4874 29.5631 39.6133 29.4836 39.7274C29.4147 39.8188 29.283 39.9305 29.0895 40.0623C28.8949 40.1941 28.6694 40.3319 28.4118 40.4744C28.1542 40.6181 27.886 40.7547 27.6059 40.8866C27.3258 41.0184 27.0718 41.1241 26.8427 41.2037L26.3454 41.3747C26.2421 41.3973 26.1709 41.3806 26.1306 41.3236C26.0914 41.2666 26.089 41.1989 26.1223 41.1182Z" fill="#505050"/>
<path d="M31.8859 42.389C31.874 42.4804 31.8455 42.5695 31.8004 42.655C31.7541 42.7406 31.7031 42.8296 31.6461 42.9211L31.4752 43.1788C31.3838 43.4425 31.3067 43.7311 31.2438 44.0458C31.1809 44.3606 31.1203 44.6611 31.0633 44.9473V44.9307C30.9601 45.4117 30.8521 45.8868 30.7369 46.3559C30.623 46.8251 30.4675 47.2716 30.2741 47.6945C30.0794 48.1173 29.8302 48.5045 29.5275 48.8537C29.2248 49.2029 28.8332 49.4855 28.3525 49.7029C28.1578 49.7943 27.9525 49.8656 27.7353 49.9179C27.5181 49.9689 27.2949 49.9951 27.0659 49.9951C26.768 49.9951 26.4938 49.944 26.2422 49.8407C26.0701 49.7611 25.93 49.6459 25.822 49.4974C25.714 49.3489 25.6594 49.1945 25.6594 49.0342C25.6594 48.9309 25.682 48.8287 25.7282 48.7254C25.7745 48.6221 25.8481 48.5247 25.9514 48.4332C26.0202 48.3762 26.1259 48.3192 26.2683 48.2622C26.4119 48.2052 26.5341 48.2052 26.6374 48.2622C26.7062 48.3085 26.7407 48.3738 26.7407 48.4594C26.7407 48.5449 26.7288 48.6339 26.7062 48.7254C26.6944 48.7598 26.6896 48.8109 26.6896 48.8798C26.6896 49.0057 26.7264 49.1375 26.8012 49.2741C26.876 49.4119 26.9757 49.4689 27.1015 49.4463C27.1929 49.4463 27.2902 49.4119 27.3935 49.343C27.4967 49.2741 27.5964 49.1945 27.6937 49.1031C27.7911 49.0116 27.8801 48.9202 27.9596 48.8287C28.0391 48.7373 28.102 48.6636 28.1483 48.6054C28.5483 47.8845 28.8652 47.1184 29.1002 46.3049C29.334 45.4925 29.5322 44.692 29.6925 43.9021C29.4978 44.1195 29.315 44.3345 29.1441 44.5459C28.972 44.7573 28.7952 44.9782 28.6124 45.2062C27.9952 45.9735 27.3662 46.7312 26.7252 47.4807C26.0843 48.2301 25.3876 48.9249 24.6327 49.5663C24.5413 49.6352 24.4464 49.7005 24.3503 49.7635C24.2529 49.8264 24.1473 49.8692 24.0334 49.8917C23.9075 49.9262 23.8138 49.906 23.7509 49.8312C23.688 49.7563 23.6737 49.6459 23.7081 49.4962C23.7426 49.3822 23.8055 49.2931 23.8969 49.2302C23.9882 49.1672 24.0856 49.1126 24.1888 49.0675L24.3776 48.9475C24.812 48.6731 25.2321 48.3525 25.638 47.9866C26.044 47.6208 26.4297 47.2313 26.7964 46.8191C27.162 46.407 27.5169 45.9866 27.8599 45.5578C28.2029 45.129 28.5293 44.7086 28.8379 44.2965C29.0326 44.0328 29.2237 43.7786 29.4124 43.5328C29.6011 43.2869 29.7922 43.0494 29.9868 42.8201C30.0782 42.6942 30.1815 42.5968 30.2954 42.528C30.4094 42.4591 30.5292 42.4104 30.6551 42.3819C30.7809 42.3534 30.915 42.3391 31.0586 42.3391C31.201 42.3391 31.347 42.3451 31.4966 42.3569V42.3391C31.5535 42.3391 31.6141 42.3415 31.677 42.3474C31.7399 42.3534 31.7992 42.3557 31.8574 42.3557L31.8859 42.389Z" fill="#505050"/>
<path d="M48.5416 41.4792C48.6674 41.845 48.684 42.2322 48.5926 42.6384C48.5012 43.0446 48.3066 43.3855 48.0099 43.6598C47.8378 43.8309 47.6443 43.952 47.4271 44.0197C47.2099 44.0886 46.9749 44.1337 46.7233 44.1575C46.677 44.1575 46.6176 44.1575 46.5428 44.1575C46.4681 44.1575 46.3909 44.1575 46.3114 44.1575C46.2307 44.1575 46.1571 44.1634 46.0883 44.1753C46.0194 44.1872 45.9684 44.2098 45.934 44.2442C45.8651 44.3131 45.8485 44.4152 45.8829 44.553C45.9173 44.6908 45.9399 44.8048 45.9518 44.8962C45.9743 45.4117 45.8663 45.9034 45.6254 46.3726C45.3856 46.8417 45.0996 47.2657 44.7672 47.6422C44.5726 47.8477 44.4693 48.0318 44.4587 48.1909C44.4468 48.3513 44.4871 48.5568 44.5785 48.8085C44.6236 48.957 44.6616 49.0865 44.6901 49.1945C44.7186 49.3038 44.7245 49.3976 44.7067 49.4784C44.6901 49.558 44.6379 49.6245 44.5524 49.6756C44.467 49.7266 44.3376 49.7646 44.1667 49.7872C44.0634 49.7991 43.9174 49.8133 43.7287 49.83C43.54 49.8478 43.3881 49.8442 43.2741 49.8217C43.1827 49.7991 43.1258 49.7587 43.1032 49.7017C43.0807 49.6447 43.0522 49.5758 43.0178 49.4962C42.9608 49.4048 42.9181 49.3501 42.8896 49.3335C42.8611 49.3157 42.7839 49.3311 42.6581 49.3763C42.5549 49.4107 42.4552 49.4594 42.3578 49.5224C42.2605 49.5853 42.1608 49.6399 42.0576 49.6851C41.5769 49.9143 41.0974 50.083 40.6167 50.191C40.136 50.2991 39.6327 50.3431 39.1069 50.3193C38.6381 50.2967 38.2096 50.1934 37.8203 50.0105C37.431 49.8276 37.1058 49.5841 36.8423 49.2813C36.5788 48.9784 36.3877 48.6233 36.2679 48.2171C36.148 47.8109 36.1159 47.3679 36.1741 46.8868C36.2311 46.4058 36.3711 45.9426 36.5943 45.496C36.8174 45.0495 37.094 44.6433 37.4263 44.2775C37.7349 43.9116 38.0696 43.591 38.4292 43.3166C38.7888 43.0422 39.1698 42.7679 39.5698 42.4923C39.7989 42.3439 40.0244 42.1954 40.2475 42.0458C40.4707 41.8973 40.7021 41.7536 40.9419 41.617C41.0677 41.5481 41.1484 41.4911 41.1816 41.446C41.216 41.4008 41.2327 41.3141 41.2327 41.1882C41.2208 41.0623 41.2066 40.9341 41.1899 40.8022C41.1721 40.6704 41.1579 40.5421 41.1472 40.4162C41.1009 39.9352 41.1152 39.4494 41.1899 38.9577C41.2647 38.466 41.4154 38.0028 41.6445 37.5669C41.8392 37.2011 42.0872 36.8685 42.3911 36.5716C42.6937 36.2747 43.0284 36.0336 43.394 35.8507C43.5887 35.7711 43.8023 35.7046 44.0373 35.6535C44.2711 35.6025 44.5061 35.5823 44.7399 35.593C44.9738 35.6048 45.2005 35.65 45.4177 35.7307C45.6349 35.8115 45.8236 35.9362 45.9838 36.1084C46.1322 36.2688 46.2271 36.4434 46.2663 36.6322C46.3067 36.821 46.315 37.0158 46.2924 37.2154C46.2699 37.4161 46.2176 37.6132 46.1381 37.808C46.0574 38.0028 45.966 38.1857 45.8639 38.3567C45.6242 38.7226 45.3346 39.0515 44.9975 39.3437C44.6604 39.6359 44.3138 39.9019 43.9602 40.1419C43.8794 40.1882 43.7857 40.2393 43.6765 40.2963C43.5673 40.3533 43.4617 40.4162 43.3596 40.4851C43.2563 40.554 43.1649 40.6288 43.0854 40.7084C43.0047 40.7892 42.9477 40.8806 42.9133 40.9828C42.8563 41.1775 42.8647 41.4115 42.9394 41.6871C43.0142 41.9614 43.0735 42.1966 43.1198 42.3914C43.1424 42.5292 43.1602 42.6717 43.1709 42.8201C43.1816 42.9686 43.216 43.1064 43.2741 43.2323C43.2967 43.2893 43.3085 43.338 43.3085 43.3784C43.3085 43.4187 43.3109 43.4413 43.3169 43.4472C43.3228 43.4532 43.3453 43.4389 43.3857 43.4045C43.4261 43.37 43.4973 43.319 43.6005 43.2501C43.7952 43.1242 43.9803 43.0102 44.1584 42.9068C44.3352 42.8035 44.5382 42.7239 44.7672 42.6669C44.9963 42.6099 45.2242 42.5778 45.4533 42.5719C45.6823 42.566 45.9102 42.5695 46.1393 42.5802C46.3684 42.5921 46.5963 42.5945 46.8253 42.5885C47.0544 42.5826 47.2763 42.5517 47.4947 42.4935C47.7582 42.4365 47.9327 42.3451 48.0182 42.2192C48.1036 42.0933 48.1297 41.8985 48.0953 41.636C48.0953 41.5671 48.087 41.4982 48.0692 41.4293C48.0526 41.3604 48.0716 41.3034 48.1297 41.2583C48.2437 41.1669 48.3351 41.1609 48.4039 41.2417C48.4739 41.3189 48.519 41.3985 48.5416 41.4792ZM42.5216 48.8085C42.6937 48.6945 42.7555 48.5544 42.7104 48.3881C42.6641 48.223 42.6249 48.0591 42.5905 47.8988C42.5335 47.704 42.4848 47.5009 42.4445 47.2895C42.4041 47.0781 42.3614 46.869 42.3163 46.6636C42.2249 46.274 42.1335 45.888 42.0421 45.5044C41.9507 45.1207 41.8534 44.7347 41.7502 44.3452C41.7157 44.1622 41.6813 43.9817 41.6469 43.8047C41.6125 43.6278 41.5781 43.4413 41.5436 43.2465C41.5199 43.1206 41.5033 42.9543 41.4926 42.7489C41.4807 42.5434 41.4416 42.389 41.3727 42.2857C41.3157 42.2061 41.2327 42.1823 41.1235 42.2168C41.0143 42.2512 40.9027 42.3082 40.7888 42.389C40.6748 42.4698 40.5633 42.5577 40.4541 42.655C40.3449 42.7524 40.2677 42.8178 40.2226 42.8522C39.7882 43.3107 39.4048 43.7679 39.0737 44.2252C38.7414 44.6825 38.4909 45.2039 38.3188 45.787C38.2274 46.0507 38.161 46.3393 38.1218 46.654C38.0814 46.9688 38.0791 47.2752 38.1135 47.5721C38.1479 47.8703 38.231 48.1506 38.3627 48.413C38.4945 48.6767 38.6915 48.8941 38.955 49.0651C39.2292 49.2373 39.5212 49.3478 39.8298 49.4C40.1383 49.4511 40.4505 49.4606 40.765 49.4262C41.0796 49.3917 41.3881 49.3204 41.6908 49.2112C41.9923 49.1031 42.27 48.9689 42.5216 48.8085ZM42.7614 39.934C42.7733 40.0599 42.8124 40.1169 42.8813 40.105C42.9501 40.0944 43.0296 40.054 43.121 39.9851C43.2124 39.9162 43.3014 39.8366 43.3869 39.7452C43.4723 39.6537 43.5329 39.5908 43.5673 39.5563C43.7382 39.396 43.8961 39.225 44.0385 39.0409C44.1809 38.858 44.3044 38.6632 44.4076 38.4577C44.4871 38.3199 44.5702 38.1548 44.6569 37.96C44.7423 37.7653 44.8052 37.5681 44.8456 37.3674C44.8859 37.1679 44.8966 36.9731 44.88 36.7842C44.8622 36.5954 44.791 36.4327 44.6652 36.2949C44.5049 36.1239 44.3388 36.0431 44.1679 36.055C43.9958 36.0668 43.8308 36.1298 43.6706 36.2438C43.5103 36.3578 43.3679 36.5015 43.2421 36.6726C43.1163 36.8448 43.0249 37.0051 42.9679 37.1536C42.8646 37.3484 42.7934 37.5598 42.7531 37.789C42.7127 38.0182 42.6878 38.2558 42.6759 38.5016C42.6641 38.7475 42.67 38.9934 42.6937 39.2392C42.7151 39.4851 42.7388 39.7167 42.7614 39.934ZM44.2877 46.6802C44.448 46.4284 44.5453 46.1457 44.5797 45.831C44.6141 45.5162 44.6141 45.2217 44.5797 44.9473C44.5678 44.8677 44.537 44.7727 44.486 44.6646C44.4349 44.5566 44.3684 44.4556 44.2889 44.3642C44.2082 44.2727 44.1204 44.2014 44.0231 44.1492C43.9257 44.0981 43.8201 44.0839 43.7062 44.1064C43.6029 44.1409 43.5459 44.2204 43.5352 44.3463C43.5234 44.4722 43.5352 44.6124 43.5697 44.7668C43.6041 44.9212 43.6444 45.0732 43.6895 45.2217C43.7346 45.3701 43.7691 45.4794 43.7928 45.5483C43.8723 45.8464 43.9412 46.1552 43.9981 46.4759C44.0207 46.5673 44.0527 46.6564 44.0931 46.7419C44.1311 46.8263 44.1963 46.8061 44.2877 46.6802Z" fill="#505050"/>
<path d="M61.4408 40.0884C61.6699 40.6371 61.8954 41.2132 62.1185 41.813C62.3416 42.4139 62.5042 43.0173 62.6075 43.6242C62.7108 44.2311 62.7309 44.8369 62.668 45.4438C62.6051 46.0507 62.4081 46.6339 62.0758 47.1945C61.8811 47.5721 61.6319 47.9011 61.3292 48.1814C61.0266 48.4617 60.6978 48.7159 60.3429 48.9451C59.988 49.1744 59.5999 49.3775 59.1762 49.5544C58.7525 49.7314 58.3121 49.8692 57.8552 49.9666C57.3982 50.064 56.9401 50.1067 56.4831 50.0948C56.025 50.083 55.5906 50.0034 55.1799 49.8549C54.8369 49.729 54.5093 49.5521 54.1995 49.3228C53.8886 49.0936 53.6346 48.8192 53.4375 48.4986C53.2286 48.1446 53.0933 47.7598 53.0292 47.3489C52.9651 46.9367 52.945 46.5305 52.9675 46.1303C52.9794 45.7419 53.0518 45.3583 53.1847 44.9806C53.3188 44.6029 53.4921 44.243 53.707 43.8998C53.9218 43.5565 54.1663 43.2358 54.4416 42.9389C54.717 42.642 55.0031 42.3724 55.301 42.1325C55.5407 41.9377 55.8446 41.7548 56.2101 41.5837C56.5757 41.4127 56.9508 41.2951 57.3341 41.2322C57.7175 41.1692 58.0854 41.1835 58.4403 41.2749C58.794 41.3664 59.0812 41.5837 59.2984 41.927C59.4124 42.1099 59.4931 42.3071 59.5382 42.5197C59.5833 42.7311 59.6035 42.9484 59.5987 43.1717C59.5928 43.395 59.5667 43.6159 59.5216 43.8321C59.4753 44.0494 59.4183 44.2501 59.3507 44.433C59.2474 44.7418 59.1216 44.9794 58.9732 45.1457C58.8249 45.3119 58.6528 45.4687 58.4581 45.6172C58.3774 45.6742 58.3287 45.6884 58.3121 45.6599C58.2955 45.6314 58.2896 45.5851 58.2955 45.5222C58.3014 45.4592 58.3181 45.3903 58.3465 45.3167C58.375 45.2419 58.4011 45.1872 58.4237 45.154C58.5151 44.9936 58.5637 44.8618 58.5697 44.7597C58.5756 44.6563 58.6065 44.5138 58.6646 44.3309C58.7442 44.0102 58.7335 43.6729 58.6302 43.3178C58.527 42.9639 58.3727 42.6717 58.1673 42.4424C57.9038 42.1562 57.5929 41.9876 57.232 41.9365C56.8724 41.8854 56.5199 41.9389 56.1769 42.0992C55.8446 42.2714 55.5561 42.5137 55.3105 42.8285C55.0648 43.1432 54.8618 43.4603 54.7016 43.781C54.5188 44.1136 54.3835 44.4711 54.298 44.8535C54.2114 45.2371 54.1805 45.6231 54.2043 46.0127C54.2268 46.3904 54.2933 46.7657 54.4013 47.1375C54.5093 47.5092 54.6648 47.8501 54.8642 48.1589C55.0636 48.4677 55.3128 48.7337 55.6107 48.957C55.9075 49.1803 56.2624 49.3323 56.6742 49.4119C57.0398 49.4927 57.4314 49.501 57.8492 49.438C58.267 49.3751 58.6409 49.2575 58.9732 49.0865C59.3388 48.8917 59.6509 48.6316 59.9085 48.305C60.1661 47.9783 60.3856 47.6387 60.5684 47.2835C60.7631 46.9296 60.8913 46.5543 60.9542 46.1588C61.0171 45.7645 61.0313 45.369 60.9969 44.9746C60.9625 44.5803 60.8829 44.1884 60.7571 43.7988C60.6313 43.4104 60.477 43.0434 60.2942 42.7002C60.0201 42.1515 59.8195 41.5671 59.6937 40.9495C59.5679 40.3319 59.5417 39.725 59.6165 39.1299C59.6913 38.5349 59.8765 37.9743 60.1744 37.4482C60.4711 36.922 60.9067 36.4754 61.4776 36.1096C61.7636 35.8923 62.0948 35.7177 62.4722 35.5858C62.8496 35.454 63.2294 35.3887 63.6128 35.3887C63.9962 35.3887 64.3558 35.4659 64.6929 35.6203C65.03 35.7747 65.3136 36.0241 65.5415 36.3673C65.7587 36.6999 65.8786 37.0764 65.9023 37.5004C65.9249 37.9244 65.8679 38.3354 65.7302 38.7368C65.5926 39.1371 65.3848 39.4946 65.1035 39.8093C64.8234 40.1241 64.4887 40.339 64.1006 40.453C63.906 40.5101 63.7719 40.5338 63.6971 40.5219C63.6223 40.5101 63.5855 40.4816 63.5855 40.4364C63.5855 40.3913 63.6081 40.339 63.6544 40.282C63.6995 40.225 63.7517 40.1787 63.8086 40.1442C63.957 40.0302 64.0852 39.8841 64.1944 39.706C64.3024 39.529 64.4033 39.3651 64.4947 39.2166C64.6775 38.8853 64.7712 38.5076 64.7772 38.0836C64.7831 37.6608 64.7083 37.2712 64.554 36.9161C64.3997 36.5609 64.1683 36.2866 63.8597 36.0918C63.5511 35.897 63.1737 35.8578 62.7274 35.9718C62.35 36.1547 62.0473 36.4042 61.8182 36.7189C61.5891 37.0336 61.4242 37.3793 61.3209 37.757C61.2177 38.1346 61.1773 38.5266 61.201 38.9328C61.2236 39.3366 61.3043 39.7226 61.4408 40.0884Z" fill="#505050"/>
<path d="M66.313 47.7099C66.0044 48.0532 65.6875 48.4083 65.3611 48.7741C65.0347 49.1399 64.6715 49.438 64.2715 49.6661C64.1113 49.7575 63.9451 49.8288 63.7742 49.8811C63.6033 49.9321 63.4336 49.9523 63.2686 49.9416C63.1024 49.9298 62.9481 49.8811 62.8057 49.7955C62.6633 49.71 62.5458 49.5699 62.4544 49.3751C62.3749 49.1922 62.3369 48.9974 62.3428 48.7919C62.3488 48.5865 62.3772 48.3798 62.4283 48.1743C62.4793 47.9677 62.5517 47.7681 62.6431 47.5733C62.7345 47.3786 62.8259 47.1957 62.9173 47.0246C63.1808 46.5899 63.4455 46.1469 63.7149 45.6944C63.9831 45.2431 64.249 44.7929 64.5125 44.3464C64.6157 44.1753 64.7095 44.0007 64.795 43.8226C64.8804 43.6456 64.9635 43.4532 65.0442 43.2477C65.0561 43.2026 65.0668 43.142 65.0786 43.0672C65.0905 42.9924 65.1012 42.9187 65.113 42.8439C65.1249 42.7691 65.1415 42.6978 65.1641 42.6289C65.1866 42.56 65.221 42.509 65.2673 42.4745C65.3018 42.4745 65.3813 42.4722 65.5071 42.4662C65.6329 42.4603 65.7789 42.4543 65.9451 42.4484C66.1112 42.4425 66.2762 42.4401 66.4424 42.4401C66.6073 42.4401 66.7427 42.4401 66.8459 42.4401C66.891 42.4627 66.9148 42.503 66.9148 42.56C66.9148 42.6171 66.9148 42.6634 66.9148 42.6978C66.9254 42.9033 66.8886 43.1183 66.8032 43.3416C66.7177 43.5648 66.6228 43.762 66.5207 43.9342C66.2809 44.4152 66.0234 44.8784 65.7492 45.325C65.4976 45.7823 65.2341 46.2289 64.9599 46.6636C64.6858 47.0983 64.4163 47.5389 64.154 47.9855C64.0852 48.1114 64.014 48.2741 63.9392 48.4748C63.8644 48.6755 63.8905 48.8383 64.0163 48.9641C64.0959 49.0437 64.1908 49.0758 64.3 49.058C64.408 49.0413 64.5172 49.0033 64.6264 48.9463C64.7344 48.8893 64.8317 48.8204 64.9184 48.7409C65.0038 48.6613 65.0751 48.5924 65.1332 48.5354C65.4988 48.204 65.8311 47.8263 66.1278 47.4023C66.4246 46.9795 66.7106 46.5674 66.986 46.1659C67.2827 45.7312 67.5604 45.2846 67.818 44.8274C68.0755 44.3701 68.301 43.901 68.4957 43.4199C68.5527 43.2596 68.6251 43.0886 68.7105 42.9045C68.796 42.7216 68.8672 42.5838 68.9254 42.4923C69.1081 42.4817 69.3396 42.4638 69.6197 42.4413C69.8998 42.4187 70.1372 42.4068 70.3318 42.4068H70.6748C70.663 42.4876 70.6464 42.5672 70.6238 42.6467C70.6013 42.7156 70.5811 42.7928 70.5633 42.8783C70.5455 42.9639 70.5206 43.0363 70.4861 43.0933C70.2808 43.5518 70.0399 43.9948 69.7657 44.4236C69.4915 44.8523 69.2221 45.2823 68.9598 45.711C68.6963 46.1398 68.4506 46.578 68.2227 47.0246C67.9936 47.4712 67.8168 47.9403 67.691 48.4321C67.6566 48.7183 67.7112 48.881 67.8536 48.9214C67.996 48.9618 68.1646 48.9012 68.3592 48.7409C68.8743 48.3062 69.3372 47.8144 69.7491 47.2645C70.1609 46.7146 70.549 46.154 70.9158 45.5828C70.9846 45.5257 71.0582 45.5056 71.1389 45.5222C71.2184 45.5388 71.2469 45.6113 71.2244 45.7372C70.8351 46.3666 70.4149 46.9759 69.9639 47.565C69.5117 48.1541 69.012 48.7124 68.4625 49.2385C68.2108 49.444 67.945 49.6138 67.6649 49.7445C67.3848 49.8763 67.0963 49.9072 66.7984 49.8395C66.5587 49.7825 66.389 49.6708 66.2928 49.5046C66.1955 49.3395 66.1445 49.1506 66.1385 48.938C66.1326 48.7266 66.1528 48.5093 66.1991 48.286C66.2382 48.0615 66.2786 47.8703 66.313 47.7099Z" fill="#505050"/>
<path d="M76.245 45.6492C75.9127 46.0958 75.5673 46.5448 75.2076 46.9973C74.8468 47.4498 74.4587 47.8762 74.0409 48.2764C73.6231 48.6767 73.1745 49.0318 72.695 49.3406C72.2155 49.6494 71.6944 49.8727 71.1342 50.0105C70.9965 50.0224 70.8565 50.0164 70.7141 49.9939C70.5704 49.9701 70.4363 49.9309 70.3105 49.8739C69.99 49.7361 69.7527 49.5532 69.5984 49.3252C69.4441 49.096 69.3491 48.8442 69.3159 48.5698C69.2815 48.2955 69.2933 48.0116 69.3503 47.7206C69.4073 47.4284 69.488 47.1517 69.5901 46.888C69.8417 46.2704 70.1645 45.6777 70.5586 45.1112C70.9526 44.5447 71.4072 44.0447 71.9223 43.6088C72.1846 43.3807 72.4683 43.1658 72.7709 42.965C73.0736 42.7655 73.3964 42.6016 73.7406 42.4757C73.889 42.4306 74.0611 42.3819 74.2546 42.3296C74.4492 42.2785 74.6486 42.2441 74.8551 42.2263C75.0617 42.2085 75.2575 42.212 75.4474 42.2346C75.6361 42.2572 75.8047 42.3094 75.953 42.389C76.1239 42.4923 76.2248 42.6147 76.2533 42.7584C76.2818 42.9021 76.2699 43.047 76.2189 43.1966C76.1678 43.3451 76.0895 43.4947 75.9874 43.6432C75.8842 43.7917 75.7928 43.9176 75.7133 44.0209C75.6907 44.0553 75.6622 44.0981 75.6278 44.1492C75.5934 44.2002 75.553 44.2489 75.5079 44.2953C75.4628 44.3416 75.4106 44.376 75.3536 44.3986C75.2967 44.4223 75.2444 44.4223 75.1993 44.3986C75.1186 44.3416 75.0854 44.2501 75.0961 44.1242C75.1068 43.9983 75.1127 43.9069 75.1127 43.8499C75.1127 43.7584 75.1068 43.6527 75.0961 43.5328C75.0842 43.4128 75.0617 43.3012 75.0272 43.1978C74.9928 43.0945 74.9418 43.003 74.8729 42.9235C74.8041 42.8439 74.7068 42.8035 74.581 42.8035C74.4207 42.8035 74.2688 42.8498 74.1264 42.9413C73.984 43.0327 73.8463 43.1444 73.7145 43.2762C73.5828 43.408 73.4593 43.5482 73.3454 43.6967C73.2303 43.8451 73.133 43.971 73.0534 44.0743C72.7899 44.395 72.5502 44.724 72.333 45.0613C72.1158 45.3986 71.9104 45.7454 71.7158 46.0994C71.5556 46.3975 71.3894 46.7122 71.2185 47.0436C71.0464 47.3762 70.9443 47.7135 70.9099 48.0567C70.8873 48.3548 70.9645 48.6114 71.1413 48.8287C71.3182 49.0461 71.5615 49.1316 71.8701 49.0865C72.2926 48.938 72.6938 48.7408 73.0712 48.4938C73.4487 48.2479 73.8035 47.97 74.1347 47.6612C74.4658 47.3524 74.778 47.0199 75.07 46.6659C75.3619 46.3108 75.6337 45.9509 75.8854 45.5839C75.896 45.5495 75.9222 45.496 75.9625 45.4212C76.0029 45.3464 76.048 45.2727 76.1002 45.1979C76.1512 45.1231 76.2058 45.0578 76.2628 45.0008C76.3198 44.9437 76.3767 44.9212 76.4337 44.9319C76.5251 44.9319 76.5714 44.9663 76.5714 45.0352C76.5714 45.1041 76.5477 45.1789 76.5026 45.2585C76.4563 45.3393 76.4052 45.4188 76.3483 45.4984C76.2901 45.5756 76.2557 45.6267 76.245 45.6492Z" fill="#505050"/>
<path d="M81.116 45.4949C81.1505 45.5756 81.1101 45.7063 80.9962 45.8892C80.7671 46.2099 80.5618 46.4925 80.379 46.7384C80.1962 46.9842 80.0193 47.2158 79.8472 47.4332C79.6763 47.6505 79.5007 47.8679 79.3238 48.0852C79.1458 48.3026 78.9381 48.5484 78.6971 48.8228C78.5595 48.9606 78.3969 49.109 78.2081 49.2694C78.0194 49.4297 77.8188 49.5699 77.6076 49.6898C77.3963 49.8098 77.1791 49.8894 76.956 49.9297C76.7328 49.9701 76.518 49.944 76.3127 49.8525C76.0385 49.7148 75.8604 49.5295 75.7809 49.2943C75.7002 49.0603 75.6777 48.805 75.7121 48.5306C75.7465 48.2563 75.8201 47.9843 75.9352 47.7147C76.0492 47.4463 76.1584 47.2147 76.2616 47.0199C76.41 46.7336 76.588 46.4676 76.7934 46.2217C76.9987 45.9759 77.2135 45.736 77.4367 45.5008C77.6598 45.2668 77.8794 45.0317 78.0966 44.7977C78.3138 44.5637 78.5191 44.3143 78.7138 44.0506C78.5654 44.028 78.4158 44.0304 78.2675 44.0589C78.1191 44.0874 77.9755 44.0732 77.839 44.0162C77.7132 43.9817 77.6099 43.9473 77.5304 43.9128C77.4509 43.8784 77.3536 43.9069 77.2384 43.9983C76.9061 44.5138 76.5785 45.0518 76.2521 45.6124C75.9257 46.173 75.5768 46.7194 75.2053 47.2515C74.8338 47.7836 74.4302 48.2812 73.9958 48.7444C73.5614 49.2076 73.0701 49.5996 72.5205 49.9202C72.3722 49.9428 72.2808 49.906 72.2463 49.8086C72.2119 49.7112 72.2297 49.6114 72.2974 49.5081C72.9383 49.096 73.5128 48.6126 74.0219 48.0579C74.5311 47.5033 74.9964 46.9082 75.4201 46.2728C75.8426 45.6374 76.2355 44.9794 76.5951 44.2988C76.9548 43.6183 77.312 42.9508 77.6669 42.2987C77.7239 42.2762 77.7844 42.2726 77.8473 42.2904C77.9102 42.3082 77.9731 42.3367 78.036 42.3759C78.0989 42.4163 78.1595 42.4591 78.2164 42.5042C78.2734 42.5505 78.3245 42.585 78.3707 42.6075C78.5191 42.6764 78.6675 42.7192 78.817 42.737C78.9654 42.7536 79.1137 42.7513 79.2633 42.7287C79.4579 42.6942 79.649 42.6408 79.8377 42.566C80.0265 42.4911 80.2116 42.4436 80.3956 42.4199C80.5333 42.408 80.6211 42.4282 80.6615 42.4805C80.7018 42.5327 80.7125 42.5945 80.6959 42.6693C80.6793 42.7441 80.6448 42.8237 80.5926 42.9092C80.5416 42.9947 80.4917 43.0719 80.4466 43.1408C80.0466 43.6444 79.6716 44.1599 79.3226 44.686C78.9737 45.2122 78.639 45.7562 78.3185 46.3167C78.2271 46.4545 78.1357 46.597 78.0443 46.7455C77.953 46.894 77.8675 47.046 77.7868 47.2004C77.7061 47.3548 77.6432 47.5128 77.5981 47.6719C77.5518 47.8323 77.5352 47.9985 77.547 48.1696C77.547 48.2836 77.5696 48.4154 77.6159 48.5639C77.661 48.7123 77.7536 48.7753 77.89 48.7527C78.0847 48.7183 78.2983 48.596 78.5333 48.3834C78.7672 48.1719 79.0105 47.9178 79.2621 47.6197C79.5137 47.3227 79.757 47.0021 79.9909 46.6588C80.2247 46.3156 80.4395 46.0068 80.6342 45.7312C80.6911 45.6398 80.7564 45.5507 80.8312 45.4652C80.9071 45.3832 81.0021 45.3927 81.116 45.4949Z" fill="#505050"/>
<path d="M80.8929 48.5164C80.9273 48.78 81.0187 48.9546 81.167 49.0402C81.3154 49.1257 81.4899 49.1577 81.6904 49.134C81.8898 49.1114 82.094 49.0544 82.2993 48.963C82.5058 48.8715 82.6768 48.78 82.8144 48.6886C83.1349 48.4938 83.4577 48.2396 83.7841 47.9249C84.1105 47.6102 84.4156 47.2895 84.7016 46.964C84.9877 46.6374 85.2452 46.3322 85.4731 46.046C85.701 45.7597 85.885 45.5424 86.0214 45.3939C86.101 45.3024 86.1556 45.2823 86.1841 45.3333C86.2125 45.3844 86.2149 45.4569 86.1924 45.5483C86.1354 45.7205 86.0203 45.9296 85.8493 46.1754C85.6784 46.4213 85.4719 46.6814 85.2322 46.9569C84.9924 47.2313 84.7313 47.5116 84.4524 47.7978C84.1723 48.0841 83.8945 48.3465 83.6203 48.5876C83.3462 48.8287 83.091 49.0402 82.8572 49.2231C82.6234 49.406 82.4311 49.5378 82.2827 49.6174C82.0655 49.7433 81.8163 49.843 81.5362 49.9179C81.256 49.9927 80.9819 50.0236 80.7124 50.0117C80.4442 49.9998 80.1926 49.9309 79.9576 49.8062C79.7238 49.6803 79.5374 49.4796 79.3997 49.2052C79.2858 48.9653 79.2253 48.7076 79.2193 48.4332C79.2134 48.1589 79.2419 47.8845 79.3048 47.609C79.3677 47.3346 79.4531 47.0686 79.5623 46.8108C79.6715 46.5531 79.7879 46.3108 79.9137 46.0816C80.2448 45.4414 80.6519 44.8689 81.1314 44.3653C81.6121 43.8618 82.1605 43.4271 82.7788 43.0613C83.0756 42.8665 83.3877 42.7061 83.7141 42.5802C84.0405 42.4543 84.374 42.3629 84.717 42.3059C84.9342 42.2607 85.1693 42.2489 85.4209 42.2714C85.6725 42.294 85.8612 42.4151 85.987 42.6313C86.0903 42.7916 86.1354 42.9603 86.1247 43.1373C86.1128 43.3142 86.0737 43.4888 86.0048 43.661C85.936 43.8321 85.847 43.9936 85.739 44.1421C85.6298 44.2905 85.5182 44.4224 85.4043 44.5364C85.1301 44.8345 84.8179 45.091 84.469 45.3084C84.12 45.5257 83.7687 45.7146 83.4138 45.8749C83.2192 45.9557 83.0281 46.0269 82.8394 46.0899C82.6507 46.1528 82.4536 46.2134 82.2471 46.2704C82.1332 46.293 81.9955 46.3108 81.8353 46.3215C81.675 46.3334 81.5551 46.3844 81.4756 46.4759C81.3842 46.5674 81.313 46.7051 81.2608 46.888C81.2098 47.0709 81.1552 47.2253 81.0982 47.3512C81.0175 47.5341 80.9581 47.7266 80.9178 47.9261C80.8786 48.1244 80.8703 48.3216 80.8929 48.5164ZM81.7332 45.9414C82.1332 45.9189 82.4964 45.793 82.8228 45.5637C83.1492 45.3345 83.4601 45.0887 83.758 44.825C83.9064 44.6991 84.0464 44.5649 84.1782 44.4212C84.3099 44.2786 84.4274 44.1266 84.5295 43.9663C84.5984 43.8404 84.6779 43.6824 84.7693 43.4948C84.8607 43.3059 84.901 43.1373 84.8891 42.9888C84.8773 42.8629 84.8381 42.7893 84.7693 42.7655C84.7004 42.7429 84.615 42.7513 84.5117 42.7916C84.4084 42.832 84.2969 42.895 84.177 42.9805C84.0571 43.066 83.9456 43.1551 83.8423 43.2465C83.739 43.338 83.6476 43.4271 83.5681 43.5126C83.4886 43.5981 83.4364 43.6527 83.4138 43.6753C83.0815 44.0185 82.7812 44.382 82.513 44.7656C82.2459 45.1492 81.9848 45.5412 81.7332 45.9414ZM84.1865 41.1182C84.5176 40.8212 84.8666 40.5576 85.2333 40.3283C85.5989 40.0991 85.9538 39.8426 86.2968 39.5563C86.3882 39.4768 86.4831 39.3912 86.5793 39.2986C86.6766 39.2071 86.7739 39.1264 86.8713 39.0587C86.9686 38.9898 87.0707 38.9447 87.1799 38.9209C87.2879 38.8983 87.3947 38.915 87.4968 38.972C87.7021 39.086 87.7828 39.2119 87.7365 39.3497C87.6902 39.4874 87.6273 39.6133 87.5478 39.7274C87.479 39.8188 87.3472 39.9305 87.1537 40.0623C86.9591 40.1941 86.7336 40.3319 86.476 40.4744C86.2185 40.6181 85.9502 40.7547 85.6701 40.8866C85.39 41.0184 85.1348 41.1241 84.9069 41.2037L84.4096 41.3747C84.3064 41.3973 84.2352 41.3806 84.1948 41.3236C84.1556 41.2666 84.1521 41.1989 84.1865 41.1182Z" fill="#505050"/>
<path d="M89.9501 42.389C89.9382 42.4804 89.9097 42.5695 89.8646 42.655C89.8183 42.7406 89.7673 42.8296 89.7103 42.9211L89.5394 43.1788C89.448 43.4425 89.3709 43.7311 89.308 44.0458C89.2451 44.3606 89.1845 44.6611 89.1276 44.9473V44.9307C89.0243 45.4117 88.9163 45.8868 88.8012 46.3559C88.6872 46.8251 88.5329 47.2716 88.3383 47.6945C88.1436 48.1173 87.8944 48.5045 87.5917 48.8537C87.2891 49.2029 86.8974 49.4855 86.4167 49.7029C86.222 49.7943 86.0167 49.8656 85.7995 49.9179C85.5823 49.9689 85.3592 49.9951 85.1301 49.9951C84.8322 49.9951 84.558 49.944 84.3064 49.8407C84.1343 49.7611 83.9954 49.6459 83.8862 49.4974C83.7782 49.3489 83.7236 49.1945 83.7236 49.0342C83.7236 48.9309 83.7462 48.8287 83.7924 48.7254C83.8387 48.6221 83.9123 48.5247 84.0156 48.4332C84.0844 48.3762 84.1901 48.3192 84.3325 48.2622C84.4761 48.2052 84.5984 48.2052 84.7016 48.2622C84.7705 48.3085 84.8049 48.3738 84.8049 48.4594C84.8049 48.5449 84.793 48.6339 84.7705 48.7254C84.7586 48.7598 84.7538 48.8109 84.7538 48.8798C84.7538 49.0057 84.7906 49.1375 84.8654 49.2741C84.9402 49.4119 85.0399 49.4689 85.1657 49.4463C85.2571 49.4463 85.3544 49.4119 85.4577 49.343C85.5609 49.2741 85.6606 49.1945 85.758 49.1031C85.8553 49.0116 85.9443 48.9202 86.0238 48.8287C86.1033 48.7373 86.1662 48.6636 86.2125 48.6054C86.6125 47.8845 86.9294 47.1184 87.1644 46.3049C87.3982 45.4925 87.5965 44.692 87.7567 43.9021C87.562 44.1195 87.3793 44.3345 87.2083 44.5459C87.0374 44.7573 86.8594 44.9782 86.6766 45.2062C86.0594 45.9735 85.4304 46.7312 84.7894 47.4807C84.1497 48.2301 83.4518 48.9249 82.6969 49.5663C82.6056 49.6352 82.5106 49.7005 82.4145 49.7635C82.3171 49.8264 82.2115 49.8692 82.0976 49.8917C81.9718 49.9262 81.878 49.906 81.8151 49.8312C81.7522 49.7563 81.7379 49.6459 81.7723 49.4962C81.8068 49.3822 81.8697 49.2931 81.9611 49.2302C82.0525 49.1672 82.1498 49.1126 82.253 49.0675L82.4418 48.9475C82.8762 48.6731 83.2963 48.3525 83.7022 47.9866C84.1082 47.6208 84.4939 47.2313 84.8607 46.8191C85.2262 46.407 85.5811 45.9866 85.9241 45.5578C86.2671 45.129 86.5935 44.7086 86.9021 44.2965C87.0968 44.0328 87.2879 43.7786 87.4766 43.5328C87.6653 43.2869 87.8564 43.0494 88.051 42.8201C88.1424 42.6942 88.2457 42.5968 88.3596 42.528C88.4736 42.4591 88.5935 42.4104 88.7193 42.3819C88.8451 42.3534 88.9792 42.3391 89.1228 42.3391C89.2652 42.3391 89.4112 42.3451 89.5608 42.3569V42.3391C89.6177 42.3391 89.6783 42.3415 89.7412 42.3474C89.8041 42.3534 89.8634 42.3557 89.9216 42.3557L89.9501 42.389Z" fill="#505050"/>
</g>
<defs>
<clipPath id="clip0_256_658">
<rect width="89.0173" height="50" fill="white" transform="translate(0.932739 0.325256)"/>
</clipPath>
</defs>
</svg>
