<svg width="49" height="49" viewBox="0 0 49 49" fill="none" xmlns="http://www.w3.org/2000/svg">
<path fill-rule="evenodd" clip-rule="evenodd" d="M24.6667 42.3364C34.6078 42.3364 42.6667 34.2776 42.6667 24.3364C42.6667 14.3953 34.6078 6.33643 24.6667 6.33643C14.7255 6.33643 6.66666 14.3953 6.66666 24.3364C6.66666 34.2776 14.7255 42.3364 24.6667 42.3364ZM40.6667 24.3364C40.6667 33.173 33.5032 40.3364 24.6667 40.3364C15.8301 40.3364 8.66666 33.173 8.66666 24.3364C8.66666 15.4999 15.8301 8.33643 24.6667 8.33643C33.5032 8.33643 40.6667 15.4999 40.6667 24.3364ZM25.6667 14.3364C25.6667 13.7841 25.2189 13.3364 24.6667 13.3364C24.1144 13.3364 23.6667 13.7841 23.6667 14.3364V23.9222C23.6667 24.4526 23.8774 24.9613 24.2524 25.3364L27.9595 29.0435C28.3501 29.4341 28.9832 29.4341 29.3738 29.0435C29.7643 28.653 29.7643 28.0199 29.3738 27.6293L25.6667 23.9222V14.3364Z" fill="#252525"/>
</svg>
