<svg width="44" height="37" viewBox="0 0 44 37" fill="none" xmlns="http://www.w3.org/2000/svg">
    <path fill-rule="evenodd" clip-rule="evenodd" d="M12 0.336426C9.79086 0.336426 8 2.12729 8 4.33643V14.3337C8 21.3882 13.2166 27.2242 20.0027 28.1947V32.3364H11.7147C10.6101 32.3364 9.71467 33.2319 9.71467 34.3364C9.71467 35.441 10.6101 36.3364 11.7147 36.3364H32.2907C33.3953 36.3364 34.2907 35.441 34.2907 34.3364C34.2907 33.2319 33.3953 32.3364 32.2907 32.3364H24.0027V28.1947C30.7888 27.2242 36.0054 21.3882 36.0054 14.3337V4.33643C36.0054 2.12728 34.2145 0.336426 32.0054 0.336426H12ZM12 4.33643L32.0054 4.33643V14.3337C32.0054 19.8581 27.527 24.3364 22.0027 24.3364C16.4784 24.3364 12 19.8581 12 14.3337V4.33643ZM5.53416 7.61961L5.52521 7.6305L5.47698 7.69025C5.43282 7.74556 5.36657 7.82998 5.28566 7.93752C5.12227 8.15468 4.90704 8.45555 4.69524 8.7939C4.48015 9.13749 4.29004 9.48578 4.15894 9.80075C4.09433 9.95599 4.0518 10.0848 4.02658 10.186C4.00116 10.288 4.00003 10.3353 4 10.3365C4.00003 10.3376 4.00116 10.385 4.02658 10.487C4.0518 10.5882 4.09433 10.717 4.15894 10.8723C4.29004 11.1872 4.48015 11.5355 4.69524 11.8791C4.90704 12.2174 5.12227 12.5183 5.28566 12.7355C5.36657 12.843 5.43282 12.9274 5.47698 12.9828L5.52521 13.0425L5.53376 13.0529C6.24223 13.9 6.13049 15.1615 5.28358 15.8703C4.4365 16.5792 3.17514 16.4672 2.46624 15.6201L4 14.3365C2.46624 15.6201 2.46646 15.6203 2.46624 15.6201L2.4642 15.6176L2.46142 15.6143L2.4537 15.605L2.42986 15.576C2.41038 15.5522 2.3838 15.5195 2.35115 15.4786C2.28593 15.3969 2.19593 15.282 2.08934 15.1404C1.87773 14.8591 1.59296 14.4619 1.30476 14.0015C1.01985 13.5464 0.70996 12.9953 0.466057 12.4093C0.232091 11.8472 0 11.1156 0 10.3365C0 9.55737 0.232091 8.82579 0.466057 8.26367C0.70996 7.67769 1.01985 7.12661 1.30476 6.67148C1.59296 6.21109 1.87773 5.81387 2.08934 5.53263C2.19593 5.39096 2.28593 5.27609 2.35115 5.19442C2.3838 5.15352 2.41038 5.12077 2.42986 5.09696L2.4537 5.068L2.46142 5.05869L2.4642 5.05536L2.4658 5.05345L3.97576 6.31622C2.46623 5.05293 2.46602 5.05318 2.4658 5.05345C3.1747 4.20637 4.4365 4.09384 5.28358 4.80274C6.12968 5.51082 6.24185 6.77078 5.53564 7.61783L5.53416 7.61961ZM38.4748 7.6305L38.4658 7.61961C37.758 6.77254 37.8697 5.51132 38.7164 4.80274C39.5635 4.09384 40.8253 4.20637 41.5342 5.05345C41.534 5.05318 41.5338 5.05293 40.0242 6.31622L41.5342 5.05345L41.5358 5.05536L41.5386 5.05869L41.5463 5.068L41.5701 5.09696C41.5896 5.12077 41.6162 5.15352 41.6489 5.19442C41.7141 5.27609 41.8041 5.39096 41.9107 5.53263C42.1223 5.81387 42.407 6.21109 42.6952 6.67148C42.9801 7.12661 43.29 7.67769 43.5339 8.26367C43.7679 8.82579 44 9.55737 44 10.3365C44 11.1156 43.7679 11.8472 43.5339 12.4093C43.29 12.9953 42.9801 13.5464 42.6952 14.0015C42.407 14.4619 42.1223 14.8591 41.9107 15.1404C41.8041 15.282 41.7141 15.3969 41.6489 15.4786C41.6162 15.5195 41.5896 15.5522 41.5701 15.576L41.5463 15.605L41.5386 15.6143L41.5358 15.6176L41.5338 15.6201L40 14.3365C41.5338 15.6201 41.5335 15.6203 41.5338 15.6201C40.8249 16.4672 39.5635 16.5792 38.7164 15.8703C37.8695 15.1615 37.7578 13.9 38.4662 13.0529L38.4748 13.0425L38.523 12.9828C38.5672 12.9274 38.6334 12.843 38.7143 12.7355C38.8777 12.5183 39.093 12.2174 39.3048 11.8791C39.5199 11.5355 39.71 11.1872 39.8411 10.8723C39.9057 10.717 39.9482 10.5882 39.9734 10.487C39.9988 10.385 40 10.3376 40 10.3365C40 10.3353 39.9988 10.288 39.9734 10.186C39.9482 10.0848 39.9057 9.95599 39.8411 9.80075C39.71 9.48578 39.5199 9.13749 39.3048 8.7939C39.093 8.45555 38.8777 8.15468 38.7143 7.93752C38.6334 7.82998 38.5672 7.74556 38.523 7.69025L38.4748 7.6305Z" fill="#252525"/>
</svg>
