<svg width="41" height="41" viewBox="0 0 41 41" fill="none" xmlns="http://www.w3.org/2000/svg">
<path fill-rule="evenodd" clip-rule="evenodd" d="M4.33331 20.3364C4.33331 11.4999 11.4968 4.33643 20.3333 4.33643C29.1699 4.33643 36.3333 11.4999 36.3333 20.3364C36.3333 29.173 29.1699 36.3364 20.3333 36.3364C11.4968 36.3364 4.33331 29.173 4.33331 20.3364ZM20.3333 0.336426C9.28762 0.336426 0.333313 9.29073 0.333313 20.3364C0.333313 31.3821 9.28762 40.3364 20.3333 40.3364C31.379 40.3364 40.3333 31.3821 40.3333 20.3364C40.3333 9.29073 31.379 0.336426 20.3333 0.336426ZM22.4188 10.1363C22.4188 9.14227 21.6129 8.33643 20.6188 8.33643C19.6248 8.33643 18.8189 9.14227 18.8189 10.1363V12.1045H17.0618C15.4837 12.1045 14.2142 12.7918 13.3924 13.8701C12.6126 14.8932 12.309 16.1622 12.3348 17.326C12.3607 18.4913 12.7198 19.7276 13.4871 20.7152C14.2872 21.7451 15.5154 22.4675 17.0618 22.4675H23.5474C24.3219 22.4675 24.6775 22.721 24.8448 22.9116C25.0363 23.1298 25.1613 23.4736 25.1263 23.9027C25.059 24.7262 24.4241 25.6309 22.9913 25.6309H14.6297C13.6356 25.6309 12.8298 26.4368 12.8298 27.4309C12.8298 28.4249 13.6356 29.2308 14.6297 29.2308H18.8189V30.8136C18.8189 31.8077 19.6248 32.6135 20.6188 32.6135C21.6129 32.6135 22.4188 31.8077 22.4188 30.8136V29.2308H22.9913C26.4298 29.2308 28.5052 26.7539 28.7141 24.1958C28.8172 22.934 28.4719 21.5871 27.5505 20.5371C26.6048 19.4596 25.205 18.8677 23.5474 18.8677H17.0618C16.7316 18.8677 16.5148 18.7448 16.3298 18.5066C16.1118 18.2261 15.9454 17.7716 15.9338 17.2461C15.9221 16.719 16.0688 16.2972 16.2555 16.0522C16.4001 15.8624 16.6131 15.7043 17.0618 15.7043H20.7099H24.3581C25.3522 15.7043 26.158 14.8985 26.158 13.9044C26.158 12.9103 25.3522 12.1045 24.3581 12.1045H22.4188V10.1363Z" fill="#252525"/>
</svg>
