<svg width="376" height="401" viewBox="0 0 376 401" fill="none" xmlns="http://www.w3.org/2000/svg">
<g clip-path="url(#clip0_279_3069)">
<path d="M0 180.896V226.779C0 235.082 6.73232 241.814 15.0346 241.814H179.548C187.85 241.814 194.582 235.082 194.582 226.779V188.013L215.059 166.497L15.0827 165.871C6.76121 165.842 0 172.574 0 180.896Z" fill="#F5F5F5"/>
<path d="M170.321 193.667L21.0349 192.973L21.0542 188.389L170.34 189.073L170.321 193.667Z" fill="#E0E0E0"/>
<path d="M170.321 208.759L21.0349 208.066L21.0542 203.481L170.34 204.175L170.321 208.759Z" fill="#E0E0E0"/>
<path d="M111.279 218.591L111.257 223.175L170.326 223.466L170.348 218.881L111.279 218.591Z" fill="#E0E0E0"/>
<path d="M152.436 339.428V385.312C152.436 393.614 159.168 400.346 167.47 400.346H331.983C340.286 400.346 347.018 393.614 347.018 385.312V346.545L367.494 325.029L167.518 324.403C159.197 324.374 152.436 331.106 152.436 339.428Z" fill="#F5F5F5"/>
<path d="M323.469 351.005L174.193 350.311L174.202 345.727L323.488 346.411L323.469 351.005Z" fill="#E0E0E0"/>
<path d="M323.469 366.097L174.193 365.413L174.202 360.819L323.488 361.513L323.469 366.097Z" fill="#E0E0E0"/>
<path d="M264.429 375.931L264.407 380.515L323.476 380.806L323.499 376.221L264.429 375.931Z" fill="#E0E0E0"/>
<path d="M87.9343 8.07043H184.961C189.767 8.07043 193.658 11.9615 193.658 16.7676V64.2309C193.658 69.0369 189.767 72.928 184.961 72.928H102.622C97.8161 72.928 93.925 69.0369 93.925 64.2309V14.0611L87.9343 8.07043Z" fill="#F5F5F5"/>
<path d="M144.181 54.2046V84.6301C144.181 90.1392 139.722 94.5985 134.213 94.5985H25.0993C19.5902 94.5985 15.1309 90.1392 15.1309 84.6301V58.9143L1.55066 44.6503L134.184 44.2361C139.703 44.2169 144.181 48.6858 144.181 54.2046Z" fill="#E0E0E0"/>
<path d="M31.2153 62.6706L130.226 62.2179L130.216 59.1744L31.2056 59.6271L31.2153 62.6706Z" fill="#F5F5F5"/>
<path d="M31.2153 72.6872L130.226 72.2249L130.216 69.1814L31.2056 69.6437L31.2153 72.6872Z" fill="#F5F5F5"/>
<path d="M70.3887 79.2085L31.2084 79.4014L31.2234 82.4449L70.4037 82.252L70.3887 79.2085Z" fill="#F5F5F5"/>
<path d="M350.88 195.314V225.739C350.88 231.248 346.421 235.707 340.912 235.707H231.798C226.289 235.707 221.829 231.248 221.829 225.739V200.023L208.249 185.75L340.883 185.335C346.401 185.326 350.88 189.795 350.88 195.314Z" fill="#E0E0E0"/>
<path d="M237.914 203.78L336.924 203.327L336.915 200.283L237.904 200.736L237.914 203.78Z" fill="#F5F5F5"/>
<path d="M237.914 213.796L336.924 213.334L336.915 210.29L237.904 210.753L237.914 213.796Z" fill="#F5F5F5"/>
<path d="M277.09 220.319L237.909 220.512L237.924 223.555L277.105 223.363L277.09 220.319Z" fill="#F5F5F5"/>
<path d="M257.417 346.382C241.111 330.499 240.842 305.94 245.089 284.596C245.792 281.033 246.023 277.19 248.239 274.329C250.454 271.469 254.788 269.966 257.745 271.999C260.201 273.684 260.856 276.968 261.925 279.771C263.35 283.498 265.835 286.802 269.014 289.171C271.104 290.732 273.81 291.916 276.266 291.04C279.637 289.836 280.696 285.627 281.265 282.063C282.314 275.418 283.355 268.762 284.404 262.117C284.963 258.553 285.551 254.913 287.217 251.705C288.883 248.508 291.84 245.763 295.384 245.368C298.929 244.973 302.8 247.612 302.945 251.224C303.003 252.726 302.463 254.181 302.319 255.673C302.174 257.166 302.598 258.919 303.937 259.565C305.295 260.219 306.884 259.439 308.117 258.572C312.384 255.577 315.639 251.349 318.731 247.121C321.822 242.893 324.856 238.549 328.834 235.168C332.812 231.788 337.936 229.438 343.088 229.987C348.241 230.536 353.163 234.571 353.635 239.791C354.107 245.031 350.341 249.644 346.488 253.189C340.767 258.447 334.295 262.868 327.341 266.268C326.089 266.884 324.731 267.539 324.086 268.791C322.92 271.045 324.789 273.771 327.004 274.936C329.518 276.256 332.446 276.448 335.171 277.238C337.897 278.018 340.709 279.742 341.326 282.535C342.193 286.417 338.513 289.74 335.114 291.743C328.295 295.769 320.792 298.6 313.038 300.084C310.265 300.613 307.366 300.999 304.948 302.501C302.531 303.994 300.73 306.989 301.596 309.705C302.463 312.431 305.613 313.77 308.435 313.712C311.266 313.654 313.963 312.566 316.747 312.007C321.947 310.957 328.217 312.335 330.664 317.083C332.272 320.204 331.82 324.104 330.23 327.254C328.641 330.403 326.06 332.907 323.383 335.18C314.021 343.107 302.762 348.876 290.761 350.956C278.732 353.018 268.031 352.353 257.417 346.382Z" fill="#0065E5"/>
<path d="M254.528 362.244C256.695 353.865 260.21 344.128 265.161 333.832C270.092 323.517 276.439 312.662 283.461 301.528C285.223 298.754 286.976 296.01 288.69 293.303C290.414 290.606 292.119 287.938 293.959 285.425C297.609 280.387 301.49 275.822 305.324 271.604C309.147 267.385 312.933 263.513 316.496 259.93C320.069 256.348 323.469 253.073 326.686 250.212C333.11 244.482 338.831 240.475 342.876 237.884C344.899 236.584 346.488 235.621 347.586 234.995C348.106 234.696 348.52 234.456 348.829 234.282C349.108 234.128 349.262 234.051 349.262 234.061C349.272 234.07 349.137 234.167 348.857 234.34C348.559 234.533 348.154 234.783 347.644 235.11C346.575 235.785 344.995 236.777 343.002 238.106C339.014 240.754 333.351 244.809 326.985 250.569C323.797 253.439 320.426 256.723 316.872 260.325C313.327 263.927 309.562 267.799 305.757 272.027C301.953 276.246 298.091 280.802 294.469 285.82C292.649 288.314 290.954 290.972 289.23 293.669C287.515 296.376 285.772 299.111 284 301.885C276.979 313.009 270.632 323.825 265.681 334.102C260.711 344.359 257.177 354.038 254.952 362.37" fill="#263238"/>
<path d="M294.151 285.434C294.103 285.434 294.074 284.876 294.055 283.855C294.026 282.844 294.036 281.37 294.084 279.55C294.161 275.919 294.44 270.91 294.768 265.382C295.095 259.853 295.297 254.855 295.326 251.233C295.346 249.423 295.336 247.959 295.326 246.947C295.317 245.936 295.336 245.368 295.384 245.368C295.432 245.368 295.5 245.927 295.586 246.938C295.683 247.949 295.75 249.423 295.798 251.233C295.895 254.864 295.769 259.892 295.442 265.42C295.105 270.872 294.797 275.803 294.566 279.569C294.469 281.274 294.392 282.709 294.325 283.855C294.257 284.876 294.2 285.434 294.151 285.434Z" fill="#263238"/>
<path d="M341.374 284.375C341.364 284.423 340.7 284.385 339.515 284.298C338.321 284.211 336.597 284.076 334.459 283.97C330.192 283.739 324.278 283.624 317.748 283.778C311.218 283.942 305.314 284.346 301.057 284.76C298.928 284.953 297.204 285.155 296.01 285.29C294.816 285.425 294.161 285.483 294.151 285.434C294.142 285.386 294.797 285.251 295.972 285.03C297.156 284.818 298.871 284.548 300.999 284.288C305.256 283.749 311.18 283.267 317.729 283.104C324.278 282.95 330.211 283.142 334.478 283.499C336.616 283.662 338.34 283.865 339.525 284.038C340.729 284.211 341.374 284.327 341.374 284.375Z" fill="#263238"/>
<path d="M265.864 333.081C265.845 333.09 265.768 332.878 265.643 332.474C265.508 331.992 265.334 331.405 265.132 330.692C264.699 329.141 264.121 326.878 263.447 324.066C262.098 318.451 260.471 310.649 258.795 302.01C257.119 293.361 255.568 285.55 254.335 279.925C253.729 277.19 253.228 274.936 252.852 273.26C252.698 272.538 252.563 271.931 252.457 271.44C252.371 271.026 252.342 270.804 252.361 270.795C252.38 270.795 252.457 270.997 252.582 271.401C252.717 271.883 252.891 272.471 253.093 273.183C253.526 274.734 254.104 276.997 254.778 279.81C256.127 285.425 257.754 293.226 259.43 301.875C261.106 310.514 262.657 318.325 263.88 323.96C264.487 326.695 264.988 328.949 265.363 330.625C265.517 331.347 265.652 331.954 265.758 332.445C265.845 332.85 265.883 333.071 265.864 333.081Z" fill="#263238"/>
<path d="M329.961 323.43C329.961 323.449 329.739 323.507 329.315 323.584C328.815 323.661 328.198 323.767 327.447 323.883C325.723 324.143 323.402 324.499 320.58 324.933C314.782 325.819 306.788 327.129 297.956 328.593C289.124 330.057 281.11 331.299 275.293 332.06C272.384 332.445 270.025 332.724 268.397 332.898C267.646 332.965 267.02 333.023 266.519 333.081C266.086 333.11 265.864 333.119 265.854 333.1C265.854 333.081 266.076 333.023 266.5 332.946C267.001 332.869 267.617 332.763 268.368 332.647C270.092 332.387 272.404 332.031 275.235 331.598C281.033 330.711 289.027 329.402 297.859 327.938C306.691 326.474 314.705 325.231 320.522 324.47C323.431 324.085 325.79 323.806 327.418 323.632C328.169 323.565 328.795 323.498 329.296 323.449C329.73 323.411 329.951 323.401 329.961 323.43Z" fill="#263238"/>
<path d="M95.3986 129.811C92.4225 127.499 91.0934 123.416 91.7098 119.698C92.3359 115.98 94.7341 112.696 97.8354 110.558C99.2704 109.575 101.052 108.795 102.728 109.286C104.288 109.749 105.377 111.261 105.695 112.86C106.012 114.458 105.666 116.115 105.136 117.656C103.306 122.934 100.571 127.711 95.3986 129.811Z" fill="#455A64"/>
<path d="M90.5058 138.826C84.6404 133.471 76.0781 131.236 68.3441 133.028C66.3697 133.48 64.1544 134.521 63.827 136.524C63.4995 138.527 65.2909 140.222 67.0439 141.234C74.3348 145.462 84.2166 144.662 90.737 139.327" fill="#455A64"/>
<path d="M62.2378 97.0835C65.4932 96.1878 69.0568 96.9968 71.9366 98.7497C74.8164 100.503 77.0701 103.142 78.8712 105.992C82.3577 111.502 83.5906 118.918 83.7447 125.438C76.5019 125.149 70.3185 119.457 67.3617 116.365C62.6809 111.502 57.191 99.8477 62.2378 97.0835Z" fill="#455A64"/>
<path d="M101.466 148.679C101.043 147.908 100.349 147.369 99.6557 145.953C98.2977 143.131 96.4677 139.105 95.5816 134.328C94.6955 129.541 95.2927 125.014 96.487 122.067C97.0648 120.584 97.7198 119.457 98.2399 118.744C98.76 118.022 99.0971 117.675 99.1356 117.695C99.2608 117.772 97.9798 119.293 96.9782 122.241C95.9476 125.159 95.4468 129.532 96.304 134.203C97.1708 138.874 98.8948 142.871 100.137 145.741" fill="#263238"/>
<path d="M101.534 148.765C100.561 147.513 99.2993 145.876 97.7583 143.902C94.5896 139.789 90.188 134.116 85.2472 127.913C80.3063 121.72 75.7603 116.163 72.4567 112.157C70.8772 110.221 69.5577 108.622 68.556 107.399C67.641 106.272 67.1595 105.626 67.1884 105.598C67.2269 105.569 67.7855 106.147 68.7679 107.216C69.7503 108.285 71.1468 109.864 72.842 111.829C76.2515 115.759 80.8649 121.268 85.8058 127.47C90.7467 133.673 95.0904 139.404 98.1532 143.603C99.6846 145.703 100.917 147.407 101.736 148.611" fill="#263238"/>
<path d="M72.8709 137.304C72.8612 137.256 73.3043 137.121 74.123 136.919C74.5371 136.813 75.0379 136.697 75.6351 136.63C76.2322 136.553 76.9064 136.428 77.6673 136.408C79.1794 136.293 80.9901 136.351 82.9838 136.611C84.9679 136.909 87.1253 137.429 89.302 138.258C91.4594 139.115 93.4049 140.193 95.0712 141.311C96.7181 142.466 98.0954 143.651 99.126 144.759C99.6749 145.279 100.089 145.837 100.474 146.29C100.869 146.743 101.168 147.167 101.399 147.523C101.871 148.226 101.803 148.553 101.765 148.582C101.649 148.669 100.908 147.186 98.7696 145.115C97.7102 144.075 96.3232 142.958 94.6955 141.86C93.0486 140.8 91.1416 139.76 89.0419 138.932C86.923 138.123 84.8234 137.603 82.8971 137.275C80.9612 136.986 79.189 136.871 77.6962 136.919C74.7105 137.005 72.8998 137.449 72.8709 137.304Z" fill="#263238"/>
<path d="M234.437 383.058L123.195 382.547C109.817 382.489 99.02 371.596 99.0778 358.209L100.253 79.3232C100.311 65.9356 111.213 55.1292 124.601 55.1966L235.843 55.7071C249.221 55.7649 260.018 66.6579 259.96 80.0455L258.785 358.931C258.727 372.319 247.825 383.125 234.437 383.058Z" fill="#263238"/>
<path d="M235.679 65.3289L214.115 65.2325C211.225 65.2229 208.866 67.6596 208.856 70.6839L208.837 74.5942C208.827 77.6185 206.467 80.0552 203.578 80.0456L161.537 79.8529C158.648 79.8433 156.307 77.3777 156.327 74.3534L156.346 70.4431C156.356 67.4189 154.025 64.9532 151.135 64.9436L143.546 64.9051L124.668 64.8184C115.297 64.7799 107.659 72.3405 107.621 81.7214L106.475 353.933C106.436 363.304 113.997 370.932 123.368 370.98L234.389 371.49C243.76 371.539 251.398 363.968 251.436 354.587L252.582 82.3764C252.611 73.005 245.051 65.377 235.679 65.3289Z" fill="#FAFAFA"/>
<path d="M172.854 345.428C172.844 346.516 171.823 347.393 170.552 347.383C169.29 347.374 168.27 346.488 168.27 345.409C168.279 344.321 169.3 343.444 170.571 343.454C171.833 343.454 172.854 344.34 172.854 345.428Z" fill="#455A64"/>
<path d="M179.952 345.457C179.952 346.545 178.922 347.422 177.65 347.412C176.389 347.402 175.368 346.516 175.368 345.438C175.368 344.349 176.398 343.473 177.67 343.483C178.941 343.492 179.952 344.369 179.952 345.457Z" fill="#455A64"/>
<path d="M187.051 345.495C187.051 346.584 186.02 347.46 184.749 347.451C183.487 347.441 182.466 346.555 182.466 345.476C182.476 344.388 183.497 343.511 184.768 343.521C186.03 343.521 187.051 344.407 187.051 345.495Z" fill="#455A64"/>
<path d="M140.801 196.566C142.612 196.826 251.735 218.227 251.735 218.227V196.566H140.801Z" fill="#EBEBEB"/>
<path d="M106.465 334.092C106.465 334.092 225.181 317.295 224.141 317.815C223.11 318.335 106.465 317.815 106.465 317.815V334.092Z" fill="#EBEBEB"/>
<path d="M244.328 16.2667C244.463 16.2667 244.579 22.2671 244.579 29.6736C244.579 37.0801 244.463 43.0804 244.328 43.0804C244.194 43.0804 244.078 37.0801 244.078 29.6736C244.078 22.2671 244.184 16.2667 244.328 16.2667Z" fill="#263238"/>
<path d="M291.83 47.1159C291.888 47.2411 286.437 49.7645 279.666 52.7599C272.895 55.7456 267.357 58.0668 267.299 57.9416C267.241 57.8164 272.683 55.2929 279.464 52.2976C286.234 49.3119 291.772 46.9907 291.83 47.1159Z" fill="#263238"/>
<path d="M290.626 0.336461C290.646 0.346093 290.549 0.519457 290.366 0.846924C290.154 1.22255 289.875 1.68485 289.538 2.26273C288.816 3.49555 287.746 5.25809 286.398 7.41551C283.701 11.74 279.82 17.6248 275.428 24.0392C271.026 30.4537 267.107 36.3 264.333 40.5667C262.975 42.6663 261.867 44.3807 261.058 45.6327C260.692 46.1914 260.393 46.644 260.153 47.0004C259.941 47.3086 259.825 47.4723 259.806 47.4627C259.787 47.4531 259.883 47.2797 260.066 46.9522C260.278 46.5766 260.557 46.1143 260.885 45.5364C261.607 44.3036 262.676 42.5507 264.024 40.3837C266.721 36.0592 270.603 30.1744 275.004 23.7599C279.396 17.3454 283.326 11.5088 286.09 7.23251C287.448 5.13288 288.556 3.4185 289.365 2.16642C289.731 1.6078 290.029 1.15513 290.27 0.798767C290.491 0.490563 290.617 0.32683 290.626 0.336461Z" fill="#263238"/>
<path d="M357.217 113.726H140.088C135.398 113.726 131.593 117.531 131.593 122.221V189.573C131.593 194.264 135.398 198.068 140.088 198.068H156.269C157.569 205.099 159.1 213.979 159.1 213.979L173.74 198.068H357.227C361.918 198.068 365.722 194.264 365.722 189.573V122.221C365.712 117.531 361.908 113.726 357.217 113.726Z" fill="#0065E5"/>
<path d="M267.636 150.258C267.636 150.393 241.795 150.509 209.925 150.509C178.045 150.509 152.204 150.393 152.204 150.258C152.204 150.123 178.045 150.008 209.925 150.008C241.795 150.008 267.636 150.123 267.636 150.258Z" fill="#F5F5F5"/>
<path d="M267.636 139.904C267.636 140.039 241.795 140.155 209.925 140.155C178.045 140.155 152.204 140.039 152.204 139.904C152.204 139.77 178.045 139.654 209.925 139.654C241.795 139.654 267.636 139.77 267.636 139.904Z" fill="#F5F5F5"/>
<path d="M267.636 160.496C267.636 160.631 241.795 160.747 209.925 160.747C178.045 160.747 152.204 160.631 152.204 160.496C152.204 160.361 178.045 160.246 209.925 160.246C241.795 160.246 267.636 160.361 267.636 160.496Z" fill="#F5F5F5"/>
<path d="M227.811 171.11C227.811 171.245 210.879 171.36 190.007 171.36C169.127 171.36 152.204 171.245 152.204 171.11C152.204 170.975 169.127 170.86 190.007 170.86C210.888 170.86 227.811 170.966 227.811 171.11Z" fill="#F5F5F5"/>
<path d="M259.112 234.812H40.2013C36.917 234.812 34.2587 237.47 34.2587 240.754V312.017C34.2587 315.301 36.917 317.959 40.2013 317.959H199.196L213.672 333.687C213.672 333.687 215.193 324.846 216.465 317.959H259.112C262.397 317.959 265.055 315.301 265.055 312.017V240.754C265.055 237.47 262.397 234.812 259.112 234.812Z" fill="#455A64"/>
<path d="M250.531 271.565C250.531 271.7 224.69 271.816 192.82 271.816C160.94 271.816 135.099 271.7 135.099 271.565C135.099 271.43 160.94 271.315 192.82 271.315C224.68 271.305 250.531 271.421 250.531 271.565Z" fill="#F5F5F5"/>
<path d="M250.531 261.211C250.531 261.346 224.69 261.462 192.82 261.462C160.94 261.462 135.099 261.346 135.099 261.211C135.099 261.076 160.94 260.961 192.82 260.961C224.68 260.961 250.531 261.067 250.531 261.211Z" fill="#F5F5F5"/>
<path d="M250.531 281.803C250.531 281.938 224.69 282.054 192.82 282.054C160.94 282.054 135.099 281.938 135.099 281.803C135.099 281.668 160.94 281.553 192.82 281.553C224.68 281.553 250.531 281.659 250.531 281.803Z" fill="#F5F5F5"/>
<path d="M210.705 292.407C210.705 292.542 193.773 292.658 172.902 292.658C152.021 292.658 135.099 292.542 135.099 292.407C135.099 292.273 152.021 292.157 172.902 292.157C193.773 292.157 210.705 292.263 210.705 292.407Z" fill="#F5F5F5"/>
<path d="M302.637 85.1598C302.762 83.3877 301.182 80.9509 299.728 79.5448C298.264 78.1386 297.359 76.2412 298.119 73.4096C298.707 71.2233 300.094 71.387 300.643 70.0964C301.047 69.1429 300.874 68.0545 300.961 67.024C301.25 63.4797 305.141 60.7058 308.589 61.5919C309.562 58.2209 312.701 55.5916 316.188 55.2352C319.674 54.8692 323.286 56.7955 324.933 59.8968C326.927 58.8662 329.431 58.8951 331.386 59.9931C333.341 61.0911 334.699 63.1907 334.863 65.4348C336.799 64.0383 339.775 64.5776 341.316 66.4076C342.848 68.2472 342.944 71.0499 341.778 73.1399C340.613 75.2299 338.359 76.5879 335.99 76.9539C333.63 77.3199 331.184 76.7613 329.036 75.6922C326.898 74.6231 325.029 73.0725 323.334 71.387" fill="#263238"/>
<path d="M318.384 195.843C341.411 195.843 360.078 177.612 360.078 155.122C360.078 132.632 341.411 114.401 318.384 114.401C295.357 114.401 276.69 132.632 276.69 155.122C276.69 177.612 295.357 195.843 318.384 195.843Z" fill="#E0E0E0"/>
<path d="M360.251 155.151L355.638 143.314L339.101 153.706L353.837 176.436C353.837 176.436 359.828 168.654 360.251 155.151Z" fill="#EB996E"/>
<path d="M314.589 129.531C320.532 129.541 325.434 124.928 325.733 119.043C325.973 114.141 326.185 109.421 326.185 109.421C326.185 109.421 335.287 108.766 336.125 99.8669C336.963 90.9675 337.078 70.4046 337.078 70.4046C327.042 65.1362 314.917 65.666 305.382 71.7819L304.515 72.3405L303.465 118.369C303.397 124.504 308.396 129.522 314.589 129.531Z" fill="#FFBE9D"/>
<path d="M319.809 84.0811C320.493 84.3027 320.869 85.0443 320.638 85.7185C320.406 86.4023 319.665 86.7683 318.981 86.5371C318.297 86.3156 317.922 85.574 318.153 84.8998C318.384 84.2256 319.125 83.8596 319.809 84.0811Z" fill="#263238"/>
<path d="M322.304 84.5435C322.15 84.6879 321.312 83.9656 320.069 83.8885C318.827 83.7922 317.893 84.3894 317.767 84.2256C317.7 84.1486 317.864 83.8789 318.268 83.6092C318.673 83.3396 319.347 83.0891 320.117 83.1469C320.888 83.2047 321.524 83.5418 321.88 83.8693C322.256 84.1967 322.371 84.4857 322.304 84.5435Z" fill="#263238"/>
<path d="M333.39 84.0811C334.073 84.3027 334.449 85.0443 334.218 85.7185C333.987 86.4023 333.245 86.7683 332.561 86.5371C331.877 86.3156 331.502 85.574 331.733 84.8998C331.964 84.2256 332.706 83.8596 333.39 84.0811Z" fill="#263238"/>
<path d="M336.048 84.5723C335.894 84.7167 335.056 83.9944 333.813 83.9173C332.571 83.821 331.637 84.4182 331.511 84.2544C331.444 84.1774 331.608 83.9077 332.012 83.638C332.417 83.3684 333.091 83.1276 333.861 83.1757C334.632 83.2335 335.268 83.5706 335.624 83.8981C336 84.2159 336.125 84.5049 336.048 84.5723Z" fill="#263238"/>
<path d="M326.705 94.1941C326.705 94.0977 327.486 94.0014 328.738 93.934C329.065 93.9244 329.325 93.8762 329.364 93.7029C329.441 93.5102 329.344 93.1635 329.21 92.7686C328.959 91.9307 328.699 91.0831 328.439 90.197C327.38 86.5371 326.667 83.5321 326.859 83.4744C327.042 83.4166 328.063 86.3445 329.123 90.0044C329.373 90.9001 329.614 91.7477 329.845 92.5856C329.932 92.9709 330.125 93.4139 329.913 93.934C329.797 94.1941 329.527 94.3674 329.315 94.4059C329.094 94.4541 328.911 94.4348 328.757 94.4348C327.485 94.3674 326.705 94.2904 326.705 94.1941Z" fill="#263238"/>
<path d="M326.205 109.296C326.205 109.296 320.493 109.296 314.762 105.049C314.762 105.049 317.007 111.685 326.041 111.598L326.205 109.296Z" fill="#EB996E"/>
<path d="M304.293 85.4006C304.303 84.6783 303.744 84.0619 303.022 84.0234C301.346 83.9463 298.582 84.5531 298.235 89.1376C297.744 95.6869 304.139 94.1748 304.158 93.9918C304.187 93.8377 304.264 87.9433 304.293 85.4006Z" fill="#FFBE9D"/>
<path d="M302.762 91.3817C302.733 91.3624 302.637 91.4491 302.444 91.5262C302.251 91.5936 301.914 91.6321 301.587 91.478C300.913 91.1698 300.402 90.0333 300.46 88.8486C300.489 88.2515 300.653 87.6929 300.903 87.2402C301.144 86.7779 301.481 86.4601 301.837 86.4312C302.194 86.3734 302.425 86.6045 302.492 86.7972C302.569 86.9898 302.511 87.115 302.55 87.1246C302.569 87.1439 302.704 87.0283 302.665 86.749C302.646 86.6142 302.579 86.4601 302.434 86.3156C302.29 86.1711 302.059 86.0941 301.808 86.1037C301.298 86.1037 300.807 86.5275 300.527 87.0283C300.229 87.5292 300.027 88.1552 299.988 88.8198C299.93 90.1393 300.518 91.4299 301.452 91.7766C301.905 91.9307 302.309 91.8247 302.521 91.6803C302.733 91.5358 302.781 91.401 302.762 91.3817Z" fill="#EB996E"/>
<path d="M316.438 81.0569C316.766 81.4806 317.902 81.2784 319.385 81.2206C320.859 81.105 322.015 81.1628 322.285 80.7005C322.593 80.2286 321.158 79.1306 319.26 79.2943C317.353 79.3617 316.072 80.6234 316.438 81.0569Z" fill="#263238"/>
<path d="M330.866 80.6235C331.049 81.1917 332.128 81.3651 333.332 81.3555C334.536 81.3266 335.614 81.1339 335.778 80.5561C335.951 79.9974 334.853 79.1884 333.303 79.2173C331.752 79.2366 330.683 80.0649 330.866 80.6235Z" fill="#263238"/>
<path d="M338.34 73.2169C338.34 73.2169 332.946 75.827 325.916 72.3212C321.302 70.0193 315.937 68.8925 314.753 69.8267C313.568 70.7513 313.318 75.4996 308.753 76.8865C308.753 76.8865 309.07 85.9496 305.449 85.6221C301.837 85.2947 304.091 71.2618 304.091 71.2618L312.933 66.9469L322.574 65.1266L331.665 66.4076L338.696 68.3338L338.34 73.2169Z" fill="#263238"/>
<path d="M277.845 125.65C287.294 115.932 303.918 117.001 303.918 117.001L317.7 126.864L325.511 117.762C325.511 117.762 333.727 118.667 341.422 122.684L341.952 122.847L341.942 122.953C347.991 126.238 356.543 134.106 364.701 141.744L354.945 150.798L344.148 160.381C344.148 160.381 344.186 160.448 344.167 160.573C344.051 161.151 345.67 174.346 347.326 184.363C337.492 193.753 324.952 197.77 311.035 195.323C306.614 194.553 304.476 193.474 300.393 192.395C294.344 190.806 289.962 185.567 289.422 179.335C288.69 170.937 288.122 160.535 288.122 160.535" fill="#455A64"/>
<path d="M334.15 119.467C334.179 119.457 334.391 120.006 334.748 121.017C335.104 122.029 335.585 123.493 336.154 125.313C337.29 128.954 338.745 134.029 340.112 139.693C341.48 145.356 342.501 150.537 343.156 154.294C343.483 156.172 343.724 157.703 343.868 158.753C344.013 159.812 344.08 160.4 344.051 160.4C344.013 160.41 343.888 159.832 343.676 158.782C343.454 157.655 343.165 156.162 342.809 154.351C342.067 150.614 340.989 145.452 339.631 139.798C338.263 134.145 336.876 129.069 335.826 125.4C335.316 123.627 334.892 122.163 334.574 121.056C334.266 120.045 334.122 119.476 334.15 119.467Z" fill="#263238"/>
<path d="M343.021 154.188C342.934 154.082 347.056 150.576 352.219 146.367C357.391 142.158 361.648 138.826 361.735 138.932C361.821 139.038 357.699 142.543 352.537 146.752C347.374 150.961 343.108 154.294 343.021 154.188Z" fill="#263238"/>
<path opacity="0.2" d="M290.308 138.99L281.852 166.795L285.002 168.433L288.103 160.564C288.103 160.564 291.291 144.046 290.308 138.99Z" fill="black"/>
<g opacity="0.2">
<path d="M333.235 119.476C337.791 121.875 326.368 127.663 321.216 127.509L324.962 117.627C324.962 117.627 331.704 118.677 333.235 119.476Z" fill="black"/>
</g>
<path d="M302.56 117.627V110.259C302.56 110.259 316.939 113.958 317.469 122.568C317.469 122.568 319.299 113.052 326.705 112.6L327.755 125.978L319.135 133.48H310.39L303.465 127.509L302.56 118.215" fill="#455A64"/>
<path d="M320.695 163.848C320.657 163.848 320.657 163.28 320.666 162.269C320.686 161.248 320.705 159.774 320.715 157.963C320.724 154.323 320.609 149.305 320.156 143.776C319.694 138.248 318.981 133.269 318.365 129.686C318.056 127.962 317.806 126.527 317.613 125.448C317.43 124.446 317.344 123.888 317.373 123.878C317.411 123.868 317.556 124.417 317.796 125.4C318.047 126.392 318.355 127.827 318.711 129.618C319.414 133.191 320.195 138.181 320.657 143.728C321.119 149.276 321.177 154.323 321.071 157.963C321.023 159.784 320.946 161.257 320.869 162.278C320.792 163.289 320.734 163.848 320.695 163.848Z" fill="#263238"/>
<path d="M316.804 120.093C316.795 120.131 316.477 119.968 315.947 120.17C315.398 120.343 314.907 121.027 314.502 122.009C313.616 123.926 312.528 126.681 311.767 129.965L311.69 130.292L311.401 130.119C310.544 129.599 309.658 129.04 308.772 128.434C307.057 127.268 305.478 126.074 304.11 124.889C303.417 124.292 302.848 123.579 302.521 122.809C302.194 122.038 302.068 121.277 302.039 120.584C301.982 119.197 302.213 118.109 302.357 117.367C302.521 116.626 302.637 116.221 302.675 116.231C302.714 116.24 302.656 116.654 302.55 117.406C302.463 118.157 302.29 119.245 302.396 120.574C302.454 121.229 302.588 121.952 302.906 122.645C303.224 123.339 303.744 123.984 304.418 124.543C305.776 125.679 307.356 126.864 309.061 128.019C309.937 128.617 310.814 129.175 311.661 129.695L311.295 129.849C312.085 126.527 313.25 123.762 314.223 121.865C314.464 121.393 314.695 120.96 314.984 120.623C315.263 120.285 315.61 120.083 315.899 119.996C316.506 119.833 316.824 120.083 316.804 120.093Z" fill="#263238"/>
<path d="M326.705 112.6C326.744 112.6 326.782 113.004 326.84 113.746C326.898 114.593 326.975 115.643 327.071 116.876C327.177 118.195 327.341 119.765 327.611 121.489C327.717 122.337 328.015 123.271 327.784 124.311C327.485 125.342 326.715 126.112 325.896 126.729C324.741 127.586 323.537 128.222 322.728 129.137L322.342 129.57L322.304 128.992C322.102 125.949 321.09 123.445 320.175 121.817C319.26 120.179 318.509 119.332 318.567 119.284C318.586 119.265 318.788 119.457 319.135 119.852C319.472 120.247 319.944 120.844 320.435 121.663C321.437 123.281 322.545 125.823 322.776 128.954L322.352 128.809C323.228 127.808 324.481 127.143 325.579 126.324C326.359 125.737 327.052 125.014 327.293 124.186C327.495 123.339 327.245 122.424 327.139 121.547C326.888 119.804 326.763 118.215 326.705 116.886C326.638 115.556 326.628 114.478 326.638 113.736C326.648 113.014 326.667 112.6 326.705 112.6Z" fill="#263238"/>
<path d="M373.003 114.449C372.416 115.142 351.246 143.449 351.246 143.449L354.232 145.134L375.96 117.184L373.003 114.449Z" fill="#263238"/>
<path d="M287.93 136.832C287.93 136.832 310.207 168.895 311.546 169.53C314.194 170.773 344.668 144.431 347.577 141.917C347.981 141.378 348.8 140.251 350.427 138.007C350.427 138.007 352.835 127.008 355.397 127.846C357.959 128.694 353.991 133.442 355.667 137.622C357.343 141.802 364.99 131.833 365.298 130.938L367.273 128.356C367.273 128.356 369.343 134.222 369.199 136.678C368.746 144.527 361.32 153.86 361.32 153.86C361.32 153.86 327.967 195.179 305.121 196.46C298.543 196.826 286.851 178.16 279.03 164.156C274.311 155.7 276.661 145.048 284.491 139.346L287.93 136.832Z" fill="#FFBE9D"/>
<path d="M365.452 138.065C365.375 138.017 366.088 136.755 366.878 135.156C367.668 133.557 368.236 132.228 368.322 132.257C368.4 132.286 367.947 133.673 367.147 135.291C366.348 136.909 365.51 138.113 365.452 138.065Z" fill="#EB996E"/>
<path d="M284.164 121.181C284.164 121.181 260.249 129.686 278.028 169.887L305.632 153.225L301.702 143.824L284.164 121.181Z" fill="#455A64"/>
<path d="M282.324 121.875C282.324 121.875 283.364 121.701 285.204 122.115C286.109 122.346 287.198 122.751 288.344 123.435C289.49 124.119 290.674 125.082 291.83 126.295C294.151 128.713 296.318 132.093 298.322 135.994C300.344 139.904 302.232 144.354 304.168 149.035C304.746 150.441 305.324 151.818 305.863 153.128L305.95 153.34L305.757 153.446C297.773 157.799 290.819 161.874 285.897 164.927C283.441 166.448 281.476 167.701 280.138 168.567C279.492 168.981 278.982 169.309 278.587 169.559C278.231 169.781 278.038 169.896 278.028 169.877C278.019 169.868 278.192 169.723 278.529 169.482C278.866 169.232 279.367 168.866 280.032 168.413C281.342 167.498 283.278 166.198 285.714 164.638C290.588 161.508 297.522 157.376 305.507 153.003L305.401 153.321C304.861 152.011 304.284 150.634 303.706 149.228C301.77 144.547 299.901 140.107 297.908 136.206C295.933 132.305 293.814 128.944 291.57 126.536C290.453 125.332 289.307 124.369 288.199 123.676C287.092 122.982 286.042 122.558 285.165 122.298C283.374 121.846 282.324 121.952 282.324 121.875Z" fill="#263238"/>
<path d="M333.765 62.2661C333.784 62.2661 333.823 62.4106 333.881 62.6899C333.929 62.9692 333.987 63.393 333.948 63.942C333.89 65.011 333.505 66.6676 332.128 68.1123C330.789 69.5571 328.256 70.472 325.694 69.74C324.442 69.3741 323.171 68.6132 322.4 67.3515C322.025 66.7254 321.803 65.9549 321.909 65.1748C322.015 64.4139 322.4 63.6434 323.094 63.1907C323.787 62.7188 324.702 62.7284 325.405 63.0463C326.118 63.3448 326.705 63.9323 326.985 64.6354C327.553 66.0512 327.129 67.573 326.349 68.6421C324.692 70.838 321.697 71.0114 320.031 70.0194C319.154 69.6148 318.384 69.2392 317.652 69.1044C316.93 68.9599 316.284 69.0851 315.812 69.297C314.868 69.7497 314.483 70.2505 314.445 70.2024C314.435 70.1927 314.531 70.0771 314.724 69.8749C314.82 69.7689 314.945 69.6437 315.119 69.5185C315.283 69.3933 315.475 69.2392 315.735 69.1236C316.217 68.8636 316.92 68.6999 317.71 68.8347C318.499 68.9503 319.308 69.3259 320.185 69.7015C320.628 69.8749 321.081 70.0771 321.572 70.1638C322.053 70.2505 322.593 70.2409 323.122 70.1349C324.182 69.9423 325.27 69.3644 325.983 68.382C326.676 67.4285 327.023 66.032 326.532 64.8377C326.099 63.6723 324.481 62.8921 323.363 63.6241C322.824 63.9805 322.487 64.6162 322.4 65.2615C322.304 65.9068 322.487 66.5617 322.824 67.1203C323.498 68.2376 324.664 68.9695 325.829 69.3163C328.208 70.029 330.596 69.2199 331.887 67.8812C333.226 66.5521 333.659 64.9822 333.765 63.942C333.871 62.8633 333.707 62.2757 333.765 62.2661Z" fill="#455A64"/>
<path d="M328.555 98.5859C328.564 98.6437 328.256 98.7689 327.726 98.7978C327.197 98.8267 326.455 98.7015 325.723 98.3355C325.001 97.9695 324.461 97.4398 324.163 96.9967C323.864 96.5537 323.787 96.2359 323.845 96.207C323.97 96.1299 324.615 97.2279 325.954 97.8828C327.283 98.5763 328.545 98.4414 328.555 98.5859Z" fill="#263238"/>
<path d="M303.301 94.3288C303.349 94.2903 303.619 94.7526 303.263 95.4172C303.089 95.7254 302.771 96.0625 302.28 96.1973C301.789 96.3322 301.202 96.1781 300.787 95.8025C300.364 95.4365 300.132 94.8971 300.152 94.4059C300.171 93.9147 300.373 93.5198 300.595 93.2501C301.057 92.7108 301.529 92.653 301.539 92.7108C301.577 92.7782 301.202 92.9516 300.884 93.462C300.556 93.934 300.431 94.8586 301.115 95.4268C301.433 95.6965 301.837 95.8217 302.174 95.7447C302.521 95.6772 302.791 95.4557 302.964 95.2246C303.311 94.7526 303.224 94.3385 303.301 94.3288Z" fill="#263238"/>
<path d="M335.354 65.5119C335.402 65.4926 335.759 66.1283 335.817 67.2841C335.884 68.4109 335.557 70.0964 334.391 71.4544C333.207 72.8125 331.598 73.3711 330.462 73.4578C329.315 73.5637 328.632 73.294 328.641 73.2459C328.651 73.1592 329.344 73.2844 330.413 73.1014C331.463 72.9281 332.927 72.3502 334.006 71.1174C335.075 69.8749 335.441 68.3435 335.46 67.2841C335.489 66.1957 335.268 65.5312 335.354 65.5119Z" fill="#455A64"/>
<path d="M302.781 146.097C302.839 146.223 296.492 149.488 288.594 153.388C280.696 157.289 274.253 160.352 274.186 160.236C274.128 160.111 280.475 156.846 288.373 152.945C296.27 149.035 302.714 145.972 302.781 146.097Z" fill="#E0E0E0"/>
<path d="M296.993 135.166C297.06 135.291 291.406 138.45 284.366 142.226C277.325 146.001 271.566 148.968 271.498 148.842C271.431 148.717 277.085 145.558 284.125 141.783C291.166 138.017 296.925 135.05 296.993 135.166Z" fill="#E0E0E0"/>
<path d="M291.397 126.334C291.426 126.401 290.337 127.018 288.565 128.01C286.668 129.069 284.289 130.398 281.65 131.872C279.03 133.365 276.651 134.723 274.773 135.792C273.011 136.794 271.913 137.41 271.874 137.343C271.836 137.285 272.866 136.572 274.59 135.484C276.304 134.395 278.703 132.951 281.409 131.429C284.106 129.907 286.591 128.597 288.401 127.692C290.222 126.787 291.368 126.276 291.397 126.334Z" fill="#E0E0E0"/>
<path d="M312.547 124.244C312.538 124.302 311.796 124.205 310.688 123.743C309.581 123.29 308.146 122.424 306.797 121.21C305.439 119.996 304.39 118.735 303.658 117.81C302.926 116.876 302.521 116.279 302.569 116.231C302.627 116.182 303.128 116.712 303.927 117.579C304.727 118.446 305.805 119.65 307.134 120.834C308.454 122.019 309.812 122.905 310.843 123.425C311.873 123.955 312.576 124.176 312.547 124.244Z" fill="#E0E0E0"/>
<path d="M326.599 119.033C326.725 119.072 326.137 120.632 324.596 121.923C323.065 123.223 321.427 123.531 321.408 123.406C321.36 123.262 322.843 122.761 324.269 121.547C325.723 120.334 326.465 118.956 326.599 119.033Z" fill="#E0E0E0"/>
<path d="M351.641 133.528C351.641 133.548 351.458 133.577 351.102 133.625C350.687 133.673 350.177 133.74 349.551 133.817C348.203 133.962 346.247 134.155 343.84 134.338C339.005 134.723 332.32 135.098 324.933 135.368C317.546 135.628 310.852 135.724 305.998 135.686C303.571 135.667 301.616 135.619 300.258 135.57C299.622 135.541 299.112 135.513 298.697 135.493C298.341 135.474 298.158 135.445 298.158 135.436C298.158 135.416 298.351 135.407 298.707 135.397C299.121 135.397 299.632 135.387 300.267 135.387C301.693 135.378 303.629 135.358 305.998 135.339C310.843 135.291 317.527 135.137 324.914 134.877C332.292 134.607 338.976 134.289 343.811 133.991C346.17 133.837 348.116 133.721 349.532 133.625C350.158 133.586 350.678 133.557 351.092 133.528C351.458 133.509 351.641 133.509 351.641 133.528Z" fill="#E0E0E0"/>
<path d="M344.042 144.942C344.042 144.98 343.483 145.067 342.462 145.192C341.441 145.317 339.958 145.481 338.119 145.645C334.449 145.982 329.373 146.329 323.758 146.56C318.143 146.781 313.048 146.849 309.369 146.81C307.529 146.791 306.036 146.752 305.006 146.714C303.975 146.666 303.407 146.627 303.407 146.589C303.407 146.55 303.975 146.531 305.006 146.512C306.123 146.492 307.587 146.473 309.369 146.454C313.048 146.406 318.133 146.29 323.739 146.059C329.344 145.828 334.42 145.539 338.099 145.288C339.871 145.173 341.335 145.067 342.453 144.999C343.464 144.932 344.032 144.913 344.042 144.942Z" fill="#E0E0E0"/>
<path d="M326.773 159.032C326.782 159.1 325.559 159.283 323.585 159.485C321.601 159.687 318.865 159.909 315.832 160.063C312.798 160.217 310.053 160.265 308.059 160.265C306.065 160.256 304.842 160.198 304.842 160.13C304.842 160.063 306.075 159.996 308.059 159.909C310.188 159.813 312.855 159.697 315.812 159.562C318.769 159.398 321.437 159.254 323.566 159.138C325.54 159.013 326.773 158.965 326.773 159.032Z" fill="#E0E0E0"/>
<path d="M304.707 125.602C304.707 125.746 301.751 125.775 298.11 125.929C294.469 126.074 291.522 126.286 291.512 126.141C291.493 126.006 294.431 125.573 298.091 125.429C301.741 125.284 304.707 125.477 304.707 125.602Z" fill="#E0E0E0"/>
<path d="M345.332 125.082C345.332 125.217 341.499 125.323 336.77 125.303C332.041 125.284 328.208 125.159 328.217 125.024C328.217 124.889 332.051 124.783 336.78 124.803C341.509 124.822 345.332 124.947 345.332 125.082Z" fill="#E0E0E0"/>
<path d="M346.816 183.689C346.835 183.718 346.517 183.901 345.939 184.19C345.361 184.488 344.504 184.883 343.435 185.326C341.287 186.231 338.244 187.291 334.786 188.09C331.319 188.89 328.121 189.265 325.79 189.39C324.625 189.458 323.691 189.477 323.036 189.458C322.381 189.448 322.025 189.419 322.025 189.39C322.025 189.313 323.46 189.256 325.762 189.034C328.063 188.813 331.232 188.389 334.671 187.599C338.109 186.8 341.143 185.808 343.3 184.989C345.467 184.199 346.777 183.621 346.816 183.689Z" fill="#E0E0E0"/>
<path d="M86.6437 314.791C109.671 314.791 128.338 296.982 128.338 275.013C128.338 253.045 109.671 235.236 86.6437 235.236C63.6166 235.236 44.9495 253.045 44.9495 275.013C44.9495 296.982 63.6166 314.791 86.6437 314.791Z" fill="#E0E0E0"/>
<path d="M78.1488 179.114C71.5321 179.46 68.9412 186.357 68.1418 187.898C67.3521 189.439 67.2269 191.22 67.0824 192.944C66.9379 194.668 66.7357 196.46 65.8111 197.924C64.3567 200.245 61.2939 201.449 60.4657 204.059C59.5218 207.016 61.9392 210.175 61.2939 213.209C60.9472 214.836 59.7626 216.175 59.3388 217.784C58.8957 219.469 59.358 221.28 60.2345 222.782C62.4112 226.51 66.909 228.388 71.2239 228.542C75.5387 228.696 79.7573 227.405 83.8891 226.124" fill="#263238"/>
<path d="M107.255 187.686C106.609 189.082 107.216 190.787 108.237 191.943C109.248 193.108 110.616 193.888 111.82 194.861C113.024 195.824 114.122 197.105 114.266 198.637C114.392 200.043 113.689 201.449 113.881 202.846C114.372 206.448 120.122 207.536 120.43 211.157C120.633 213.575 118.157 215.79 118.841 218.111C119.101 218.997 119.795 219.691 120.276 220.49C121.904 223.197 120.806 226.934 118.437 229.033C116.077 231.133 112.783 231.874 109.624 232.019C106.966 232.135 103.951 231.701 102.381 229.553C100.946 227.589 101.245 224.901 101.534 222.484C102.873 211.196 102.641 199.792 102.41 188.427" fill="#263238"/>
<path d="M79.8921 239.917C79.9403 233.984 79.8825 227.743 79.8825 227.743C79.8825 227.743 72.2545 226.385 70.7905 216.397C69.394 206.871 71.7633 186.395 71.7633 186.395C82.8105 182.042 95.2445 183.727 102.979 192.617L101.775 240.774C101.64 246.36 96.7181 250.694 90.7371 250.501C84.6982 250.299 79.844 245.561 79.8921 239.917Z" fill="#FFBE9D"/>
<path d="M73.8436 202.123C73.8147 202.797 74.3541 203.385 75.0572 203.424C75.7603 203.472 76.3574 202.961 76.3863 202.287C76.4152 201.613 75.8759 201.025 75.1728 200.987C74.4697 200.939 73.8725 201.449 73.8436 202.123Z" fill="#263238"/>
<path d="M71.7825 201.141C71.9366 201.314 72.919 200.601 74.2867 200.621C76.8775 200.996 76.8294 201.391 76.8101 201.17C76.8872 201.093 76.7234 200.794 76.29 200.467C75.8566 200.139 75.1246 199.821 74.2674 199.821C73.4102 199.812 72.6879 200.12 72.2641 200.438C71.8596 200.765 71.7055 201.064 71.7825 201.141Z" fill="#263238"/>
<path d="M87.915 202.528C87.8862 203.202 88.4255 203.789 89.1286 203.828C89.8317 203.876 90.4288 203.366 90.4577 202.691C90.4866 202.017 89.9473 201.43 89.2442 201.391C88.5507 201.343 87.9536 201.853 87.915 202.528Z" fill="#263238"/>
<path d="M86.1333 201.613C86.2874 201.786 87.2698 201.073 88.6374 201.093C90.0147 201.093 91.0164 201.815 91.1608 201.642C91.2379 201.565 91.0741 201.266 90.6407 200.938C90.2073 200.611 89.4753 200.293 88.6181 200.293C87.761 200.284 87.0386 200.592 86.6148 200.91C86.2007 201.237 86.0562 201.536 86.1333 201.613Z" fill="#263238"/>
<path d="M81.0191 211.475C81.0287 211.398 80.1715 211.244 78.7942 211.042C78.4475 211.003 78.1104 210.926 78.0526 210.685C77.9755 210.435 78.12 210.05 78.303 209.645C78.6401 208.798 78.9965 207.911 79.3721 206.987C80.8553 203.192 81.934 200.081 81.7896 200.014C81.6355 199.956 80.3063 202.98 78.8231 206.775C78.4667 207.709 78.12 208.605 77.7925 209.452C77.6577 209.847 77.4169 210.3 77.5903 210.83C77.6866 211.09 77.937 211.282 78.1585 211.35C78.3801 211.417 78.5823 211.427 78.7557 211.437C80.1522 211.542 81.0191 211.552 81.0191 211.475Z" fill="#263238"/>
<path d="M79.8825 227.743C79.8825 227.743 86.5859 228.253 93.2701 224.333C93.2701 224.333 89.9569 231.142 79.9885 230.093L79.8825 227.743Z" fill="#EB996E"/>
<path d="M81.568 214.798C82.0688 214.153 82.9453 213.796 83.8025 213.902C84.3996 213.97 84.9968 214.268 85.3531 214.759C85.7095 215.251 85.7769 215.944 85.4398 216.397C85.0642 216.917 84.284 217.023 83.6291 216.83C82.9742 216.638 82.4156 216.195 81.8858 215.761C81.7414 215.636 81.5873 215.511 81.5006 215.347C81.4139 215.183 81.3946 214.971 81.5102 214.837" fill="#EB996E"/>
<path d="M85.0546 212.477C84.833 212.457 84.8138 213.95 83.5232 215C82.2326 216.05 80.6434 215.867 80.6338 216.069C80.6145 216.166 80.9805 216.368 81.6547 216.387C82.3096 216.416 83.2824 216.214 84.0625 215.578C84.8523 214.933 85.199 214.076 85.2568 213.459C85.3242 212.843 85.1605 212.467 85.0546 212.477Z" fill="#263238"/>
<path d="M98.654 185.509C95.0037 190.71 85.3531 196.055 78.4378 197.298C79.2468 196.238 83.4943 193.619 84.3033 192.559C81.1731 194.9 76.6849 198.03 72.5241 198.242C72.0329 198.271 71.5032 198.271 71.0987 198.02C70.5497 197.683 70.4341 197.028 70.3763 196.45C70.1067 194.014 70.28 189.834 70.6653 187.416C71.0505 184.999 72.1678 182.591 74.2578 180.973C76.9257 178.912 80.7301 178.411 84.3226 178.324C87.3372 178.247 90.4385 178.43 93.193 179.518C95.9476 180.607 98.2977 182.754 98.7022 185.336" fill="#263238"/>
<path d="M109.114 208.807C109.614 206.226 110.019 203.78 110.106 202.142C110.404 196.999 108.911 178.016 91.1801 179.547L90.4673 184.951C90.4673 184.951 87.7224 203.433 99.1933 203.578C99.1933 203.578 99.829 209.087 105.02 214.442C105.03 214.432 108.035 214.345 109.114 208.807Z" fill="#263238"/>
<path d="M99.203 203.568C100.272 203.375 101.399 203.414 102.41 203.809C103.422 204.204 104.308 204.964 104.731 205.966C105.155 206.968 105.107 208.133 104.722 209.154C104.337 210.175 103.662 211.061 102.873 211.812C102.314 212.352 101.669 212.853 100.927 213.074C100.176 213.296 99.2993 213.219 98.7118 212.708" fill="#FFBE9D"/>
<path d="M99.7135 210.04C99.5883 210.079 100.051 210.724 101.023 210.474C101.495 210.358 101.958 209.944 102.237 209.433C102.526 208.913 102.709 208.345 102.786 207.671C102.863 207.006 102.718 206.294 102.352 205.793C102.006 205.273 101.437 204.964 100.966 204.945C99.9639 204.907 99.646 205.6 99.7616 205.619C99.8387 205.706 100.234 205.35 100.888 205.513C101.515 205.639 102.121 206.505 101.977 207.584C101.842 208.682 101.409 209.674 100.821 209.925C100.214 210.233 99.7809 209.944 99.7135 210.04Z" fill="#EB996E"/>
<path d="M101.129 183.554C102.487 184.324 104.153 184.546 105.656 184.151C107.168 183.756 108.507 182.745 109.306 181.406C109.826 180.539 110.115 179.489 109.865 178.517C109.518 177.178 108.218 176.282 106.889 175.935C104.953 175.435 102.757 175.916 101.293 177.274C99.829 178.642 99.203 180.867 99.8483 182.764C100.494 184.652 102.449 186.048 104.452 185.942" fill="#263238"/>
<path d="M102.747 212.303C101.765 213.016 100.763 213.739 99.9928 214.682C99.2223 215.626 98.6925 216.821 98.7985 218.034C98.8659 218.708 99.1163 219.383 99.02 220.057C98.8852 220.981 98.1243 221.665 97.6235 222.465C96.3232 224.506 96.8819 227.377 98.5288 229.158C100.166 230.94 102.661 231.74 105.078 231.826C106.484 231.874 107.958 231.672 109.104 230.873C110.761 229.707 111.396 227.54 111.444 225.508" fill="#263238"/>
<path d="M103.951 187.532C103.999 187.56 103.653 188.283 102.911 189.352C102.169 190.411 101.004 191.798 99.4919 193.089C97.9798 194.379 96.4484 195.333 95.283 195.901C94.1176 196.479 93.3471 196.72 93.3278 196.662C93.2508 196.518 96.2172 195.266 99.1644 192.704C102.141 190.18 103.826 187.445 103.951 187.532Z" fill="#455A64"/>
<path d="M105.791 187.435C105.849 187.445 105.81 188.389 105.463 189.862C105.117 191.346 104.404 193.349 103.21 195.343C102.006 197.336 100.571 198.906 99.4245 199.898C98.2784 200.9 97.4597 201.372 97.4308 201.324C97.3153 201.198 100.445 199.022 102.786 195.083C105.174 191.172 105.627 187.387 105.791 187.435Z" fill="#455A64"/>
<path d="M67.2943 195.468C67.4388 195.458 67.6314 197.124 68.2093 199.099C68.7679 201.073 69.4999 202.585 69.3747 202.653C69.2687 202.72 68.3152 201.276 67.7277 199.234C67.1306 197.201 67.1691 195.468 67.2943 195.468Z" fill="#455A64"/>
<path d="M109.769 229.534C109.797 229.476 110.212 229.987 111.233 230.006C111.724 230.006 112.35 229.871 112.928 229.467C113.506 229.081 113.977 228.378 114.209 227.521C114.44 226.664 114.449 225.653 114.228 224.622C114.016 223.572 113.611 222.493 113.255 221.318C112.908 220.143 112.6 218.824 112.831 217.437C113.053 216.021 113.968 214.885 114.411 213.613C114.864 212.352 114.681 210.945 114.122 209.809C113.554 208.663 112.591 207.825 111.483 207.401C110.934 207.17 110.356 206.968 109.826 206.679C109.297 206.399 108.805 206.005 108.507 205.494C107.89 204.483 107.91 203.375 107.91 202.46C107.929 201.526 107.977 200.707 107.813 200.014C107.659 199.311 107.399 198.743 107.091 198.357C106.446 197.567 105.762 197.616 105.791 197.558C105.791 197.548 105.935 197.529 106.215 197.587C106.484 197.645 106.879 197.828 107.245 198.232C107.601 198.627 107.91 199.224 108.093 199.956C108.295 200.688 108.266 201.564 108.276 202.47C108.295 203.375 108.314 204.415 108.863 205.273C109.403 206.159 110.52 206.525 111.666 206.977C112.841 207.411 113.958 208.355 114.565 209.597C115.181 210.83 115.393 212.371 114.883 213.787C114.382 215.164 113.506 216.272 113.313 217.524C113.101 218.776 113.371 220.037 113.698 221.193C114.035 222.349 114.43 223.457 114.632 224.545C114.844 225.633 114.825 226.702 114.546 227.627C114.276 228.542 113.737 229.293 113.072 229.707C112.417 230.121 111.743 230.237 111.213 230.208C110.674 230.179 110.289 229.987 110.057 229.833C109.846 229.669 109.769 229.534 109.769 229.534Z" fill="#455A64"/>
<path d="M102.815 228.86C102.863 228.831 102.94 229.168 103.412 229.38C103.836 229.582 104.77 229.592 105.28 228.869C105.8 228.137 105.723 226.914 105.126 225.855C104.577 224.766 103.489 223.697 103.21 222.108C103.065 221.338 103.248 220.461 103.749 219.883C104.221 219.305 104.77 218.91 105.136 218.438C105.858 217.475 105.926 216.271 105.81 215.366C105.685 214.432 105.415 213.69 105.261 213.18C105.088 212.669 105.001 212.38 105.04 212.361C105.068 212.351 105.213 212.612 105.444 213.103C105.666 213.594 105.983 214.326 106.166 215.308C106.33 216.262 106.33 217.581 105.511 218.718C105.097 219.267 104.539 219.681 104.144 220.182C103.73 220.673 103.595 221.338 103.72 222.021C103.951 223.408 104.972 224.458 105.55 225.633C106.176 226.789 106.253 228.205 105.579 229.072C105.251 229.515 104.76 229.698 104.356 229.736C103.942 229.775 103.585 229.688 103.335 229.543C102.805 229.245 102.805 228.85 102.815 228.86Z" fill="#455A64"/>
<path d="M65.0694 226.346C65.0406 226.365 64.7612 226.095 64.2893 225.566C63.827 225.026 63.1239 224.237 62.6135 223.033C62.3534 222.436 62.1897 221.713 62.2089 220.933C62.2282 220.163 62.4594 219.286 63.0565 218.602C63.6536 217.909 64.5205 217.552 65.0406 216.907C65.5799 216.262 65.6473 215.328 65.4354 214.432C65.2236 213.517 64.8094 212.698 64.376 211.889C63.9618 211.071 63.5766 210.242 63.4418 209.366C63.2876 208.499 63.4803 207.584 63.9426 206.939C64.3856 206.284 64.9442 205.831 65.4065 205.407C66.3793 204.608 66.9283 203.741 67.0535 203.057C67.1884 202.383 66.9572 202.007 67.015 201.998C67.0246 201.988 67.092 202.075 67.1595 202.248C67.2269 202.422 67.2943 202.72 67.2461 203.086C67.1787 203.828 66.6105 204.82 65.6473 205.667C65.1947 206.11 64.6649 206.563 64.2893 207.16C63.9041 207.748 63.7596 208.509 63.9041 209.289C64.0389 210.078 64.4049 210.868 64.819 211.668C65.2428 212.457 65.7051 213.344 65.9266 214.326C66.1578 215.289 66.0904 216.435 65.4162 217.225C64.7612 217.995 63.9041 218.333 63.3936 218.92C62.8735 219.498 62.6423 220.259 62.6135 220.962C62.5749 221.675 62.7098 222.339 62.9313 222.917C63.3743 224.073 64.0196 224.892 64.4338 225.46C64.8576 226.009 65.0887 226.317 65.0694 226.346Z" fill="#455A64"/>
<path d="M105.232 184.816C105.097 184.883 104.423 183.409 102.882 182.263C101.36 181.088 99.7616 180.847 99.7905 180.693C99.7712 180.568 101.534 180.597 103.19 181.859C104.857 183.111 105.357 184.796 105.232 184.816Z" fill="#0065E5"/>
<path d="M106.619 175.589C106.667 175.56 106.995 175.935 107.255 176.677C107.515 177.419 107.669 178.546 107.341 179.73C107.014 180.915 106.301 181.811 105.704 182.311C105.097 182.822 104.625 182.976 104.597 182.928C104.558 182.86 104.953 182.6 105.454 182.061C105.964 181.531 106.561 180.674 106.86 179.605C107.158 178.536 107.081 177.496 106.918 176.783C106.754 176.061 106.552 175.627 106.619 175.589Z" fill="#455A64"/>
<path opacity="0.3" d="M57.7111 294.074C57.7111 294.074 81.6354 316.794 95.8609 312.681C110.086 308.569 114.295 297.897 114.295 297.897L114.642 294.074L113.217 293.139L58.4527 288.709L57.7111 294.074Z" fill="black"/>
<path d="M43.553 272.788L48.1664 260.951L64.7034 271.344L49.9675 294.074C49.9771 294.074 43.9768 286.292 43.553 272.788Z" fill="#EB996E"/>
<path d="M62.2186 240.09C69.914 236.074 79.8825 234.908 79.8825 234.908C82.7719 240.697 91.8928 241.429 97.4116 237.48L102.064 234.33C102.064 234.33 102.786 234.301 104.009 234.407C114.892 235.37 123.811 243.499 126.026 254.209C126.835 258.11 127.433 262.579 127.192 266.721C126.585 277.238 115.692 278.191 115.692 278.191C115.692 278.191 115.133 288.593 114.392 296.992C113.843 303.272 110.587 307.952 104.866 310.582C100.6 312.537 98.2495 313.442 92.7211 314.328C78.7652 316.563 65.3584 311.266 56.5264 301.798C58.183 291.772 59.7626 278.798 59.647 278.22C59.6277 278.095 59.6663 278.028 59.6663 278.028L48.8695 268.445L42.744 263.301C42.744 263.311 56.1797 243.374 62.2186 240.09Z" fill="#0065E5"/>
<path d="M75.6062 246.581C75.5676 246.678 74.6815 245.84 72.9383 245.84C72.0907 245.84 71.0409 246.09 70.1837 246.793C69.7599 247.14 69.3939 247.622 68.9605 248.113C68.5367 248.585 67.9877 249.134 67.2172 249.269C66.4371 249.413 65.7244 249.076 65.185 248.72C64.6264 248.363 64.1545 247.978 63.6729 247.699C62.7194 247.111 61.6407 247.169 60.8509 247.448C60.0419 247.728 59.5122 248.209 59.2136 248.585C58.915 248.96 58.7994 249.211 58.7609 249.201C58.7416 249.192 58.7898 248.912 59.0595 248.469C59.3292 248.045 59.8685 247.477 60.7353 247.121C61.5733 246.764 62.8157 246.658 63.9137 247.294C64.453 247.593 64.9346 247.978 65.4643 248.305C65.9844 248.633 66.5623 248.883 67.1498 248.777C67.7373 248.671 68.2093 248.238 68.6234 247.785C69.0472 247.323 69.4325 246.822 69.9236 246.437C70.906 245.666 72.0618 245.445 72.9768 245.483C73.9014 245.522 74.6045 245.811 75.0379 246.071C75.4328 246.341 75.6158 246.562 75.6062 246.581Z" fill="#FAFAFA"/>
<path d="M86.5763 260.951C86.5089 261.029 85.9406 259.959 84.2841 259.401C83.4846 259.131 82.4156 259.035 81.3658 259.43C80.8457 259.622 80.3448 259.959 79.7862 260.287C79.2372 260.605 78.5438 260.942 77.7636 260.826C76.9835 260.72 76.4056 260.162 76.0107 259.661C75.5966 259.15 75.2691 258.63 74.9031 258.207C74.1904 257.349 73.1406 257.051 72.3026 257.07C71.4454 257.08 70.7905 257.369 70.386 257.619C69.9815 257.879 69.7889 258.081 69.76 258.052C69.7407 258.043 69.8755 257.783 70.2704 257.455C70.6653 257.137 71.3588 256.771 72.2834 256.714C73.1887 256.646 74.4023 256.935 75.2402 257.898C75.6544 258.351 75.9914 258.871 76.3863 259.353C76.7716 259.825 77.2435 260.258 77.831 260.335C78.4185 260.422 79.0061 260.162 79.5454 259.863C80.0944 259.565 80.6145 259.208 81.2116 259.006C82.3963 258.592 83.5521 258.746 84.3996 259.083C85.2568 259.42 85.8443 259.911 86.1622 260.297C86.4993 260.682 86.5956 260.942 86.5763 260.951Z" fill="#FAFAFA"/>
<path d="M110.953 239.897C110.934 240.003 109.894 239.368 108.189 239.743C107.361 239.926 106.388 240.388 105.704 241.255C105.357 241.679 105.107 242.238 104.789 242.806C104.481 243.355 104.057 244.01 103.325 244.308C102.593 244.617 101.823 244.434 101.226 244.202C100.609 243.971 100.06 243.692 99.5305 243.528C98.4807 243.162 97.4308 243.442 96.7181 243.885C95.9958 244.328 95.572 244.915 95.3505 245.339C95.1386 245.772 95.0808 246.042 95.0326 246.032C95.0134 246.032 94.9941 245.744 95.1675 245.262C95.3408 244.79 95.7454 244.116 96.5159 243.586C97.2575 243.066 98.4518 242.69 99.6557 243.085C100.243 243.259 100.802 243.538 101.38 243.74C101.958 243.952 102.574 244.077 103.123 243.836C103.672 243.615 104.048 243.085 104.356 242.556C104.674 242.016 104.943 241.448 105.338 240.966C106.138 240.003 107.216 239.541 108.112 239.396C109.017 239.242 109.778 239.368 110.25 239.531C110.741 239.705 110.963 239.878 110.953 239.897Z" fill="#FAFAFA"/>
<path d="M99.7038 255.702C99.6364 255.77 99.2223 254.932 97.9702 254.46C97.3634 254.229 96.5544 254.123 95.755 254.392C95.3601 254.518 94.9652 254.768 94.5125 254.999C94.0695 255.221 93.5205 255.471 92.8945 255.355C92.2684 255.24 91.8446 254.778 91.5461 254.373C91.2475 253.959 91.0163 253.545 90.7467 253.217C90.2362 252.543 89.4657 252.283 88.8204 252.254C87.4816 252.216 86.8652 252.967 86.8267 252.88C86.8074 252.861 86.9134 252.668 87.2312 252.418C87.5491 252.177 88.098 251.907 88.8204 251.898C89.5331 251.869 90.477 252.139 91.0934 252.919C91.4016 253.285 91.6424 253.699 91.9313 254.075C92.2106 254.45 92.5477 254.778 92.9811 254.855C93.8672 255.009 94.6763 254.209 95.6009 253.949C96.5448 253.67 97.4405 253.843 98.0858 254.132C99.4438 254.749 99.752 255.712 99.7038 255.702Z" fill="#FAFAFA"/>
<path d="M74.9031 269.013C74.8356 269.08 74.4215 268.242 73.1694 267.77C72.5626 267.539 71.7536 267.433 70.9542 267.703C70.5593 267.828 70.1644 268.079 69.7117 268.31C69.2687 268.531 68.7197 268.782 68.0937 268.666C67.4676 268.55 67.0439 268.088 66.7453 267.684C66.4467 267.269 66.2156 266.855 65.9459 266.528C65.4354 265.854 64.6649 265.594 64.0196 265.565C62.6809 265.526 62.0645 266.277 62.0259 266.191C62.0067 266.171 62.1126 265.979 62.4304 265.728C62.7483 265.488 63.2973 265.218 64.0196 265.208C64.7323 265.179 65.6762 265.449 66.2926 266.229C66.6008 266.595 66.8416 267.009 67.1305 267.385C67.4099 267.761 67.747 268.088 68.1804 268.165C69.0665 268.319 69.8755 267.52 70.8001 267.26C71.744 266.981 72.6397 267.154 73.285 267.443C74.643 268.059 74.9512 269.022 74.9031 269.013Z" fill="#FAFAFA"/>
<path d="M98.0857 269.311C98.0376 269.398 97.3826 268.743 96.0439 268.695C95.3986 268.676 94.5992 268.839 93.925 269.35C93.5879 269.6 93.2989 269.957 92.9426 270.323C92.5959 270.679 92.1528 271.093 91.5268 271.18C90.9007 271.266 90.3421 270.978 89.9376 270.689C89.5138 270.39 89.1671 270.082 88.8011 269.851C88.098 269.379 87.2793 269.379 86.6726 269.562C85.4012 269.957 85.0545 270.872 84.9871 270.804C84.9582 270.795 84.9967 270.573 85.2182 270.236C85.4398 269.908 85.8732 269.475 86.557 269.225C87.2216 268.965 88.204 268.916 89.0419 269.456C89.456 269.706 89.822 270.014 90.2073 270.284C90.5925 270.554 91.0163 270.756 91.4497 270.689C92.3358 270.544 92.8463 269.533 93.636 268.984C94.4354 268.416 95.3408 268.281 96.0535 268.348C97.5367 268.502 98.1435 269.311 98.0857 269.311Z" fill="#FAFAFA"/>
<path d="M90.4288 279.896C90.3807 279.983 89.7257 279.328 88.387 279.28C87.7417 279.261 86.9423 279.424 86.2681 279.935C85.931 280.185 85.642 280.542 85.2857 280.908C84.9389 281.264 84.4959 281.678 83.8699 281.765C83.2438 281.851 82.6852 281.563 82.2807 281.274C81.8569 280.975 81.5102 280.667 81.1442 280.436C80.4411 279.964 79.6224 279.964 79.0156 280.147C77.7443 280.542 77.3976 281.457 77.3302 281.389C77.3013 281.38 77.3398 281.158 77.5613 280.821C77.7828 280.493 78.2162 280.06 78.9001 279.81C79.5646 279.55 80.547 279.501 81.385 280.041C81.7991 280.291 82.1651 280.599 82.5504 280.869C82.9356 281.139 83.3594 281.341 83.7928 281.274C84.6789 281.139 85.1893 280.118 85.9791 279.569C86.7785 279.001 87.6839 278.866 88.3966 278.933C89.8798 279.078 90.477 279.887 90.4288 279.896Z" fill="#FAFAFA"/>
<path d="M74.2481 306.151C74.1807 306.219 73.7569 305.39 72.5049 304.938C71.8981 304.716 71.089 304.62 70.2896 304.899C69.8948 305.034 69.4999 305.284 69.0568 305.525C68.6234 305.756 68.0648 306.007 67.4484 305.901C66.8223 305.795 66.3889 305.333 66.0904 304.938C65.7822 304.524 65.5414 304.119 65.2717 303.792C64.7516 303.127 63.9715 302.877 63.3358 302.857C61.997 302.838 61.3999 303.599 61.3517 303.512C61.3325 303.493 61.4384 303.3 61.7466 303.05C62.0548 302.809 62.6038 302.53 63.3358 302.501C64.0389 302.462 64.9924 302.723 65.6281 303.493C65.9459 303.859 66.1963 304.264 66.4852 304.639C66.7742 305.015 67.1113 305.333 67.5447 305.41C68.4308 305.554 69.2302 304.745 70.1548 304.466C71.089 304.167 71.9944 304.331 72.6493 304.61C73.9784 305.198 74.3059 306.161 74.2481 306.151Z" fill="#FAFAFA"/>
<path d="M93.1834 311.737C93.1352 311.824 92.4899 311.16 91.1512 311.092C90.5058 311.063 89.6968 311.208 89.0226 311.718C88.6855 311.959 88.387 312.315 88.0306 312.681C87.6839 313.028 87.2312 313.433 86.6051 313.519C85.9791 313.606 85.4205 313.298 85.0256 312.999C84.6115 312.701 84.2647 312.383 83.9084 312.142C83.2149 311.66 82.3962 311.651 81.7798 311.824C80.4989 312.2 80.1521 313.115 80.0751 313.038C80.0462 313.028 80.0944 312.807 80.3159 312.479C80.5374 312.152 80.9804 311.728 81.6643 311.487C82.3288 311.237 83.3112 311.208 84.1492 311.747C84.5537 311.997 84.9197 312.315 85.3049 312.585C85.6902 312.855 86.114 313.067 86.5474 313.009C87.4334 312.884 87.9632 311.872 88.7626 311.333C89.5716 310.774 90.477 310.659 91.18 310.736C92.644 310.909 93.2315 311.728 93.1834 311.737Z" fill="#FAFAFA"/>
<path d="M30.8107 232.086C31.3982 232.78 52.568 261.086 52.568 261.086L49.5822 262.772L27.8539 234.821L30.8107 232.086Z" fill="#263238"/>
<path d="M113.457 252.283C113.457 252.283 93.5976 286.532 92.2492 287.168C89.6005 288.41 59.1269 262.069 56.2183 259.555C55.8137 259.015 54.9951 257.888 53.3674 255.644C53.3674 255.644 50.9595 244.645 48.3976 245.483C45.8356 246.331 49.8038 251.079 48.1279 255.259C46.4521 259.439 38.8048 249.471 38.4965 248.575L36.5221 245.994C36.5221 245.994 34.4514 251.859 34.5958 254.315C35.0485 262.165 42.4743 271.498 42.4743 271.498C42.4743 271.498 72.6494 309.31 95.5046 310.601C102.083 310.967 114.652 292.022 122.472 278.028C127.192 269.571 125.005 260.98 117.175 255.278L113.457 252.283Z" fill="#FFBE9D"/>
<path d="M38.3617 255.702C38.2943 255.741 37.4564 254.546 36.6666 252.928C35.8672 251.32 35.4145 249.923 35.4916 249.895C35.5686 249.866 36.1465 251.195 36.9363 252.794C37.7164 254.402 38.4291 255.654 38.3617 255.702Z" fill="#EB996E"/>
<path d="M112.523 242.758C111.743 243.23 93.2701 277.517 93.2701 277.517L117.04 296.144C117.04 296.144 123.224 280.908 126.489 268.522C127.375 265.16 126.922 256.174 125.67 252.707C123.898 247.785 121.22 249.009 117.204 246.129L112.523 242.758Z" fill="#0065E5"/>
<g opacity="0.7">
<path d="M120.334 242.758C120.325 242.777 120.103 242.623 119.66 242.401C119.227 242.18 118.504 241.91 117.57 241.958C116.636 241.987 115.528 242.45 114.469 243.249C113.4 244.058 112.359 245.204 111.377 246.581C110.375 247.949 109.547 249.625 108.526 251.359C107.534 253.112 106.465 254.97 105.348 256.935C103.104 260.865 100.628 265.17 98.0376 269.697C96.458 272.442 94.9267 275.11 93.4819 277.623L93.4242 277.325C99.8675 282.41 105.473 286.841 109.509 290.038C111.464 291.608 113.043 292.879 114.18 293.785C114.69 294.209 115.104 294.546 115.413 294.806C115.692 295.037 115.836 295.172 115.827 295.181C115.817 295.191 115.663 295.085 115.364 294.873C115.037 294.632 114.613 294.314 114.074 293.92C112.918 293.043 111.31 291.81 109.316 290.289C105.251 287.129 99.6075 282.747 93.1256 277.72L92.9619 277.594L93.0678 277.411C94.5029 274.898 96.0343 272.23 97.6138 269.485C100.214 264.968 102.69 260.663 104.953 256.743C106.08 254.787 107.158 252.929 108.17 251.185C109.191 249.461 110.058 247.776 111.098 246.398C112.119 245.012 113.197 243.856 114.315 243.047C115.422 242.238 116.588 241.785 117.58 241.785C118.562 241.756 119.294 242.074 119.727 242.334C119.959 242.45 120.103 242.584 120.209 242.652C120.286 242.71 120.344 242.748 120.334 242.758Z" fill="black"/>
</g>
<path d="M113.236 274.907C113.168 274.975 112.754 274.137 111.502 273.665C110.895 273.434 110.086 273.328 109.287 273.597C108.892 273.723 108.497 273.973 108.045 274.204C107.602 274.426 107.053 274.676 106.427 274.561C105.8 274.445 105.377 273.983 105.078 273.578C104.78 273.164 104.548 272.75 104.279 272.422C103.768 271.748 102.998 271.488 102.352 271.459C101.023 271.421 100.397 272.172 100.359 272.085C100.339 272.066 100.445 271.873 100.763 271.623C101.081 271.382 101.63 271.113 102.352 271.103C103.065 271.074 104.009 271.344 104.625 272.124C104.934 272.49 105.174 272.904 105.463 273.28C105.743 273.655 106.08 273.983 106.513 274.06C107.399 274.214 108.208 273.414 109.133 273.154C110.077 272.875 110.973 273.048 111.618 273.337C112.976 273.954 113.284 274.917 113.236 274.907Z" fill="#FAFAFA"/>
<path d="M124.1 270.467C124.013 270.515 123.84 269.6 122.771 268.811C122.251 268.425 121.5 268.108 120.652 268.146C120.238 268.165 119.785 268.291 119.294 268.396C118.812 268.493 118.206 268.579 117.637 268.3C117.069 268.021 116.78 267.462 116.607 266.99C116.424 266.509 116.318 266.046 116.145 265.661C115.836 264.871 115.162 264.409 114.555 264.216C113.284 263.822 112.485 264.38 112.465 264.284C112.446 264.265 112.61 264.101 112.976 263.947C113.342 263.802 113.939 263.696 114.652 263.87C115.345 264.033 116.183 264.554 116.568 265.469C116.771 265.902 116.886 266.374 117.06 266.807C117.223 267.25 117.464 267.655 117.859 267.847C118.668 268.233 119.67 267.684 120.633 267.684C121.615 267.664 122.434 268.079 122.983 268.531C124.11 269.485 124.148 270.496 124.1 270.467Z" fill="#FAFAFA"/>
<path d="M124.659 256.299C124.572 256.348 124.399 255.433 123.33 254.643C122.809 254.258 122.058 253.94 121.211 253.978C120.796 253.998 120.344 254.123 119.853 254.229C119.371 254.325 118.764 254.412 118.196 254.132C117.628 253.853 117.339 253.294 117.165 252.823C116.982 252.341 116.877 251.879 116.703 251.493C116.395 250.704 115.721 250.241 115.114 250.049C113.843 249.654 113.043 250.212 113.024 250.116C113.005 250.097 113.168 249.933 113.534 249.779C113.9 249.635 114.498 249.529 115.21 249.702C115.904 249.866 116.742 250.386 117.127 251.301C117.329 251.734 117.445 252.206 117.618 252.64C117.782 253.083 118.023 253.487 118.418 253.68C119.227 254.065 120.228 253.516 121.191 253.516C122.174 253.497 122.992 253.911 123.541 254.364C124.668 255.317 124.707 256.319 124.659 256.299Z" fill="#FAFAFA"/>
<path d="M119.4 288.882C119.313 288.93 119.14 288.015 118.071 287.226C117.551 286.84 116.799 286.523 115.952 286.561C115.538 286.58 115.085 286.706 114.594 286.811C114.112 286.908 113.506 286.994 112.937 286.715C112.369 286.436 112.08 285.877 111.907 285.405C111.724 284.924 111.618 284.461 111.444 284.076C111.136 283.286 110.462 282.824 109.855 282.631C108.584 282.237 107.785 282.795 107.765 282.699C107.746 282.68 107.91 282.516 108.276 282.362C108.642 282.217 109.239 282.111 109.952 282.285C110.645 282.448 111.483 282.969 111.868 283.884C112.07 284.317 112.186 284.789 112.359 285.222C112.523 285.665 112.764 286.07 113.159 286.262C113.968 286.648 114.97 286.099 115.933 286.099C116.915 286.08 117.734 286.494 118.283 286.946C119.41 287.9 119.448 288.901 119.4 288.882Z" fill="#FAFAFA"/>
</g>
<defs>
<clipPath id="clip0_279_3069">
<rect width="375.951" height="400" fill="white" transform="translate(0 0.336426)"/>
</clipPath>
</defs>
</svg>
