<svg width="32" height="33" viewBox="0 0 32 33" fill="none" xmlns="http://www.w3.org/2000/svg">
<path fill-rule="evenodd" clip-rule="evenodd" d="M17.0725 5.66984C11.002 5.66984 6.14597 10.4437 6.14597 16.2536C6.14597 17.9392 6.5518 19.5302 7.27418 20.9431C7.59531 21.5712 7.43783 22.2069 7.33912 22.5163C7.22096 22.8866 7.02882 23.2592 6.83492 23.5921C6.46875 24.2207 5.95654 24.9388 5.49183 25.5903C5.46159 25.6326 5.43155 25.6748 5.40177 25.7165C5.19871 26.0014 5.00718 26.2716 4.83319 26.5246C5.21137 26.3707 5.62477 26.1901 6.06489 25.9952C6.14403 25.9602 6.22406 25.9247 6.30477 25.8889C7.06128 25.5531 7.8778 25.1908 8.58864 24.9413C8.98296 24.8029 9.40036 24.6787 9.79643 24.6176C10.1474 24.5635 10.7114 24.519 11.2457 24.7771C11.3126 24.8094 11.3809 24.8425 11.4506 24.8762C12.2514 25.2638 13.2296 25.7372 14.235 26.1293C15.3574 26.5669 16.3549 26.8373 17.0725 26.8373C23.1429 26.8373 27.999 22.0634 27.999 16.2536C27.999 10.4437 23.1429 5.66984 17.0725 5.66984ZM3.26901 27.0027C3.26925 27.0024 3.27439 27.0024 3.28371 27.0032C3.27342 27.0033 3.26876 27.0029 3.26901 27.0027ZM3.4793 16.2536C3.4793 8.9002 9.60108 3.00317 17.0725 3.00317C24.5439 3.00317 30.6657 8.9002 30.6657 16.2536C30.6657 23.607 24.5439 29.504 17.0725 29.504C15.8328 29.504 14.4477 29.0744 13.2663 28.6138C12.1572 28.1813 11.0873 27.6632 10.2961 27.2801C10.2745 27.2696 10.2531 27.2592 10.2319 27.249C10.223 27.2501 10.2133 27.2515 10.2029 27.2531C10.042 27.2779 9.80141 27.3417 9.47187 27.4574C8.8684 27.6693 8.15331 27.9863 7.37041 28.3335C7.29571 28.3666 7.22039 28.4 7.1445 28.4336C6.31437 28.8011 5.40057 29.2002 4.62118 29.4357C4.23476 29.5525 3.79995 29.6551 3.37864 29.6684C2.98922 29.6806 2.33009 29.6245 1.81966 29.1066C1.23353 28.5118 1.30734 27.761 1.38662 27.3976C1.4737 26.9984 1.6582 26.6085 1.83474 26.2848C2.19521 25.6238 2.74059 24.8557 3.23026 24.1688L3.2878 24.088C3.78305 23.3933 4.2288 22.7681 4.53068 22.2499C4.63124 22.0772 4.69996 21.9427 4.74454 21.843C3.93276 20.1441 3.4793 18.2492 3.4793 16.2536ZM4.81082 21.6579C4.81157 21.6574 4.81022 21.6665 4.80452 21.6863C4.80721 21.6683 4.81007 21.6584 4.81082 21.6579ZM10.313 27.2429C10.3128 27.243 10.3087 27.2432 10.3011 27.2426C10.3093 27.2424 10.3131 27.2427 10.313 27.2429Z" fill="#0065E5"/>
</svg>
