<svg width="14" height="15" viewBox="0 0 14 15" fill="none" xmlns="http://www.w3.org/2000/svg">
<path d="M6.99813 5.0021C5.71276 5.0021 4.6638 6.05106 4.6638 7.33643C4.6638 8.62179 5.71276 9.67075 6.99813 9.67075C8.28349 9.67075 9.33245 8.62179 9.33245 7.33643C9.33245 6.05106 8.28349 5.0021 6.99813 5.0021ZM13.9994 7.33643C13.9994 6.36977 14.0081 5.41188 13.9538 4.44697C13.8995 3.32622 13.6439 2.33154 12.8243 1.51199C12.003 0.690686 11.0101 0.436764 9.88933 0.382477C8.92268 0.328191 7.96478 0.336947 6.99988 0.336947C6.03322 0.336947 5.07533 0.328191 4.11043 0.382477C2.98967 0.436764 1.995 0.692437 1.17544 1.51199C0.354138 2.3333 0.100216 3.32622 0.0459295 4.44697C-0.00835713 5.41363 0.000398809 6.37152 0.000398809 7.33643C0.000398809 8.30133 -0.00835713 9.26098 0.0459295 10.2259C0.100216 11.3466 0.355889 12.3413 1.17544 13.1609C1.99675 13.9822 2.98967 14.2361 4.11043 14.2904C5.07708 14.3447 6.03498 14.3359 6.99988 14.3359C7.96653 14.3359 8.92443 14.3447 9.88933 14.2904C11.0101 14.2361 12.0048 13.9804 12.8243 13.1609C13.6456 12.3396 13.8995 11.3466 13.9538 10.2259C14.0099 9.26098 13.9994 8.30308 13.9994 7.33643ZM6.99813 10.9281C5.01053 10.9281 3.40645 9.32402 3.40645 7.33643C3.40645 5.34883 5.01053 3.74475 6.99813 3.74475C8.98572 3.74475 10.5898 5.34883 10.5898 7.33643C10.5898 9.32402 8.98572 10.9281 6.99813 10.9281ZM10.7369 4.43647C10.2728 4.43647 9.89809 4.06171 9.89809 3.59765C9.89809 3.13359 10.2728 2.75883 10.7369 2.75883C11.201 2.75883 11.5757 3.13359 11.5757 3.59765C11.5759 3.70784 11.5543 3.81698 11.5121 3.91881C11.47 4.02065 11.4083 4.11317 11.3303 4.19109C11.2524 4.26901 11.1599 4.33079 11.0581 4.3729C10.9562 4.415 10.8471 4.4366 10.7369 4.43647Z" fill="url(#paint0_linear_437_50)"/>
<defs>
<linearGradient id="paint0_linear_437_50" x1="1.8749" y1="0.931828" x2="12.1218" y2="13.7405" gradientUnits="userSpaceOnUse">
<stop stop-color="#CE00D2"/>
<stop offset="0.557292" stop-color="#E6758D"/>
<stop offset="1" stop-color="#FFC364"/>
</linearGradient>
</defs>
</svg>
