<svg width="16" height="17" viewBox="0 0 16 17" fill="none" xmlns="http://www.w3.org/2000/svg">
<path d="M4.96217 13.8364H2.68158V6.49229H4.96217V13.8364ZM3.82064 5.49048C3.09139 5.49048 2.49988 4.88645 2.49988 4.15719C2.49988 3.8069 2.63903 3.47096 2.88672 3.22327C3.13441 2.97558 3.47036 2.83643 3.82064 2.83643C4.17093 2.83643 4.50688 2.97558 4.75457 3.22327C5.00226 3.47096 5.14141 3.8069 5.14141 4.15719C5.14141 4.88645 4.54966 5.49048 3.82064 5.49048ZM13.4977 13.8364H11.222V10.2613C11.222 9.40932 11.2048 8.31666 10.0363 8.31666C8.85056 8.31666 8.66886 9.24235 8.66886 10.2V13.8364H6.39072V6.49229H8.578V7.4941H8.60993C8.9144 6.91707 9.65814 6.30813 10.7677 6.30813C13.0758 6.30813 13.5001 7.82803 13.5001 9.80218V13.8364H13.4977Z" fill="#0E76A8"/>
</svg>
