<svg width="120" height="51" viewBox="0 0 120 51" fill="none" xmlns="http://www.w3.org/2000/svg">
<g clip-path="url(#clip0_113_295)">
<path d="M97.0574 40.3817C97.0574 39.4577 96.9411 38.5638 96.7179 37.7106C96.2379 35.8519 95.2635 34.19 93.946 32.8736C92.0237 30.9513 89.3694 29.7622 86.4379 29.7622C81.4978 29.7622 77.3424 33.1388 76.1592 37.7106C75.936 38.5626 75.8196 39.4577 75.8196 40.3817C75.8196 41.3056 75.936 42.1996 76.1592 43.0528C76.6392 44.9115 77.6136 46.5734 78.9311 47.8897C80.8534 49.812 83.5077 51.0012 86.4391 51.0012C89.3706 51.0012 92.0249 49.812 93.9472 47.8897C94.8471 46.9898 95.5875 45.9278 96.1191 44.7519H89.4534C88.599 45.347 87.5611 45.6914 86.4403 45.6914C84.4808 45.6914 82.7709 44.6319 81.853 43.0528H96.7191C96.9411 42.1996 97.0574 41.3056 97.0574 40.3817ZM81.8506 37.7106C82.0809 37.3122 82.3629 36.9486 82.6845 36.6271C83.6457 35.6659 84.9728 35.0719 86.4379 35.0719C88.3975 35.0719 90.1074 36.1315 91.0253 37.7106H81.8506Z" fill="#1A1A1A"/>
<path d="M68.8108 22.7545V31.1877C67.2485 30.2842 65.4365 29.7634 63.501 29.7634C57.6369 29.7634 52.8815 34.5176 52.8815 40.3829C52.8815 46.247 57.6357 51.0024 63.501 51.0024C65.4353 51.0024 67.2485 50.4828 68.8108 49.5781V51.0024H74.1205V40.3829V22.7557H68.8108V22.7545ZM63.501 45.6914C60.5684 45.6914 58.1913 43.3144 58.1913 40.3817C58.1913 37.449 60.5684 35.0719 63.501 35.0719C66.4337 35.0719 68.8108 37.449 68.8108 40.3817C68.8108 43.3144 66.4337 45.6914 63.501 45.6914Z" fill="#1A1A1A"/>
<path d="M22.9368 51.0008L28.2465 51.0008L28.2465 29.763L22.9368 29.763L22.9368 51.0008Z" fill="#1A1A1A"/>
<path d="M45.8738 51.0008L51.1835 51.0008L51.1835 29.763L45.8738 29.763L45.8738 51.0008Z" fill="#1A1A1A"/>
<path d="M21.2385 51.0005V45.6908L0.000658035 45.6908V51.0005H21.2385Z" fill="#1A1A1A"/>
<path d="M-0.000241756 50.9999L5.30951 50.9999L5.30951 22.7532L-0.000241755 22.7532L-0.000241756 50.9999Z" fill="#1A1A1A"/>
<path d="M114.685 29.7622V31.1865C113.122 30.283 111.31 29.7622 109.375 29.7622C103.511 29.7622 98.7554 34.5164 98.7554 40.3817C98.7554 46.2458 103.51 51.0012 109.375 51.0012C111.309 51.0012 113.122 50.4816 114.685 49.5768V51.0012H119.994V40.3817V29.7622H114.685ZM109.375 45.6914C106.442 45.6914 104.065 43.3143 104.065 40.3817C104.065 37.449 106.442 35.0719 109.375 35.0719C112.308 35.0719 114.685 37.449 114.685 40.3817C114.685 43.3143 112.308 45.6914 109.375 45.6914Z" fill="#1A1A1A"/>
<path d="M44.1748 29.7622V35.1067H41.1665C40.9673 35.0827 40.7681 35.0719 40.5641 35.0719C40.3602 35.0719 40.161 35.0827 39.9618 35.1067H35.2544V40.3817C35.2544 43.1104 37.3123 45.3591 39.9618 45.6566C40.161 45.6806 40.3602 45.6914 40.5641 45.6914C40.7681 45.6914 40.9673 45.6806 41.1665 45.6566H44.1748V50.3688C43.0468 50.778 41.8301 51.0012 40.5641 51.0012C38.631 51.0012 36.8179 50.484 35.2544 49.5805C34.4504 49.1137 33.7089 48.5425 33.0561 47.8897C32.3925 47.2262 31.8166 46.475 31.3462 45.6566C30.4546 44.1015 29.9446 42.3016 29.9446 40.3817V22.7545H35.2544V29.7634H44.1748V29.7622Z" fill="#1A1A1A"/>
<path d="M48.5281 28.0631C47.0618 28.0631 45.8738 26.8739 45.8738 25.4088C45.8738 23.9425 47.063 22.7545 48.5281 22.7545C49.9945 22.7545 51.1824 23.9437 51.1824 25.4088C51.1836 26.8751 49.9945 28.0631 48.5281 28.0631Z" fill="url(#paint0_linear_113_295)"/>
<path d="M25.5912 28.0631C24.1249 28.0631 22.937 26.8739 22.937 25.4088C22.937 23.9425 24.1261 22.7545 25.5912 22.7545C27.0576 22.7545 28.2455 23.9437 28.2455 25.4088C28.2467 26.8751 27.0576 28.0631 25.5912 28.0631Z" fill="url(#paint1_linear_113_295)"/>
<path d="M56.4934 0C50.6292 0 45.8739 4.75418 45.8739 10.6195V15.9292H28.2467V10.6195C28.2467 4.75538 23.4925 0 17.6272 0C11.7631 0 7.00769 4.75418 7.00769 10.6195C7.00769 16.4836 11.7619 21.239 17.6272 21.239H28.2467H45.8739H56.4934C62.3575 21.239 67.1129 16.4848 67.1129 10.6195C67.1117 4.75418 62.3575 0 56.4934 0ZM22.9369 15.9281H17.6272C14.6993 15.9281 12.3174 13.5462 12.3174 10.6183C12.3174 7.69044 14.6993 5.30855 17.6272 5.30855C20.5551 5.30855 22.9369 7.69044 22.9369 10.6183V15.9281ZM56.4934 15.9281H51.1836V10.6195C51.1836 7.69164 53.5655 5.30975 56.4934 5.30975C59.4212 5.30975 61.8031 7.69164 61.8031 10.6195C61.8031 13.5474 59.42 15.9281 56.4934 15.9281Z" fill="url(#paint2_linear_113_295)"/>
</g>
<defs>
<linearGradient id="paint0_linear_113_295" x1="12.5485" y1="40.3273" x2="69.2242" y2="16.8276" gradientUnits="userSpaceOnUse">
<stop stop-color="#0065E5"/>
<stop offset="1" stop-color="#0590FA"/>
</linearGradient>
<linearGradient id="paint1_linear_113_295" x1="9.18363" y1="32.2121" x2="65.8594" y2="8.71238" gradientUnits="userSpaceOnUse">
<stop stop-color="#0065E5"/>
<stop offset="1" stop-color="#0590FA"/>
</linearGradient>
<linearGradient id="paint2_linear_113_295" x1="5.63334" y1="23.6496" x2="62.3091" y2="0.149928" gradientUnits="userSpaceOnUse">
<stop stop-color="#0065E5"/>
<stop offset="1" stop-color="#0590FA"/>
</linearGradient>
<clipPath id="clip0_113_295">
<rect width="119.994" height="51" fill="white"/>
</clipPath>
</defs>
</svg>
