<svg width="32" height="25" viewBox="0 0 32 25" fill="none" xmlns="http://www.w3.org/2000/svg">
<path d="M16.7382 6.65862C16.7349 5.81535 16.9091 4.9813 17.2489 4.21362C17.5888 3.44593 18.0863 2.76274 18.7073 2.21086C20.0398 0.962381 21.791 0.291536 23.5943 0.33876C25.8837 0.33876 27.6912 1.15688 29.017 2.79312C30.3414 4.42009 31.0491 6.48344 31.0097 8.6035C31.0097 13.6793 29.6537 17.499 26.9417 20.0625C24.2297 22.6261 21.2276 24.0453 17.9354 24.3202V18.7525C19.5944 18.571 21.1651 17.8934 22.4523 16.8035C23.1148 16.2946 23.6605 15.6428 24.0511 14.8939C24.4416 14.145 24.6675 13.3172 24.7128 12.469C24.166 12.7425 23.5645 12.8809 22.9564 12.8733C20.99 12.8733 19.462 12.3005 18.3725 11.1549C17.8222 10.555 17.3941 9.84823 17.1134 9.0761C16.8328 8.30398 16.7052 7.48206 16.7382 6.65862ZM0.00158501 6.65862C-0.00255775 5.81522 0.17131 4.98092 0.511219 4.21311C0.851126 3.4453 1.34901 2.76222 1.9706 2.21086C3.30313 0.962381 5.05436 0.291536 6.8577 0.33876C9.14176 0.33876 10.9349 1.15688 12.2371 2.79312C13.5455 4.42782 14.2437 6.4879 14.2061 8.6035C14.2061 13.6793 12.8645 17.499 10.1814 20.0625C7.49829 22.6261 4.50014 24.0507 1.18694 24.3364V18.7686C2.84234 18.5802 4.40745 17.8969 5.68811 16.8035C6.35554 16.2977 6.90621 15.647 7.30098 14.8978C7.69574 14.1487 7.9249 13.3194 7.97217 12.469C7.42683 12.7426 6.82663 12.881 6.21974 12.8733C4.25597 12.8733 2.72802 12.3005 1.63587 11.1549C1.08548 10.5552 0.657654 9.84836 0.37764 9.07612C0.0976276 8.30388 -0.0289001 7.48188 0.00552368 6.65862H0.00158501Z" fill="#0065E5"/>
</svg>
