<svg width="30" height="27" viewBox="0 0 30 27" fill="none" xmlns="http://www.w3.org/2000/svg">
<path fill-rule="evenodd" clip-rule="evenodd" d="M16.0725 2.66984C10.002 2.66984 5.14597 7.44374 5.14597 13.2536C5.14597 14.9392 5.5518 16.5302 6.27418 17.9431C6.59531 18.5712 6.43783 19.2069 6.33912 19.5163C6.22096 19.8866 6.02882 20.2592 5.83492 20.5921C5.46875 21.2207 4.95654 21.9388 4.49183 22.5903C4.46159 22.6326 4.43155 22.6748 4.40177 22.7165C4.19871 23.0014 4.00718 23.2716 3.83319 23.5246C4.21137 23.3707 4.62477 23.1901 5.06489 22.9952C5.14403 22.9602 5.22406 22.9247 5.30477 22.8889C6.06128 22.5531 6.8778 22.1908 7.58864 21.9413C7.98296 21.8029 8.40036 21.6787 8.79643 21.6176C9.14735 21.5635 9.71139 21.519 10.2457 21.7771C10.3126 21.8094 10.3809 21.8425 10.4506 21.8762C11.2514 22.2638 12.2296 22.7372 13.235 23.1293C14.3574 23.5669 15.3549 23.8373 16.0725 23.8373C22.1429 23.8373 26.999 19.0634 26.999 13.2536C26.999 7.44374 22.1429 2.66984 16.0725 2.66984ZM2.26901 24.0027C2.26925 24.0024 2.27439 24.0024 2.28371 24.0032C2.27342 24.0033 2.26876 24.0029 2.26901 24.0027ZM2.4793 13.2536C2.4793 5.9002 8.60108 0.00317383 16.0725 0.00317383C23.5439 0.00317383 29.6657 5.9002 29.6657 13.2536C29.6657 20.607 23.5439 26.504 16.0725 26.504C14.8328 26.504 13.4477 26.0744 12.2663 25.6138C11.1572 25.1813 10.0873 24.6632 9.29614 24.2801C9.27451 24.2696 9.25308 24.2592 9.23187 24.249C9.22299 24.2501 9.21333 24.2515 9.20286 24.2531C9.04203 24.2779 8.80141 24.3417 8.47187 24.4574C7.8684 24.6693 7.15331 24.9863 6.37041 25.3335C6.29571 25.3666 6.22039 25.4 6.1445 25.4336C5.31437 25.8011 4.40057 26.2002 3.62118 26.4357C3.23476 26.5525 2.79995 26.6551 2.37864 26.6684C1.98922 26.6806 1.33009 26.6245 0.819659 26.1066C0.233526 25.5118 0.307343 24.761 0.386617 24.3976C0.473703 23.9984 0.658198 23.6085 0.83474 23.2848C1.19521 22.6238 1.74059 21.8557 2.23026 21.1688L2.2878 21.088C2.78305 20.3933 3.2288 19.7681 3.53068 19.2499C3.63124 19.0772 3.69996 18.9427 3.74454 18.843C2.93276 17.1441 2.4793 15.2492 2.4793 13.2536ZM3.81082 18.6579C3.81157 18.6574 3.81022 18.6665 3.80452 18.6863C3.80721 18.6683 3.81007 18.6584 3.81082 18.6579ZM9.31298 24.2429C9.31283 24.243 9.3087 24.2432 9.30106 24.2426C9.3093 24.2424 9.31313 24.2427 9.31298 24.2429Z" fill="#0065E5"/>
</svg>
