<svg width="14" height="12" viewBox="0 0 14 12" fill="none" xmlns="http://www.w3.org/2000/svg">
<path d="M14 2.13858C13.4758 2.36312 12.9197 2.51051 12.3503 2.57584C12.9434 2.23217 13.3988 1.68794 13.6132 1.03951C13.0494 1.36298 12.4326 1.59088 11.7893 1.71338C11.2654 1.1737 10.5189 0.836426 9.69276 0.836426C8.10649 0.836426 6.82041 2.07979 6.82041 3.61331C6.82041 3.83099 6.84584 4.0429 6.89478 4.2462C4.50767 4.13036 2.39127 3.02484 0.974586 1.34475C0.727398 1.75488 0.585758 2.23195 0.585758 2.7408C0.585758 3.70425 1.09288 4.55419 1.86353 5.0522C1.40741 5.03838 0.961324 4.91928 0.562516 4.70482C0.562352 4.71645 0.562352 4.72808 0.562352 4.73977C0.562352 6.08523 1.55241 7.20761 2.86634 7.46273C2.44338 7.57394 1.99972 7.59021 1.56926 7.51031C1.93473 8.61356 2.99551 9.41638 4.25234 9.43885C3.26933 10.1836 2.03082 10.6276 0.68518 10.6276C0.453305 10.6276 0.224711 10.6144 0 10.5888C1.2711 11.3767 2.78086 11.8364 4.40289 11.8364C9.68609 11.8364 12.5751 7.60495 12.5751 3.93536C12.5751 3.81492 12.5723 3.69516 12.5668 3.57609C13.1291 3.18308 13.6144 2.69629 14 2.13858Z" fill="#55ACEE"/>
</svg>
